<svg width="29" height="22" viewBox="0 0 29 22" fill="none" xmlns="http://www.w3.org/2000/svg">
<path d="M14.6972 0.152313C22.3272 0.152313 28.5176 6.3427 28.5176 13.9727C28.5176 16.516 27.7978 18.9154 26.5981 20.9309C26.3581 21.4108 25.8303 21.6507 25.3024 21.6507H4.04394C3.51608 21.6507 2.98822 21.4108 2.74828 20.9309C1.54859 18.9154 0.876769 16.516 0.876769 13.9727C0.876769 6.3427 7.01917 0.152313 14.6972 0.152313ZM14.6972 3.22351C13.8334 3.22351 13.1616 3.94333 13.1616 4.75911C13.1616 5.62289 13.8334 6.29471 14.6972 6.29471C14.9851 6.29471 15.273 6.19874 15.513 6.00679L15.9448 4.71113C15.9928 4.56716 16.0888 4.47119 16.1368 4.37521C15.9448 3.75138 15.369 3.22351 14.6972 3.22351ZM5.48357 17.0439C6.29936 17.0439 7.01917 16.3721 7.01917 15.5083C7.01917 14.6925 6.29936 13.9727 5.48357 13.9727C4.61979 13.9727 3.94797 14.6925 3.94797 15.5083C3.94797 16.3721 4.61979 17.0439 5.48357 17.0439ZM7.78697 9.36591C8.60276 9.36591 9.32257 8.69409 9.32257 7.83031C9.32257 7.01453 8.60276 6.29471 7.78697 6.29471C6.92319 6.29471 6.25137 7.01453 6.25137 7.83031C6.25137 8.69409 6.92319 9.36591 7.78697 9.36591ZM19.5919 5.91081C19.7838 5.33496 19.4959 4.66314 18.8721 4.47119C18.2482 4.23125 17.6244 4.56716 17.4325 5.191L14.4572 14.0207C12.8736 14.1167 11.626 15.4603 11.626 17.0439C11.626 17.6198 11.7699 18.1476 12.0099 18.5795H17.3365C17.5764 18.1476 17.7684 17.6198 17.7684 17.0439C17.7684 16.1321 17.3365 15.3164 16.6647 14.7405L19.5919 5.91081ZM20.3117 8.6461C20.5996 9.07799 21.0315 9.36591 21.6074 9.4139C22.4232 9.4139 23.143 8.69409 23.143 7.8783C23.143 7.01453 22.4232 6.3427 21.6074 6.3427C21.4154 6.3427 21.2235 6.3427 21.0315 6.43868L20.3117 8.6461ZM23.9108 17.0439C24.7266 17.0439 25.4464 16.3721 25.4464 15.5083C25.4464 14.6925 24.7266 13.9727 23.9108 13.9727C23.047 13.9727 22.3752 14.6925 22.3752 15.5083C22.3752 16.3721 23.047 17.0439 23.9108 17.0439Z" fill="#C2C7D0"/>
</svg>
