<svg width="22" height="25" viewBox="0 0 22 25" fill="none" xmlns="http://www.w3.org/2000/svg">
<path d="M15.3547 21.7009V23.6204C15.3547 24.2923 14.8268 24.7721 14.203 24.7721H1.15039C0.478563 24.7721 -0.00131226 24.2923 -0.00131226 23.6204V5.96104C-0.00131226 5.33721 0.478563 4.80934 1.15039 4.80934H4.60549V19.0136C4.60549 20.5013 5.80518 21.7009 7.29279 21.7009H15.3547ZM15.3547 5.19324C15.3547 5.86507 15.8346 6.34494 16.5064 6.34494H21.4971V19.0136C21.4971 19.6855 20.9692 20.1653 20.3454 20.1653H7.29279C6.62096 20.1653 6.14109 19.6855 6.14109 19.0136V1.35424C6.14109 0.730406 6.62096 0.202544 7.29279 0.202544H15.3547V5.19324ZM21.1132 3.70563C21.3531 3.94557 21.4971 4.23349 21.4971 4.52142V4.80934H16.8903V0.202544H17.1782C17.4661 0.202544 17.7541 0.346506 17.994 0.586444L21.1132 3.70563Z" fill="#C2C7D0"/>
</svg>
