<svg width="40" height="40" viewBox="0 0 40 40" fill="none" xmlns="http://www.w3.org/2000/svg">
<g filter="url(#filter0_d_585_430)">
<circle cx="19.626" cy="15.626" r="15.626" fill="#D9D9D9"/>
<path d="M16.2399 8.85658V11.4071C16.2399 11.8535 15.8892 12.1723 15.4748 12.1723H12.2547C11.8083 12.1723 11.4895 11.8535 11.4895 11.4071V8.85658C11.4895 8.44211 11.8083 8.09141 12.2547 8.09141H15.4748C15.8892 8.09141 16.2399 8.44211 16.2399 8.85658ZM22.0106 16.5083C22.0106 16.9546 21.6599 17.2735 21.2454 17.2735H18.0253C17.6109 17.2735 17.2602 16.9546 17.2602 16.5083V13.9577C17.2602 13.5433 17.6109 13.1925 18.0253 13.1925H21.2454C21.6599 13.1925 22.0106 13.5433 22.0106 13.9577V16.5083ZM23.0308 8.85658C23.0308 8.44211 23.3815 8.09141 23.796 8.09141H27.048C27.4624 8.09141 27.8131 8.44211 27.8131 8.85658V11.4071C27.8131 11.8535 27.4624 12.1723 27.048 12.1723H23.796C23.3815 12.1723 23.0308 11.8535 23.0308 11.4071V8.85658ZM22.0106 11.4071C22.0106 11.8535 21.6599 12.1723 21.2454 12.1723H18.0253C17.6109 12.1723 17.2602 11.8535 17.2602 11.4071V8.85658C17.2602 8.44211 17.6109 8.09141 18.0253 8.09141H21.2454C21.6599 8.09141 22.0106 8.44211 22.0106 8.85658V11.4071ZM15.4748 13.1925C15.8892 13.1925 16.2399 13.5433 16.2399 13.9577V16.5083C16.2399 16.9546 15.8892 17.2735 15.4748 17.2735H12.2547C11.8083 17.2735 11.4895 16.9546 11.4895 16.5083V13.9577C11.4895 13.5433 11.8083 13.1925 12.2547 13.1925H15.4748ZM11.4895 19.0589C11.4895 18.6444 11.8083 18.2937 12.2547 18.2937H15.4748C15.8892 18.2937 16.2399 18.6444 16.2399 19.0589V21.6094C16.2399 22.0558 15.8892 22.3746 15.4748 22.3746H12.2547C11.8083 22.3746 11.4895 22.0558 11.4895 21.6094V19.0589ZM23.796 17.2735C23.3815 17.2735 23.0308 16.9546 23.0308 16.5083V13.9577C23.0308 13.5433 23.3815 13.1925 23.796 13.1925H27.048C27.4624 13.1925 27.8131 13.5433 27.8131 13.9577V16.5083C27.8131 16.9546 27.4624 17.2735 27.048 17.2735H23.796ZM23.796 22.3746C23.3815 22.3746 23.0308 22.0558 23.0308 21.6094V19.0589C23.0308 18.6444 23.3815 18.2937 23.796 18.2937H27.048C27.4624 18.2937 27.8131 18.6444 27.8131 19.0589V21.6094C27.8131 22.0558 27.4624 22.3746 27.048 22.3746H23.796ZM17.2602 19.0589C17.2602 18.6444 17.6109 18.2937 18.0253 18.2937H21.2454C21.6599 18.2937 22.0106 18.6444 22.0106 19.0589V21.6094C22.0106 22.0558 21.6599 22.3746 21.2454 22.3746H18.0253C17.6109 22.3746 17.2602 22.0558 17.2602 21.6094V19.0589Z" fill="#4F9CF9"/>
</g>
<defs>
<filter id="filter0_d_585_430" x="0" y="0" width="39.252" height="39.252" filterUnits="userSpaceOnUse" color-interpolation-filters="sRGB">
<feFlood flood-opacity="0" result="BackgroundImageFix"/>
<feColorMatrix in="SourceAlpha" type="matrix" values="0 0 0 0 0 0 0 0 0 0 0 0 0 0 0 0 0 0 127 0" result="hardAlpha"/>
<feOffset dy="4"/>
<feGaussianBlur stdDeviation="2"/>
<feComposite in2="hardAlpha" operator="out"/>
<feColorMatrix type="matrix" values="0 0 0 0 0 0 0 0 0 0 0 0 0 0 0 0 0 0 0.25 0"/>
<feBlend mode="normal" in2="BackgroundImageFix" result="effect1_dropShadow_585_430"/>
<feBlend mode="normal" in="SourceGraphic" in2="effect1_dropShadow_585_430" result="shape"/>
</filter>
</defs>
</svg>
