<svg width="1301" height="1001" viewBox="0 0 1301 1001" fill="none" xmlns="http://www.w3.org/2000/svg">
<g clip-path="url(#clip0_677_482)">
<mask id="mask0_677_482" style="mask-type:luminance" maskUnits="userSpaceOnUse" x="0" y="0" width="1301" height="1001">
<path d="M1300.57 0.234375H0.568115V1000.23H1300.57V0.234375Z" fill="white"/>
</mask>
<g mask="url(#mask0_677_482)">
<mask id="mask1_677_482" style="mask-type:luminance" maskUnits="userSpaceOnUse" x="-97" y="-175" width="1501" height="1501">
<path d="M-96.4475 -174.826H1403.55V1325.17H-96.4475V-174.826Z" fill="white"/>
</mask>
<g mask="url(#mask1_677_482)">
<path d="M910.996 436.304H469.32C453.123 436.304 439.993 423.174 439.993 406.977V100.681C439.993 84.4838 453.123 71.3538 469.32 71.3538H910.996C927.193 71.3538 940.324 84.4838 940.324 100.681V406.977C940.324 423.174 927.193 436.304 910.996 436.304Z" stroke="#EAE6FF" stroke-width="2" stroke-miterlimit="10" stroke-linecap="round"/>
<path d="M570.074 282.084L607.72 219.007V199.061L598.079 204.301L593.186 212.38C585.915 209.967 578.155 208.627 570.074 208.627C536.394 208.627 508.03 231.302 499.36 262.212L496.617 262.138L496.771 277.539C496.679 279.044 496.617 280.556 496.617 282.084C496.617 284.078 496.72 286.048 496.876 288.002L496.878 288.251L496.894 288.238C500.023 325.924 531.58 355.54 570.074 355.54C610.643 355.54 643.531 322.653 643.531 282.084H570.074Z" fill="#064384"/>
<path d="M630.299 274.966L635.488 282.084H570.074C570.074 282.084 613.385 310.843 631.74 321.976C639.188 310.486 643.531 296.796 643.531 282.084V262.138L630.299 274.966Z" fill="#BF2240"/>
<path d="M631.74 302.03V321.976L613.646 323.839L590.605 303.535L611.173 298.06L631.74 302.03Z" fill="#064384"/>
<path d="M607.72 199.061C596.709 192.475 583.837 188.681 570.074 188.681C529.505 188.681 496.617 221.569 496.617 262.138C496.617 302.707 529.505 335.594 570.074 335.594C610.643 335.594 643.531 302.707 643.531 262.138H570.074L607.72 199.061Z" fill="#00CCF3"/>
<path d="M670.365 235.848C664.734 219.157 653.278 205.147 638.403 196.25L621.045 225.334L600.757 239.381V259.327H674.213V239.381L670.365 235.848Z" fill="#FFA959"/>
<path d="M638.403 176.304L600.757 239.381H674.213C674.213 212.575 659.849 189.131 638.403 176.304Z" fill="#FFE459"/>
<path d="M638.403 176.304L600.757 239.381H674.213C674.213 212.575 659.849 189.131 638.403 176.304Z" stroke="white" stroke-width="0.25" stroke-miterlimit="10"/>
<path d="M643.531 262.138H570.074C570.074 262.138 613.385 290.897 631.74 302.03C639.188 290.54 643.531 276.85 643.531 262.138Z" fill="#FF2D55"/>
<path d="M607.72 199.061C596.709 192.475 583.837 188.681 570.074 188.681C529.505 188.681 496.617 221.569 496.617 262.138C496.617 302.707 529.505 335.594 570.074 335.594C610.643 335.594 643.531 302.707 643.531 262.138H570.074L607.72 199.061Z" stroke="white" stroke-width="0.75" stroke-miterlimit="10"/>
<path d="M747.396 167.585V242.427H895.186" stroke="#5652E5" stroke-width="0.75" stroke-miterlimit="10" stroke-linecap="round"/>
<path d="M754.268 230.884L774.99 223.682L788.626 230.884L838.314 185.558L863.158 228.373L897.516 167.585" stroke="#FF2D55" stroke-width="0.75" stroke-miterlimit="10" stroke-linecap="round"/>
<path d="M757.968 205.006L809.692 231.413L825.892 218.21L839.371 230.884L861.572 173.929L890.347 230.884" stroke="#009CF7" stroke-width="0.75" stroke-miterlimit="10" stroke-linecap="round"/>
<path d="M741.45 167.585H753.343" stroke="#5652E5" stroke-width="0.75" stroke-miterlimit="10" stroke-linecap="round"/>
<path d="M895.186 248.374V236.48" stroke="#5652E5" stroke-width="0.75" stroke-miterlimit="10" stroke-linecap="round"/>
<path d="M592.833 108.367H798.064" stroke="#EAE6FF" stroke-width="3" stroke-miterlimit="10" stroke-linecap="round"/>
<path d="M613.971 125.294H776.924" stroke="#EAE6FF" stroke-width="3" stroke-miterlimit="10" stroke-linecap="round"/>
<path d="M799.496 303.397H870.788" stroke="#EAE6FF" stroke-width="2" stroke-miterlimit="10" stroke-linecap="round"/>
<path d="M788.73 311.865H771.795V294.93H788.73V311.865Z" fill="#00CCF3"/>
<path d="M799.496 326.331H870.788" stroke="#EAE6FF" stroke-width="2" stroke-miterlimit="10" stroke-linecap="round"/>
<path d="M788.73 334.798H771.795V317.864H788.73V334.798Z" fill="#FFE459"/>
<path d="M788.73 334.798H771.795V317.864H788.73V334.798Z" stroke="white" stroke-width="0.25" stroke-miterlimit="10"/>
<path d="M799.496 347.073H870.788" stroke="#EAE6FF" stroke-width="2" stroke-miterlimit="10" stroke-linecap="round"/>
<path d="M788.73 355.54H771.795V338.606H788.73V355.54Z" fill="#FF2D55"/>
</g>
<mask id="mask2_677_482" style="mask-type:luminance" maskUnits="userSpaceOnUse" x="-64" y="-174" width="1501" height="1501">
<path d="M-63.4319 -173.766H1436.57V1326.23H-63.4319V-173.766Z" fill="white"/>
</mask>
<g mask="url(#mask2_677_482)">
<mask id="mask3_677_482" style="mask-type:luminance" maskUnits="userSpaceOnUse" x="-64" y="-174" width="1501" height="1501">
<path d="M-63.4321 -173.766H1436.57V1326.23H-63.4321V-173.766Z" fill="white"/>
</mask>
<g mask="url(#mask3_677_482)">
<path d="M1097.67 966.017H1132C1131.82 964.457 1131.56 962.932 1131.22 961.484C1128.5 949.998 1142.1 739.931 1142.1 739.931H1063.21L1086.79 950.3C1086.79 950.3 1095.4 949.468 1097.67 966.017Z" fill="#FFE459"/>
<path d="M1216.91 969.645C1216.91 969.645 1230.43 945.843 1249.4 946.07C1245.17 938.514 1229.15 729.957 1229.15 729.957L1146.94 738.723L1200.43 969.645H1216.91Z" fill="#FFE459"/>
<path d="M1086.79 950.3C1086.79 950.3 1072.28 964.809 1060.79 969.796C1049.31 974.783 1033.59 976.899 1035.1 989.291H1131.22C1131.22 989.291 1133.29 976.826 1132 966.017H1097.67C1095.4 949.468 1086.79 950.3 1086.79 950.3Z" fill="#0095B0"/>
<path d="M1216.91 969.644H1200.43L1202.85 989.292H1291.72C1291.72 989.292 1295.34 979.316 1287.79 972.969C1280.23 966.622 1253.63 953.625 1249.4 946.069C1230.43 945.842 1216.91 969.644 1216.91 969.644Z" fill="#0095B0"/>
<path d="M1064.97 755.651L1140.61 763.336C1141.51 748.953 1142.1 739.931 1142.1 739.931H1063.21L1064.97 755.651Z" fill="black"/>
<path d="M1229.15 729.957L1146.94 738.723L1152.44 762.486L1230.56 748.06C1229.68 736.818 1229.15 729.957 1229.15 729.957Z" fill="black"/>
<path d="M1069.26 562.507C1069.26 562.507 1055.65 593.643 1052.03 634.446C1048.4 675.249 1056.26 746.31 1056.26 746.31C1056.26 746.31 1116.71 755.648 1144.21 753.532C1171.72 751.416 1236.4 737.513 1236.4 737.513C1236.4 737.513 1225.82 594.244 1186.53 562.507C1147.24 530.77 1069.26 562.507 1069.26 562.507Z" fill="#FF2D55"/>
<path d="M1180.93 562.507C1180.93 562.507 1219.3 614.797 1224.83 739.931" stroke="black" stroke-width="0.5" stroke-miterlimit="10" stroke-linecap="round"/>
<path d="M1095.22 682.539L1130.02 693.481" stroke="black" stroke-width="0.5" stroke-miterlimit="10" stroke-linecap="round"/>
<path d="M1035.71 983.85H1132.11" stroke="black" stroke-width="0.75" stroke-miterlimit="10" stroke-linecap="round"/>
<path d="M1097.67 966.017C1097.67 966.017 1076.81 971.76 1066.84 983.85" stroke="black" stroke-width="0.75" stroke-miterlimit="10" stroke-linecap="round"/>
<path d="M1060.79 969.796C1060.79 969.796 1072.73 967.529 1079.99 978.41" stroke="black" stroke-width="0.75" stroke-miterlimit="10" stroke-linecap="round"/>
<path d="M1075.14 960.586C1075.14 960.586 1085.43 962.541 1092.68 973.196" stroke="black" stroke-width="0.75" stroke-miterlimit="10" stroke-linecap="round"/>
<path d="M1202.18 983.85H1292.59" stroke="black" stroke-width="0.75" stroke-miterlimit="10" stroke-linecap="round"/>
<path d="M1216.91 969.644C1216.91 969.644 1256.8 966.773 1269.95 983.85" stroke="black" stroke-width="0.75" stroke-miterlimit="10" stroke-linecap="round"/>
<path d="M1260.23 955.435C1260.23 955.435 1247.74 951.963 1227.79 974.632" stroke="black" stroke-width="0.75" stroke-miterlimit="10" stroke-linecap="round"/>
<path d="M1246.51 976.657C1246.51 976.657 1257.95 963.793 1272.11 962.865" stroke="black" stroke-width="0.75" stroke-miterlimit="10" stroke-linecap="round"/>
</g>
<path d="M1165.77 327.438C1165.77 327.438 1165.77 327.438 1160.51 303.911C1155.25 280.383 1117.79 271.012 1087.77 282.259C1057.76 293.507 1068.5 324.774 1068.5 324.774L1067.1 355.822C1046.92 368.691 1049.63 386.969 1049.63 386.969C1053.5 389.561 1057.86 391.545 1062.53 393.115L1064.15 383.659L1067.97 394.705C1093.4 401.035 1126.95 395.549 1153.44 388.738L1153.99 376.316L1158.22 387.481C1180.46 381.454 1196.64 374.953 1196.64 374.953C1196.61 333.712 1165.77 327.438 1165.77 327.438Z" fill="#FF2D55"/>
<mask id="mask4_677_482" style="mask-type:luminance" maskUnits="userSpaceOnUse" x="-114" y="-194" width="1603" height="1603">
<path d="M-113.207 -87.8142L1383.08 -193.285L1488.55 1303L-7.73673 1408.47L-113.207 -87.8142Z" fill="white"/>
</mask>
<g mask="url(#mask4_677_482)">
<path d="M1062.58 440.751C1062.58 440.751 1039 447.959 1019.21 496.047L1058.37 509.981L1071 444.097L1062.58 440.751Z" fill="#0075B9"/>
<path d="M1120.84 422.631C1120.84 422.631 1081.59 426.685 1062.58 440.751C1062.58 440.751 1050.03 465.816 1042.95 494.373C1035.87 522.93 1068.45 566.993 1068.45 566.993L1185.43 558.747C1185.43 558.747 1211.62 433.018 1200.74 430.259C1173.16 423.261 1153.61 421.154 1120.84 422.631Z" fill="#009CF7"/>
<path d="M1160.66 506.923C1160.66 506.923 1193.19 512.942 1232.37 486.735L1208.03 471.094L1177.29 478.425L1160.66 506.923Z" fill="#007F96"/>
<path d="M1196.66 436.826C1196.66 436.826 1177.08 436.097 1169.77 459.092C1162.46 482.087 1164.92 564.394 1164.92 564.394C1164.92 564.394 1165.78 599.081 1202.04 602.473C1231.83 605.26 1229.82 571.678 1229.82 571.678L1223.93 467.498C1223.93 467.498 1222.19 445.397 1196.66 436.826Z" fill="#FFE459"/>
<path d="M1164.6 547.023L1194.84 544.727L1164.59 521.619C1164.49 530.989 1164.52 539.827 1164.6 547.023Z" fill="black"/>
<path d="M1066.53 490.909C1066.53 490.909 1089.85 499.276 1099.88 516.361L1075.15 522.907L1049.67 505.649L1066.53 490.909Z" fill="#FFA959"/>
<path d="M1083.69 571.759L1066.92 453.49C1066.68 451.805 1065.31 450.504 1063.62 450.346L983.122 442.816C982.761 442.782 982.415 442.817 982.079 442.882L982.02 442.704C975.615 443.016 974.75 449.274 974.75 449.274L979.25 447.779L995.912 565.261C996.151 566.947 997.516 568.249 999.211 568.407L1076.88 575.672L1077.4 580.033C1077.4 580.033 1081.66 579.989 1083.62 573.57L1083.53 573.465C1083.71 572.937 1083.78 572.358 1083.69 571.759Z" fill="#AEB6FF"/>
<path d="M1075.21 580.526L994.71 572.997C993.015 572.839 991.65 571.538 991.411 569.852L974.637 451.583C974.303 449.231 976.254 447.185 978.62 447.406L1059.12 454.935C1060.81 455.094 1062.18 456.395 1062.42 458.08L1079.19 576.348C1079.52 578.701 1077.57 580.748 1075.21 580.526Z" fill="#0075B9"/>
<path d="M983.444 542.659C978.739 548.535 984.678 552.988 984.678 552.988C984.678 552.988 994.438 559.25 994.799 551.914C995.159 544.577 987.454 540.58 987.454 540.58C987.454 540.58 984.718 541.068 983.444 542.659Z" fill="#FFE459"/>
<path d="M980.785 534.807C976.08 540.684 982.018 545.137 982.018 545.137C982.018 545.137 991.778 551.399 992.139 544.063C992.5 536.727 984.795 532.73 984.795 532.73C984.795 532.73 982.059 533.216 980.785 534.807Z" fill="#FFE459"/>
<path d="M1109.91 533.445C1110.29 534.596 1194.84 544.728 1194.84 544.728C1194.84 544.728 1229.16 556.037 1228.59 579.104C1228.02 602.171 1206.62 609.428 1187.82 603.571C1179.16 600.874 1093.21 569.222 1093.21 569.222C1093.21 569.222 1065.1 572.816 1057.93 560.154C1057.93 560.154 1048.1 558.172 1049.74 548.763C1049.74 548.763 1045.22 544.867 1048.27 539.983C1048.27 539.983 1045.43 538.457 1045.3 533.15C1045.17 527.844 1062.93 522.979 1068.64 520.325C1074.35 517.672 1084.27 508.164 1084.27 508.164C1084.27 508.164 1101.55 507.618 1109.91 533.445Z" fill="#FFE459"/>
<path d="M1160.66 506.923C1160.66 506.923 1192.21 484.894 1232.37 486.735C1232.37 486.735 1231.46 428.828 1193.38 429.708C1152.7 430.648 1160.66 506.923 1160.66 506.923Z" fill="#0075B9"/>
<path d="M1143.17 422.225L1131.37 368.937L1104.88 376.713L1100.98 425.942C1095.92 427.036 1090.35 428.44 1084.83 430.214C1089.8 439.653 1101.58 459.444 1112.61 458.435C1123.24 457.463 1150.54 435.165 1164.25 423.431C1157.53 422.724 1150.64 422.334 1143.17 422.225Z" fill="#FFE459"/>
<path d="M1048.27 539.982C1048.27 539.982 1064.33 541.249 1076.33 534.63" stroke="black" stroke-width="0.5" stroke-miterlimit="10" stroke-linecap="round"/>
<path d="M1049.74 548.763C1049.74 548.763 1063.52 554.74 1078.4 549.087" stroke="black" stroke-width="0.5" stroke-miterlimit="10" stroke-linecap="round"/>
<path d="M979.233 523.87C973.884 530.551 980.635 535.614 980.635 535.614C980.635 535.614 991.731 542.732 992.141 534.392C992.55 526.052 983.791 521.509 983.791 521.509C983.791 521.509 980.68 522.061 979.233 523.87Z" fill="#FFE459"/>
<path d="M978.578 513.874C973.229 520.555 979.98 525.617 979.98 525.617C979.98 525.617 991.076 532.736 991.486 524.396C991.895 516.055 983.137 511.512 983.137 511.512C983.137 511.512 980.026 512.065 978.578 513.874Z" fill="#FFE459"/>
<path d="M978.781 524.473C978.781 524.473 984.508 530.809 990.652 528.173" stroke="black" stroke-width="0.5" stroke-miterlimit="10" stroke-linecap="round"/>
<path d="M982.018 545.137C982.018 545.137 986.206 548.584 989.546 547.575C992.885 546.565 992.139 544.063 992.139 544.063" stroke="black" stroke-width="0.5" stroke-miterlimit="10" stroke-linecap="round"/>
<path d="M980.635 535.614C980.635 535.614 985.625 539.946 990.446 537.95" stroke="black" stroke-width="0.5" stroke-miterlimit="10" stroke-linecap="round"/>
<path d="M1135.43 387.273L1133.03 376.436L1104.29 384.134L1102.59 405.71C1105.7 409.029 1109.34 411.397 1113.3 411.118C1120.56 410.606 1129.4 397.734 1135.43 387.273Z" fill="black"/>
</g>
<mask id="mask5_677_482" style="mask-type:luminance" maskUnits="userSpaceOnUse" x="-119" y="-197" width="1618" height="1618">
<path d="M-118.451 -74.0205L1376.56 -196.221L1498.76 1298.79L3.7502 1420.99L-118.451 -74.0205Z" fill="white"/>
</mask>
<g mask="url(#mask5_677_482)">
<path d="M1075.73 302.803C1075.73 302.803 1100.97 283.227 1134.69 303.443C1134.69 303.443 1131.5 322.81 1139.78 332.367C1139.78 332.367 1131.88 344.159 1140.41 356.653C1140.41 356.653 1143.11 400.235 1097.98 399.697C1054.27 399.176 1054.34 330.481 1075.73 302.803Z" fill="#FFE459"/>
<path d="M1057.8 317.158C1057.51 319.592 1057.57 320.86 1057.79 323.527C1058.86 336.671 1063.65 347.005 1074.01 346.159C1081.89 345.514 1087.41 334.337 1086.34 321.193C1086.17 319.104 1085.39 316.088 1084.93 314.182C1073.33 312.896 1063.43 315.105 1057.8 317.158Z" stroke="#01346A" stroke-width="0.75" stroke-miterlimit="10"/>
<path d="M1095.5 312.777C1095.09 315.22 1094.96 317.803 1095.18 320.471C1096.25 333.615 1101.95 343.875 1114.72 342.831C1124.44 342.037 1131.45 330.738 1130.37 317.594C1130.2 315.505 1129.82 313.508 1129.29 311.608C1115.04 310.539 1102.8 311.711 1095.5 312.777Z" stroke="#01346A" stroke-width="0.75" stroke-miterlimit="10"/>
<path d="M1086.48 322.926C1086.48 322.926 1091.95 320.355 1095.32 322.203" stroke="#01346A" stroke-width="0.75" stroke-miterlimit="10"/>
<path d="M1079.35 331.317C1079.57 334.062 1078.95 336.355 1077.95 336.436C1076.95 336.518 1075.96 334.358 1075.74 331.613C1075.51 328.868 1076.14 326.576 1077.14 326.495C1078.13 326.413 1079.13 328.572 1079.35 331.317Z" fill="black"/>
<path d="M1105.11 329.212C1105.33 331.957 1104.7 334.249 1103.71 334.331C1102.71 334.413 1101.72 332.252 1101.49 329.507C1101.27 326.762 1101.89 324.471 1102.89 324.389C1103.89 324.307 1104.88 326.467 1105.11 329.212Z" fill="black"/>
<path d="M1072.37 312.624C1072.37 312.624 1075.21 306.478 1082.42 307.556" stroke="black" stroke-width="0.75" stroke-miterlimit="10" stroke-linecap="round"/>
<path d="M1113.58 309.255C1113.58 309.255 1108.75 303.737 1099.59 306.153" stroke="black" stroke-width="0.75" stroke-miterlimit="10" stroke-linecap="round"/>
<path d="M1086.64 339.065L1080.72 343.945C1079.89 344.994 1079.54 346.38 1079.9 347.668C1080.42 349.498 1081.67 352.073 1084.67 353.884" stroke="black" stroke-width="0.75" stroke-miterlimit="10" stroke-linecap="round"/>
<path d="M1130.48 318.858L1140.99 347.166" stroke="#01346A" stroke-width="0.75" stroke-miterlimit="10"/>
<path d="M1157.02 359.318C1153.53 365.934 1146.12 368.877 1140.46 365.892C1134.81 362.908 1133.06 355.125 1136.55 348.51C1140.04 341.894 1147.45 338.95 1153.11 341.935C1158.76 344.919 1160.52 352.703 1157.02 359.318Z" fill="#FFE459"/>
<path d="M1090.5 372.104C1090.5 372.104 1103.28 371.742 1107.85 362.726" stroke="black" stroke-width="0.75" stroke-miterlimit="10" stroke-linecap="round"/>
</g>
</g>
<mask id="mask6_677_482" style="mask-type:luminance" maskUnits="userSpaceOnUse" x="-64" y="-174" width="1501" height="1501">
<path d="M-63.4319 -173.766H1436.57V1326.23H-63.4319V-173.766Z" fill="white"/>
</mask>
<g mask="url(#mask6_677_482)">
<path d="M798.738 826.074L818.797 922.795C818.797 922.795 813.548 940.024 816.571 946.069C819.594 952.114 821.105 955.136 821.105 955.136L780.905 977.805V989.291H863.118L859.491 952.718C859.491 952.718 863.119 949.393 865.839 938.512C868.559 927.631 860.7 907.682 860.7 907.682L856.469 822.446L798.738 826.074Z" fill="#064384"/>
<path d="M646.678 721.332H525.716C520.824 721.332 516.486 718.194 514.954 713.548L488.691 633.895C487.306 629.693 490.435 625.367 494.859 625.367H603.267C610.291 625.367 616.522 629.874 618.722 636.545L646.678 721.332Z" fill="#AEB6FF"/>
<path d="M513.291 708.505L521.948 700.951L502.147 635.526L492.301 644.844L513.291 708.505Z" fill="black"/>
<path d="M654.896 721.332H525.738L494.096 625.367H619.677C621.812 625.367 623.706 626.736 624.375 628.764L654.896 721.332Z" fill="#396DD2"/>
<path d="M640.473 714.379H534.253C533.388 714.379 532.621 713.824 532.35 713.002L506.615 634.952C506.187 633.655 507.154 632.32 508.519 632.32H614.739C615.604 632.32 616.371 632.875 616.642 633.697L642.377 711.747C642.805 713.044 641.838 714.379 640.473 714.379Z" fill="white"/>
<path d="M586.823 704.551H554.241L546.189 679.202H578.772L586.823 704.551Z" fill="#FF2D55"/>
<path d="M623.181 704.551H590.598L582.547 679.202H615.13L623.181 704.551Z" fill="#00CCF3"/>
<path d="M719.12 733.886H540.528C535.734 733.886 531.847 729.999 531.847 725.205V722.855C531.847 719.682 534.419 717.111 537.592 717.111H722.056C725.229 717.111 727.801 719.682 727.801 722.855V725.205C727.801 729.999 723.914 733.886 719.12 733.886Z" fill="#064384"/>
<path d="M508.797 988.693H495.498V753.844H508.797V988.693Z" fill="#FE5F5C"/>
<path d="M669.597 988.693H656.297V753.844H669.597V988.693Z" fill="#FE5F5C"/>
<path d="M754.306 988.693H741.007V753.844H754.306V988.693Z" fill="#FE5F5C"/>
<path d="M928.137 759.275H483.788V737.588H928.137V759.275Z" fill="#DDEEFE"/>
<path d="M681.306 759.275H483.788V737.588H681.306V759.275Z" fill="#AEB6FF"/>
<path d="M915.106 988.693H901.807V753.844H915.106V988.693Z" fill="#FE5F5C"/>
<path d="M931.395 745.22H476.87C475.683 745.22 474.721 744.258 474.721 743.071V732.105C474.721 730.918 475.683 729.956 476.87 729.956H931.395C932.582 729.956 933.544 730.918 933.544 732.105V743.071C933.544 744.258 932.582 745.22 931.395 745.22Z" fill="#FE5F5C"/>
<path d="M784.862 952.648L792.391 989.291H681.463C681.463 989.291 679.952 981.433 685.695 973.574C691.438 965.715 704.737 964.506 709.875 963.297C715.013 962.088 724.686 955.741 729.522 950.3L784.862 952.648Z" fill="#FF0022"/>
<path d="M937.774 966.093H885.183V874.888C885.183 872.925 883.593 871.336 881.632 871.336C879.671 871.336 878.08 872.925 878.08 874.888V966.093H832.893C830.932 966.093 829.341 967.681 829.341 969.644C829.341 971.607 830.932 973.196 832.893 973.196H937.774C939.735 973.196 941.326 971.607 941.326 969.644C941.326 967.681 939.735 966.093 937.774 966.093Z" fill="#5B99F1"/>
<path d="M889.937 893.93H873.325C871.527 893.93 870.07 892.472 870.07 890.674V837.257H893.193V890.674C893.193 892.472 891.735 893.93 889.937 893.93Z" fill="#5652E5"/>
<path d="M870.07 848.818H893.193V837.257H870.07V848.818Z" fill="black"/>
<path d="M925.315 843.588H836.285C831.74 843.588 828.057 839.904 828.057 835.359V824.864C828.057 822.435 830.026 820.465 832.455 820.465H929.145C931.574 820.465 933.544 822.435 933.544 824.864V835.359C933.544 839.904 929.86 843.588 925.315 843.588Z" fill="#5652E5"/>
<path d="M942.611 759.275C942.611 759.275 954.048 783.829 947.369 815.844C945.415 825.213 936.963 831.816 927.393 831.816H758.991L785.136 953.927C785.136 953.927 755.096 966.017 727.801 956.345C727.801 956.345 718.036 951.509 718.943 941.535C719.85 931.561 721.361 927.933 721.361 927.933C721.361 927.933 685.355 825.634 688.717 802.195C692.737 774.164 714.053 768.8 747.959 766.529L807.806 763.809L881.556 739.931L942.611 759.275Z" fill="#FFE459"/>
<path d="M972.837 669.506L977.975 707.892L937.775 712.426V677.666L972.837 669.506Z" fill="#5897F2"/>
<path d="M938.077 577.62C938.077 577.62 952.586 580.341 963.467 605.428C974.348 630.515 977.371 661.345 977.371 661.345L980.695 671.621C980.695 671.621 960.444 691.57 938.077 691.268C915.71 690.966 938.077 577.62 938.077 577.62Z" fill="#6FBCBF"/>
<path d="M872.995 520.278L895.459 576.411L841.054 577.62L831.079 536.816L829.851 514.24L854.785 503.474C854.785 503.474 856.568 490.234 872.995 520.278Z" fill="#5897F2"/>
<path d="M828.057 578.602C828.057 578.602 830.872 568.336 834.026 565.681C837.18 563.026 883.444 546.865 891.152 550.719C898.86 554.573 901.807 576.335 901.807 576.335L828.057 578.602Z" fill="#6FBCBF"/>
<path d="M805.69 577.62C805.69 577.62 894.855 564.321 938.077 577.62C938.077 577.62 951.377 587.897 951.377 627.492C951.377 667.087 949.563 763.809 949.563 763.809H807.806C807.806 763.809 803.876 734.188 807.503 727.236C811.13 720.284 811.432 722.4 811.13 716.355C810.828 710.31 796.924 590.919 796.924 590.919L805.69 577.62Z" fill="#9DE0B0"/>
<path d="M834.409 635.526L803.415 647.031C807.084 678.941 810.972 713.189 811.13 716.355C811.367 721.1 811.225 720.832 809.401 723.854C840.809 711.129 834.409 635.526 834.409 635.526Z" fill="black"/>
<path d="M681.463 989.291H792.391L790.155 978.41H683.023C680.574 984.356 681.463 989.291 681.463 989.291Z" fill="white"/>
<path d="M1012.45 768.801H901.631C897.051 768.801 893.339 765.089 893.339 760.509V687.776C893.339 683.196 897.051 679.484 901.631 679.484H1012.45C1017.03 679.484 1020.74 683.196 1020.74 687.776V760.509C1020.74 765.089 1017.03 768.801 1012.45 768.801Z" fill="#5B99F1"/>
<path d="M893.339 688.468V755.303H941.445V688.009H893.362C893.354 688.162 893.339 688.313 893.339 688.468Z" fill="black"/>
<path d="M1023.78 768.801H912.966C908.386 768.801 904.674 765.089 904.674 760.509V687.776C904.674 683.196 908.386 679.484 912.966 679.484H1023.78C1028.36 679.484 1032.07 683.196 1032.07 687.776V760.509C1032.07 765.089 1028.36 768.801 1023.78 768.801Z" fill="#5652E5"/>
<path d="M975.476 741.806L961.471 768.801H979.607L975.476 741.806Z" fill="black"/>
<path d="M839.629 981.432C839.629 985.188 836.585 988.233 832.829 988.233C829.073 988.233 826.028 985.188 826.028 981.432C826.028 977.676 829.073 974.632 832.829 974.632C836.585 974.632 839.629 977.676 839.629 981.432Z" fill="white"/>
<path d="M944.576 981.432C944.576 985.188 941.531 988.233 937.775 988.233C934.019 988.233 930.974 985.188 930.974 981.432C930.974 977.676 934.019 974.632 937.775 974.632C941.531 974.632 944.576 977.676 944.576 981.432Z" fill="#5652E5"/>
<path d="M835.677 763.336C835.677 763.336 829.591 781.037 826.028 791.465C826.028 791.465 720.401 776.976 710.126 809.601C705.065 825.671 739.043 925.666 739.043 925.666C739.043 925.666 724.408 946.512 739.357 959.212" stroke="black" stroke-width="0.5" stroke-miterlimit="10" stroke-linecap="round"/>
<path d="M878.231 671.319L906.341 642.303" stroke="black" stroke-width="0.5" stroke-miterlimit="10" stroke-linecap="round"/>
<path d="M723.174 916.145L758.991 935.187" stroke="black" stroke-width="0.5" stroke-miterlimit="10" stroke-linecap="round"/>
<path d="M826.028 791.465C826.028 791.465 818.05 779.297 823.658 762.485" stroke="black" stroke-width="0.5" stroke-miterlimit="10" stroke-linecap="round"/>
<path d="M764.056 855.471L758.991 831.816H730.882L764.056 855.471Z" fill="black"/>
<path d="M698.389 978.41C698.389 978.41 699.297 969.04 712.898 966.017C726.499 962.994 729.717 956.981 729.717 956.981" stroke="white" stroke-width="0.75" stroke-miterlimit="10" stroke-linecap="round"/>
<path d="M946.393 839.889H884.499V832.786H946.393C962.43 832.786 975.476 819.741 975.476 803.704V741.806H982.579V803.704C982.579 823.657 966.346 839.889 946.393 839.889Z" fill="#5652E5"/>
<path d="M526.917 648.574H613.252" stroke="#EAE6FF" stroke-width="2" stroke-miterlimit="10" stroke-linecap="round"/>
<path d="M531.329 661.852H617.663" stroke="#EAE6FF" stroke-width="2" stroke-miterlimit="10" stroke-linecap="round"/>
<path d="M532.864 673.35H619.199" stroke="#EAE6FF" stroke-width="2" stroke-miterlimit="10" stroke-linecap="round"/>
<path d="M888.224 846.089V893.93" stroke="black" stroke-width="0.5" stroke-miterlimit="10" stroke-linecap="round"/>
<path d="M874.151 846.089V893.93" stroke="black" stroke-width="0.5" stroke-miterlimit="10" stroke-linecap="round"/>
<path d="M729.625 689.441L667.924 680.167L647.583 669.49C644.195 667.712 640.482 666.587 636.663 666.366C630.615 666.016 621.624 666.725 614.477 672.45C602.568 681.992 606.793 684.657 606.793 684.657C606.793 684.657 597.309 694.264 601.237 705.696C601.237 705.696 599.088 715.82 603.839 717.803C611.73 721.098 615.239 707.217 615.239 707.217L633.534 704.003C633.534 704.003 646.358 717.693 661.562 713.264L726.413 737.68C726.413 737.68 748.148 742.053 753.382 721.164C759.891 695.189 729.625 689.441 729.625 689.441Z" fill="#9FC2E9"/>
<path d="M728.371 689.253L708.704 686.297L719.936 706.713L728.371 689.253Z" fill="black"/>
<path d="M601.237 705.696C601.237 705.696 606.012 696.67 619.278 692.334" stroke="black" stroke-width="0.25" stroke-miterlimit="10" stroke-linecap="round"/>
<path d="M600.417 697.862C600.417 697.862 602.612 687.182 623.97 681.789" stroke="black" stroke-width="0.25" stroke-miterlimit="10" stroke-linecap="round"/>
<path d="M606.793 684.657C606.793 684.657 612.733 674.812 627.033 672.852" stroke="black" stroke-width="0.25" stroke-miterlimit="10" stroke-linecap="round"/>
<path d="M739.209 659.433L712.275 709.91C712.275 709.91 706.23 724.903 718.932 733.127C732.781 742.094 747.133 739.87 753.956 730.419C756.585 726.775 784.102 678.799 784.102 678.799L739.209 659.433Z" fill="#9FC2E9"/>
<path d="M733.259 670.583C740.979 678.457 755.059 689.786 775.163 694.334C780.183 685.632 784.102 678.799 784.102 678.799L739.209 659.433L733.259 670.583Z" fill="black"/>
<path d="M808.923 578.205C808.923 578.205 841.1 592.496 831.23 632.314C821.361 672.132 805.793 687.342 805.793 687.342L802.987 694.273C802.987 694.273 750.703 690.587 728.04 649.859C728.04 649.859 731.171 636.26 738.43 632.396C745.688 628.533 753.456 623.214 753.456 623.214C753.456 623.214 766.081 592.024 775.513 585.719C784.945 579.414 797.933 576.05 808.923 578.205Z" fill="#9DE0B0"/>
<path d="M765.042 629.423L795.507 667.345" stroke="black" stroke-width="0.5" stroke-miterlimit="10" stroke-linecap="round"/>
<mask id="mask7_677_482" style="mask-type:luminance" maskUnits="userSpaceOnUse" x="-255" y="-337" width="1934" height="1935">
<path d="M-254.521 193.869L1148.65 -336.316L1678.84 1066.86L275.663 1597.05L-254.521 193.869Z" fill="white"/>
</mask>
<g mask="url(#mask7_677_482)">
<path d="M802.483 440.04C802.483 440.04 781.717 454.348 785.075 495.73C785.075 495.73 769.821 521.204 780.574 548.806C791.326 576.408 825.958 562.03 839.636 542.645C839.636 542.645 890.139 494.159 887.523 466.714C884.908 439.269 844.831 412.73 802.483 440.04Z" fill="#064384"/>
<path d="M802.483 440.04C802.483 440.04 799.906 441.858 796.726 445.942L816.707 462.292L840.474 467.043C840.474 467.043 867.323 475.84 887.044 474.329C887.554 471.664 887.751 469.106 887.523 466.714C884.908 439.269 844.831 412.731 802.483 440.04Z" fill="#01346A"/>
<path d="M787.226 491.375L771.962 500.62C768.269 502.857 767.437 507.857 770.205 511.171L779.1 521.818L791.842 513.853L787.226 491.375Z" fill="#7792AF"/>
<path d="M825.206 472.812L840.473 467.043C840.473 467.043 813.764 456.447 801.633 440.706C797.782 443.927 782.125 459.376 785.075 495.73C785.075 495.73 778.134 507.375 776.933 523.431C777.009 523.463 784.111 526.527 788.112 536.264C788.112 536.264 785.743 522.297 815.783 510.299L825.206 472.812Z" fill="#9FC2E9"/>
<path d="M832.858 519.357L834.61 491.715C834.61 491.715 853.883 484.849 855.141 502.639C856.443 521.049 832.858 519.357 832.858 519.357Z" fill="#9FC2E9"/>
<path d="M876.788 451.343C876.788 451.343 880.14 433.598 890.623 434.727C901.107 435.855 903.984 451.488 903.984 451.488L912.686 445.655C912.686 445.655 917.896 454.956 910.731 465.175C903.567 475.394 890.324 468.887 887.022 458.867L883.085 459.99C883.085 459.99 878.424 458.237 876.788 451.343Z" fill="#064384"/>
<path d="M893.509 458.717C893.509 458.717 902.187 467.798 908.67 467.529" stroke="#5897F2" stroke-width="0.75" stroke-miterlimit="10" stroke-linecap="round"/>
<path d="M904.423 456.29L914.387 455.875" stroke="#5897F2" stroke-width="0.75" stroke-miterlimit="10" stroke-linecap="round"/>
<path d="M783.321 547C783.321 547 788.063 544.684 789.684 542.132" stroke="black" stroke-width="0.5" stroke-miterlimit="10" stroke-linecap="round"/>
<path d="M792.713 505.899L799.279 500.507" stroke="black" stroke-width="0.5" stroke-miterlimit="10" stroke-linecap="round"/>
<path d="M791.791 464.759C791.791 464.759 796.839 465.8 800.312 473.03" stroke="#01346A" stroke-width="3" stroke-miterlimit="10" stroke-linecap="round"/>
<path d="M792.189 494.142C792.191 497.084 791.634 499.47 790.946 499.47C790.258 499.47 789.698 497.086 789.696 494.143C789.693 491.201 790.249 488.816 790.938 488.815C791.626 488.815 792.187 491.2 792.189 494.142Z" fill="black"/>
</g>
</g>
<mask id="mask8_677_482" style="mask-type:luminance" maskUnits="userSpaceOnUse" x="-64" y="-174" width="1501" height="1501">
<path d="M-63.4319 -173.766H1436.57V1326.23H-63.4319V-173.766Z" fill="white"/>
</mask>
<g mask="url(#mask8_677_482)">
<mask id="mask9_677_482" style="mask-type:luminance" maskUnits="userSpaceOnUse" x="-64" y="-174" width="1501" height="1501">
<path d="M-63.4319 -173.766H1436.57V1326.23H-63.4319V-173.766Z" fill="white"/>
</mask>
<g mask="url(#mask9_677_482)">
<path d="M250.297 966.245L246.216 988.694H231.708L225.648 973.725L243.042 961.938L250.297 966.245Z" fill="#FF2D55"/>
<path d="M234.541 967.698L225.648 973.725L231.708 988.694H237.639L234.541 967.698Z" fill="#7B225A"/>
<path d="M187.73 963.072C186.272 962.1 185.904 960.552 186.088 958.874C171.475 970.415 157.875 977.712 155.993 980.3C152.366 985.287 155.993 988.688 155.993 988.688H200.651C219.466 989.141 250.297 966.245 250.297 966.245L253.789 939.176C218.909 960.744 192.307 966.123 187.73 963.072Z" fill="#FF2D55"/>
<path d="M186.088 958.874C185.904 960.551 186.272 962.099 187.73 963.072C192.307 966.122 218.909 960.743 253.789 939.176L255.737 924.081L220.827 916.146C214.064 933.816 199.641 948.169 186.088 958.874Z" fill="#FFB828"/>
<path d="M209.971 935.188H254.304L255.737 924.081L220.827 916.146C218.202 923.004 214.405 929.348 209.971 935.188Z" fill="black"/>
</g>
<mask id="mask10_677_482" style="mask-type:luminance" maskUnits="userSpaceOnUse" x="-27" y="-174" width="1501" height="1501">
<path d="M-26.4319 -173.766H1473.57V1326.23H-26.4319V-173.766Z" fill="white"/>
</mask>
<g mask="url(#mask10_677_482)">
<path d="M346.161 966.245L343.876 988.694H356.44L365.567 973.725L353.559 961.938L346.161 966.245Z" fill="#FF2D55"/>
<path d="M359.428 967.699L365.567 973.725L356.44 988.693H351.304L359.428 967.699Z" fill="#7B225A"/>
<path d="M401.167 963.072C402.682 962.1 403.4 960.552 403.676 958.874C413.34 970.415 423.227 977.712 424.186 980.3C426.034 985.287 422.012 988.688 422.012 988.688H383.337C366.925 989.141 346.161 966.245 346.161 966.245L350.152 939.176C374.769 960.744 396.413 966.123 401.167 963.072Z" fill="#FF2D55"/>
<path d="M403.676 958.874C403.4 960.551 402.682 962.099 401.167 963.072C396.413 966.122 374.769 960.743 350.152 939.176L352.377 924.081L384.666 916.146C385.943 933.816 394.714 948.169 403.676 958.874Z" fill="#FFB828"/>
<path d="M389.133 935.188H350.739L352.377 924.081L384.666 916.146C385.161 923.004 386.807 929.348 389.133 935.188Z" fill="black"/>
</g>
<path d="M256.879 563.26C256.879 563.26 228.383 600.44 218.106 640.942C207.829 681.444 200.273 793.732 200.273 793.732C200.273 793.732 186.975 818.517 187.579 832.723C188.183 846.929 196.042 859.321 194.228 867.18C192.414 875.039 180.324 884.408 183.347 897.103C186.37 909.798 189.694 918.034 185.765 928.311H274.93C274.93 928.311 273.419 917.354 279.162 913.425C284.905 909.496 288.23 891.36 286.114 879.27C283.998 867.18 285.812 876.248 291.857 851.765C297.902 827.282 290.346 807.636 291.857 799.173C293.368 790.71 309.715 720.055 309.715 720.055L331.215 840.357C331.215 840.357 322.147 856.981 324.263 867.56C326.379 878.139 333.029 884.486 332.727 891.74C332.425 898.994 327.891 895.14 326.984 928.388L408.895 931.94V916.525C408.895 916.525 420.682 913.2 419.171 895.669C417.66 878.138 410.708 876.325 411.615 870.582C412.522 864.839 420.985 863.328 420.683 847.611C420.381 831.894 412.824 825.547 413.429 815.27C414.034 804.993 401.273 704.265 396.739 653.788C392.205 603.311 376.488 576.26 376.488 576.26L345.658 558.578L256.879 563.26Z" fill="#5652E5"/>
<mask id="mask11_677_482" style="mask-type:luminance" maskUnits="userSpaceOnUse" x="-64" y="-174" width="1501" height="1501">
<path d="M-63.4319 -173.766H1436.57V1326.23H-63.4319V-173.766Z" fill="white"/>
</mask>
<g mask="url(#mask11_677_482)">
<path d="M274.399 576.26C274.399 576.26 253.152 600.632 236.695 616.913" stroke="black" stroke-width="0.5" stroke-miterlimit="10" stroke-linecap="round"/>
<path d="M339.914 576.26C339.914 576.26 338.59 641.849 319.606 678.12" stroke="black" stroke-width="0.5" stroke-miterlimit="10" stroke-linecap="round"/>
<path d="M349.285 576.26C349.285 576.26 349.559 639.437 328.491 655.378" stroke="black" stroke-width="0.5" stroke-miterlimit="10" stroke-linecap="round"/>
<path d="M209.971 878.061L249.87 852.974" stroke="black" stroke-width="0.25" stroke-miterlimit="10" stroke-linecap="round"/>
<path d="M299.715 756.555L319.606 678.12L346.414 671.319" stroke="black" stroke-width="0.5" stroke-miterlimit="10" stroke-linecap="round"/>
<path d="M363.189 576.26L387.218 603.238" stroke="black" stroke-width="0.5" stroke-miterlimit="10" stroke-linecap="round"/>
</g>
<path d="M326.8 676.295C326.8 676.295 359.08 823.273 354.222 837.328C349.364 851.383 344.225 854.103 345.661 864.531C347.097 874.959 349.524 880.4 350.804 886.747C352.084 893.094 342.973 898.081 343.376 928.876" stroke="black" stroke-width="0.5" stroke-miterlimit="10" stroke-linecap="round"/>
<path d="M393.884 312.975C393.884 312.975 407.813 310.508 411.148 292.205C414.484 273.902 399.224 255.427 381.644 250.21C364.064 244.993 339.546 243.531 332.904 264.726C332.904 264.726 299.477 264.76 290.462 285.469C281.447 306.178 284.505 344.15 282.655 348.621C280.806 353.092 269.039 347.776 260.622 358.802C252.205 369.828 264.983 387.496 264.983 387.496C264.983 387.496 254.108 388.562 252.633 403.005L354.542 437.625L385.993 424.494C385.993 424.494 389.955 418.031 387.861 409.038C385.767 400.045 375.02 391.82 376.453 382.712C377.885 373.604 393.884 312.975 393.884 312.975Z" fill="#00CCF3"/>
<path d="M380.9 424.351C383.388 423.906 396.512 417.065 414.854 423.848C433.968 430.917 495.48 474.04 495.48 474.04C495.48 474.04 511.378 484.869 510.338 500.865C509.379 515.604 493.188 521.355 487.839 521.634C481.001 521.99 404.268 489.273 404.268 489.273C404.268 489.273 374.434 458.999 369.335 448.401C361.206 431.502 380.9 424.351 380.9 424.351Z" fill="#BF2240"/>
<path d="M460.591 450.454L469.381 485.29L484.069 466.165C477.753 461.851 469.42 456.227 460.591 450.454Z" fill="black"/>
<mask id="mask12_677_482" style="mask-type:luminance" maskUnits="userSpaceOnUse" x="-95" y="-335" width="1696" height="1696">
<path d="M-94.4976 -125.308L1390.84 -334.561L1600.09 1150.77L114.755 1360.02L-94.4976 -125.308Z" fill="white"/>
</mask>
<g mask="url(#mask12_677_482)">
<path d="M593.577 400.654C592.425 385.972 583.744 387.195 583.744 387.195C582.729 378.488 576.389 377.65 572.581 377.957C578.782 369.872 595.13 346.8 586.377 338.713C576.201 329.311 569.514 350.094 550.869 375.918C547.423 380.691 527.528 406.863 509.193 430.929C513.237 439.215 523.204 457.957 550.801 461.428C556.46 452.016 560.737 444.886 560.737 444.886C560.737 444.886 580.061 445.105 584.407 426.899C587.092 427.691 593.278 426.731 597.053 420.997C606.357 406.866 593.577 400.654 593.577 400.654Z" fill="#FFB828"/>
<path d="M509.193 430.929C492.219 453.208 476.58 473.683 476.58 473.683C476.58 473.683 461.995 500.156 479.255 516.497C496.513 532.838 519.464 512.663 523.601 506.281C526.25 502.194 540.726 478.182 550.801 461.428C528.119 454.292 514.593 438.478 509.193 430.929Z" fill="#BF2240"/>
<path d="M544.435 398.496C544.435 398.496 556.763 390.418 567.949 396.405C579.134 402.392 586.868 430.911 575.95 433.154C564.766 435.452 559.156 411.99 559.156 411.99" stroke="black" stroke-width="0.5" stroke-miterlimit="10" stroke-linecap="round"/>
<path d="M566.457 428.38C566.457 428.38 565.624 441.114 549.494 434.413" stroke="black" stroke-width="0.5" stroke-miterlimit="10" stroke-linecap="round"/>
<path d="M572.581 377.957C572.581 377.957 570.916 387.957 564.965 395.138" stroke="black" stroke-width="0.5" stroke-miterlimit="10" stroke-linecap="round"/>
<path d="M583.744 387.195C583.744 387.195 584.958 398.778 576.591 406.424" stroke="black" stroke-width="0.5" stroke-miterlimit="10" stroke-linecap="round"/>
<path d="M581.072 420.803C581.072 420.803 590.211 417.382 593.577 400.654" stroke="black" stroke-width="0.5" stroke-miterlimit="10" stroke-linecap="round"/>
<path d="M581.834 426.213L584.407 426.899" stroke="black" stroke-width="0.5" stroke-miterlimit="10" stroke-linecap="round"/>
<path d="M511.531 447.522L507.39 455.606" stroke="black" stroke-width="0.5" stroke-miterlimit="10" stroke-linecap="round"/>
<path d="M523.89 456.334L516.905 465.255" stroke="black" stroke-width="0.5" stroke-miterlimit="10" stroke-linecap="round"/>
<path d="M540.662 464.884L530.497 472.904" stroke="black" stroke-width="0.5" stroke-miterlimit="10" stroke-linecap="round"/>
</g>
<path d="M305.174 411C305.174 411 277.436 393.367 255.732 397.947C234.027 402.527 253.487 567.031 253.487 567.031L380.844 584.93C380.844 584.93 411.271 531.519 416.023 506.395C420.774 481.271 390.558 420.252 390.558 420.252C390.558 420.252 374.928 417.446 340.195 425.689L305.174 411Z" fill="#FF2D55"/>
<mask id="mask13_677_482" style="mask-type:luminance" maskUnits="userSpaceOnUse" x="-160" y="-220" width="1695" height="1696">
<path d="M49.5884 -219.021L1534.99 -10.2631L1326.23 1475.14L-159.17 1266.38L49.5884 -219.021Z" fill="white"/>
</mask>
<g mask="url(#mask13_677_482)">
<path d="M248.503 515.107C261.676 495.861 269.834 465.018 269.834 465.018L245.629 462.33C246.041 479.783 247.198 498.441 248.503 515.107Z" fill="black"/>
<path d="M379.541 283.642C379.541 283.642 364.699 317.573 344.14 318.347C344.14 318.347 343.103 332.241 332.627 330.768L306.157 411.412L305.174 411C305.174 411 301.25 408.506 295.201 405.638C298.215 415.49 308.607 439.001 341.698 454.754C341.698 454.754 360.356 450.823 365.662 420.983C362.411 421.389 358.806 421.936 354.891 422.632L354.779 386.529C354.779 386.529 372.083 396.978 388.044 381.136C404.005 365.294 404.354 287.892 379.541 283.642Z" fill="#FFB828"/>
<path d="M354.779 386.529C341.91 380.366 337.302 365.921 337.302 365.921C337.302 365.921 328.187 395.244 354.847 408.501L354.779 386.529Z" fill="black"/>
<path d="M362.876 584.484C362.876 584.484 362.68 585.323 361.49 585.964C359.13 587.235 356.338 585.134 356.711 582.48L357.108 579.656L361.494 581.476L362.876 584.484Z" fill="white"/>
<path d="M251.537 548.902C252.66 560.034 253.487 567.031 253.487 567.031L380.844 584.93C380.844 584.93 384.695 578.167 389.863 568.342L251.537 548.902Z" fill="black"/>
<path d="M279.044 575.736L291.056 577.424L297.812 555.405L285.801 553.717L279.044 575.736Z" fill="#5652E5"/>
<path d="M371.994 585.766L379.005 586.751L379.713 566.916L372.702 565.93L371.994 585.766Z" fill="#5652E5"/>
<path d="M353.427 530.257L369.528 524.279" stroke="black" stroke-width="0.5" stroke-miterlimit="10" stroke-linecap="round"/>
<path d="M362.083 564.438L359.335 583.986L362.876 584.484L365.623 564.935L362.083 564.438Z" fill="white"/>
</g>
<mask id="mask14_677_482" style="mask-type:luminance" maskUnits="userSpaceOnUse" x="-160" y="-220" width="1695" height="1696">
<path d="M49.5884 -219.021L1534.99 -10.2631L1326.23 1475.14L-159.17 1266.38L49.5884 -219.021Z" fill="white"/>
</mask>
<g mask="url(#mask14_677_482)">
<path d="M325.854 329.816C325.854 329.816 342.644 398.293 311.829 413.597C281.015 428.9 272.999 368.469 272.999 368.469L325.854 329.816Z" fill="#00CCF3"/>
<path d="M337.465 334.348L334.635 320.826C334.635 320.826 321.235 311.922 314.876 325.679C308.516 339.436 324.915 350.898 333.994 349.275L337.465 334.348Z" fill="#FFB828"/>
<path d="M388.231 335.149L394.384 338.647C397.087 340.184 397.843 343.737 395.997 346.24L391.971 351.699" stroke="black" stroke-width="0.5" stroke-miterlimit="10" stroke-linecap="round"/>
<path d="M386.966 360.782C382.556 360.025 379.079 358.085 376.719 356.355C375.232 355.264 373.178 356.54 373.4 358.371C373.92 362.663 375.509 368.157 380.199 368.816C384.474 369.417 387.152 367.057 388.702 364.793C389.785 363.211 388.857 361.106 386.966 360.782Z" fill="black"/>
<mask id="mask15_677_482" style="mask-type:luminance" maskUnits="userSpaceOnUse" x="373" y="355" width="17" height="14">
<path d="M386.966 360.782C382.556 360.025 379.079 358.085 376.719 356.355C375.232 355.264 373.178 356.54 373.4 358.371C373.92 362.663 375.509 368.157 380.199 368.816C384.474 369.417 387.152 367.057 388.702 364.793C389.785 363.211 388.857 361.106 386.966 360.782Z" fill="white"/>
</mask>
<g mask="url(#mask15_677_482)">
<path d="M382.098 360.728C382.098 360.728 385.164 362.532 385.133 370.082C385.102 377.632 364.766 365.961 364.766 365.961L368.304 354.632L379.87 353.776L382.098 360.728Z" fill="#FF2D55"/>
<path d="M373.848 354.646C373.848 354.646 377.354 362.715 382.462 363.022C387.57 363.329 389.089 358.964 389.089 358.964L373.848 354.646Z" fill="white"/>
</g>
<path d="M371.635 321.275C371.635 321.275 374.886 312.804 384.987 314.224" stroke="black" stroke-width="0.5" stroke-miterlimit="10" stroke-linecap="round"/>
<path d="M391.412 314.816C391.412 314.816 396.676 314.818 398.226 321.56" stroke="black" stroke-width="0.5" stroke-miterlimit="10" stroke-linecap="round"/>
<path d="M380.657 332.482C380.274 335.209 379.209 337.315 378.28 337.184C377.35 337.053 376.907 334.736 377.29 332.009C377.673 329.282 378.738 327.176 379.668 327.307C380.598 327.438 381.04 329.755 380.657 332.482Z" fill="black"/>
<path d="M396.018 334.031C395.635 336.758 394.57 338.864 393.641 338.733C392.711 338.602 392.268 336.285 392.651 333.558C393.034 330.831 394.099 328.724 395.029 328.855C395.959 328.986 396.401 331.304 396.018 334.031Z" fill="black"/>
</g>
<mask id="mask16_677_482" style="mask-type:luminance" maskUnits="userSpaceOnUse" x="-340" y="-252" width="1939" height="1939">
<path d="M197.915 -251.146L1598.29 286.405L1060.73 1686.78L-339.636 1149.23L197.915 -251.146Z" fill="white"/>
</mask>
<g mask="url(#mask16_677_482)">
<path d="M168.856 440.64C168.856 440.64 172.082 428.698 175.358 426.867C179.994 424.276 184.247 430.279 184.247 430.279C184.247 430.279 245.866 391.123 265.045 396.866C284.225 402.61 278.738 449.796 260.616 463.479C242.494 477.163 178.111 506.354 178.111 506.354C178.111 506.354 157.85 513.258 145.197 500.211C132.544 487.164 168.856 440.64 168.856 440.64Z" fill="#FF2D55"/>
<path d="M178.324 465.738C184.479 449.094 178.494 434.366 174.663 427.412C171.641 430.342 168.856 440.64 168.856 440.64C168.856 440.64 167.35 442.575 165.075 445.734C168.755 450.32 178.324 465.738 178.324 465.738Z" fill="black"/>
</g>
<mask id="mask17_677_482" style="mask-type:luminance" maskUnits="userSpaceOnUse" x="-409" y="-243" width="2021" height="2021">
<path d="M278.089 -242.885L1611.69 443.784L925.02 1777.38L-408.579 1090.71L278.089 -242.885Z" fill="white"/>
</mask>
<g mask="url(#mask17_677_482)">
<path d="M152.746 432.666C158.598 429.537 166.675 420.8 167.937 414.527L152.985 372.944C152.985 372.944 124.978 365.928 115.287 396.636L124.803 431.111C132.475 435.061 142.451 438.171 152.746 432.666Z" fill="#FFB828"/>
<path d="M182.132 454.001L167.937 414.527C164.15 419.364 159.32 424.173 153.468 427.301C143.173 432.806 131.693 432.223 124.803 431.111L142.348 494.685C142.348 494.685 154.464 507.899 172.112 495.248C191.988 481.001 182.132 454.001 182.132 454.001Z" fill="#FF2D55"/>
<path d="M135.113 440.501L139.382 450.038" stroke="black" stroke-width="0.5" stroke-miterlimit="10" stroke-linecap="round"/>
<path d="M148.504 436.942L152.042 449.218" stroke="black" stroke-width="0.5" stroke-miterlimit="10" stroke-linecap="round"/>
<path d="M162.848 430.874L166.3 439.306" stroke="black" stroke-width="0.5" stroke-miterlimit="10" stroke-linecap="round"/>
</g>
<mask id="mask18_677_482" style="mask-type:luminance" maskUnits="userSpaceOnUse" x="-409" y="-243" width="2021" height="2021">
<path d="M278.089 -242.885L1611.69 443.784L925.02 1777.38L-408.579 1090.71L278.089 -242.885Z" fill="white"/>
</mask>
<g mask="url(#mask18_677_482)">
<path d="M152.984 372.944C152.984 372.944 152.569 364.837 143.891 361.388C135.213 357.94 115.166 350.321 111.472 348.087C107.778 345.854 99.2722 337.119 93.1255 342.123C86.9787 347.127 94.5005 359.585 115.135 366.725C115.135 366.725 100.139 374.557 91.7237 374.558C83.3083 374.56 58.0432 367.671 54.4472 371.684C50.8512 375.697 55.2605 380.007 55.2605 380.007C55.2605 380.007 46.4168 379.851 44.7974 384.977C43.178 390.104 48.5216 392.601 48.5216 392.601C48.5216 392.601 46.4271 398.152 57.8538 400.721C57.8538 400.721 64.3131 420.364 141.798 401.106C141.798 401.106 154.745 387.354 152.984 372.944Z" fill="#FFB828"/>
<path d="M57.8538 400.721C57.8538 400.721 56.4712 395.483 63.1379 394.421C69.8046 393.359 87.5937 397.929 99.922 392.803C99.922 392.803 125.619 367.73 141.286 375.856" stroke="black" stroke-width="0.5" stroke-miterlimit="10" stroke-linecap="round"/>
<path d="M99.9219 392.803L90.0508 378.797" stroke="black" stroke-width="0.5" stroke-miterlimit="10" stroke-linecap="round"/>
<path d="M94.9863 385.8C94.9863 385.8 73.522 387.625 67.348 386.74C61.1739 385.856 52.05 385.748 48.5215 392.601" stroke="black" stroke-width="0.5" stroke-miterlimit="10" stroke-linecap="round"/>
<path d="M55.2606 380.007C55.2606 380.007 80.3672 382.87 91.3951 380.704" stroke="black" stroke-width="0.5" stroke-miterlimit="10" stroke-linecap="round"/>
</g>
</g>
</g>
</g>
<defs>
<clipPath id="clip0_677_482">
<rect width="1300" height="1000" fill="white" transform="translate(0.568115 0.234375)"/>
</clipPath>
</defs>
</svg>
