<svg width="60" height="61" viewBox="0 0 60 61" fill="none" xmlns="http://www.w3.org/2000/svg">
<g clip-path="url(#clip0_9_4793)">
<path d="M46.4409 34.1088C44.7904 25.8025 52.6745 20.9309 52.6745 20.9309C52.6745 20.9309 49.6028 16.4868 44.4403 15.3435C39.2804 14.1977 36.6979 15.6293 34.1204 16.703C31.5405 17.7793 30.2531 17.7793 30.2531 17.7793C26.53 17.7793 23.8083 13.8373 16.7148 15.6319C11.8278 16.8652 6.68328 22.5067 5.75378 29.2398C4.82427 35.9755 6.8301 44.5702 10.6974 51.2313C14.5648 57.8975 18.5043 60.4028 21.3004 60.4749C24.0967 60.5443 26.8878 58.4717 30.2531 57.967C33.621 57.4674 35.6937 59.1875 38.9971 60.117C42.2877 61.044 43.4412 60.184 47.2313 56.9603C51.0317 53.7365 54.4717 44.4905 54.4717 44.4905C54.4717 44.4905 48.0914 42.4202 46.4409 34.1088Z" fill="white"/>
<path d="M39.1337 9.96983C42.7899 6.24419 41.5514 0.476562 41.5514 0.476562C41.5514 0.476562 36.4173 1.37777 32.9773 4.95671C29.5399 8.53828 30.1089 14.1951 30.1089 14.1951C30.1089 14.1951 35.4774 13.6931 39.1337 9.96983Z" fill="white"/>
</g>
<defs>
<clipPath id="clip0_9_4793">
<rect width="60" height="60" fill="white" transform="translate(0 0.476562)"/>
</clipPath>
</defs>
</svg>
