<svg width="25" height="25" viewBox="0 0 25 25" fill="none" xmlns="http://www.w3.org/2000/svg">
<path d="M18.3741 0C17.8102 0.0313283 17.2462 0.093985 16.7137 0.281955C15.8678 0.595238 15.0533 1.06516 14.364 1.75439C14.1657 1.8801 13.9982 2.04878 13.8739 2.24796C13.7496 2.44714 13.6716 2.67172 13.6458 2.9051C13.62 3.13847 13.6469 3.37466 13.7247 3.5962C13.8025 3.81775 13.9291 4.01897 14.0951 4.185C14.2611 4.35103 14.4623 4.4776 14.6839 4.55537C14.9054 4.63314 15.1416 4.66011 15.375 4.63429C15.6084 4.60847 15.8329 4.53051 16.0321 4.40618C16.2313 4.28186 16.4 4.11435 16.5257 3.91604C16.8703 3.57143 17.2776 3.38346 17.7162 3.22682C18.8127 2.85088 20.1598 3.00752 21.037 3.91604C22.2588 5.13785 22.2588 7.17419 21.037 8.42732L16.3377 13.1266C14.9593 14.505 13.8315 14.6303 13.0169 14.599C12.2024 14.5677 11.7325 14.1917 11.7325 14.1917C11.5514 14.0889 11.3519 14.0227 11.1453 13.9969C10.9387 13.9712 10.7291 13.9864 10.5284 14.0417C10.3276 14.0969 10.1397 14.1912 9.97545 14.3191C9.81115 14.447 9.67365 14.6059 9.5708 14.787C9.46795 14.968 9.40176 15.1675 9.37601 15.3741C9.35026 15.5807 9.36546 15.7903 9.42073 15.9911C9.476 16.1918 9.57027 16.3797 9.69815 16.544C9.82603 16.7083 9.98502 16.8458 10.166 16.9486C10.166 16.9486 11.2312 17.6378 12.7976 17.7318C14.364 17.8258 16.557 17.2306 18.468 15.2882L23.1673 10.589C25.6109 8.14536 25.6109 4.198 23.1673 1.78571C22.2901 0.908522 21.2563 0.37594 20.1284 0.125313C19.5645 0 18.938 0 18.3741 0.0313283V0ZM12.1084 7.23684C10.542 7.17419 8.38033 7.70677 6.53195 9.58647L1.83271 14.2857C-0.610902 16.7293 -0.610902 20.6767 1.83271 23.089C3.58709 24.8434 6.09336 25.3446 8.28634 24.5614C9.13221 24.2481 9.94674 23.7782 10.636 23.089C10.8343 22.9633 11.0018 22.7946 11.1261 22.5954C11.2504 22.3962 11.3284 22.1716 11.3542 21.9383C11.38 21.7049 11.3531 21.4687 11.2753 21.2472C11.1975 21.0256 11.0709 20.8244 10.9049 20.6584C10.7389 20.4923 10.5377 20.3658 10.3161 20.288C10.0946 20.2102 9.85839 20.1832 9.62502 20.2091C9.39165 20.2349 9.16707 20.3129 8.96789 20.4372C8.76871 20.5615 8.60002 20.729 8.47431 20.9273C8.1297 21.2719 7.72243 21.4599 7.28383 21.6165C6.18734 21.9925 4.84023 21.8358 3.96303 20.9273C2.74123 19.7055 2.74123 17.6692 3.96303 16.416L8.66228 11.7168C9.91541 10.4637 11.0119 10.307 11.8891 10.3383C12.7663 10.3697 13.3615 10.6203 13.3615 10.6203C13.5451 10.758 13.7566 10.8536 13.9812 10.9005C14.2058 10.9474 14.438 10.9444 14.6613 10.8917C14.8846 10.839 15.0936 10.7378 15.2735 10.5955C15.4534 10.4531 15.5998 10.2729 15.7024 10.0677C15.805 9.86248 15.8613 9.63723 15.8673 9.40787C15.8732 9.17851 15.8287 8.95064 15.7369 8.74037C15.6451 8.5301 15.5082 8.34257 15.336 8.19103C15.1637 8.0395 14.9602 7.92765 14.74 7.86341C14.74 7.86341 13.6748 7.23684 12.1084 7.17419V7.23684Z" fill="#043873"/>
</svg>
