<svg width="20" height="23" viewBox="0 0 20 23" fill="none" xmlns="http://www.w3.org/2000/svg">
<path d="M9.99 10.9266C9.11479 10.9266 8.27542 10.6368 7.65655 10.1211C7.03768 9.60538 6.69 8.90591 6.69 8.17656C6.69 7.44722 7.03768 6.74774 7.65655 6.23202C8.27542 5.71629 9.11479 5.42656 9.99 5.42656C10.8652 5.42656 11.7046 5.71629 12.3235 6.23202C12.9423 6.74774 13.29 7.44722 13.29 8.17656C13.29 8.5377 13.2046 8.8953 13.0388 9.22894C12.873 9.56259 12.6299 9.86575 12.3235 10.1211C12.017 10.3765 11.6532 10.579 11.2529 10.7172C10.8525 10.8554 10.4234 10.9266 9.99 10.9266ZM9.99 0.476562C7.5394 0.476562 5.18917 1.28781 3.45633 2.73184C1.7235 4.17587 0.75 6.1344 0.75 8.17656C0.75 13.9516 9.99 22.4766 9.99 22.4766C9.99 22.4766 19.23 13.9516 19.23 8.17656C19.23 6.1344 18.2565 4.17587 16.5237 2.73184C14.7908 1.28781 12.4406 0.476563 9.99 0.476562Z" fill="#757575"/>
</svg>
