<svg width="141" height="71" viewBox="0 0 141 71" fill="none" xmlns="http://www.w3.org/2000/svg">
<mask id="mask0_677_419" style="mask-type:luminance" maskUnits="userSpaceOnUse" x="0" y="0" width="55" height="63">
<path d="M0 0H54.0278V62.4508H0V0Z" fill="white"/>
</mask>
<g mask="url(#mask0_677_419)">
<path d="M9.79087 35.3883C9.60757 35.4349 9.52493 35.4423 9.46242 35.4772C7.0383 36.7804 5.33464 38.6896 4.54743 41.3574C4.44148 41.7134 4.38215 42.0811 4.30375 42.4413C4.2762 42.5706 4.26879 42.7072 4.22959 42.8323C4.16708 43.0399 3.92445 43.1925 3.7401 43.1565C3.54409 43.1215 3.36398 42.9265 3.34809 42.7104C3.34067 42.6055 3.33643 42.4953 3.36398 42.3936C3.50171 41.8702 3.44238 41.3415 3.44238 40.8139C3.45827 35.4974 5.51793 31.1471 9.66161 27.7949C9.90847 27.5946 10.1628 27.4071 10.4213 27.2079C10.4923 26.5627 10.559 25.9291 10.6257 25.2987C10.7942 23.7179 10.9309 22.1297 11.1301 20.5532C11.9491 14.0405 15.0121 8.73987 19.927 4.45634C21.3881 3.18494 23.06 2.28437 24.9014 1.69424C26.7767 1.09562 28.6647 0.566935 30.6152 0.293586C31.6927 0.145257 32.7776 0.0583781 33.87 0.0393074C36.0589 0.000106171 38.2171 0.223659 40.352 0.688777C40.5278 0.727978 40.708 0.78625 40.869 0.868891C41.0173 0.947294 41.1042 1.11469 41.0491 1.2715C41.0014 1.40499 40.8881 1.57663 40.7673 1.61583C40.5204 1.69847 40.246 1.71331 39.9833 1.74085C39.2713 1.81184 38.554 1.85104 37.8452 1.94428C34.6805 2.38291 31.9629 3.71257 29.828 6.11444C27.2312 9.04077 25.1747 12.3072 23.879 16.0122C23.1352 18.1365 22.5037 20.3032 21.8225 22.4508C21.7918 22.5483 21.7949 22.6584 21.7801 22.8025C21.9517 22.811 22.1043 22.8417 22.2537 22.8269C23.3344 22.7008 24.4119 22.5292 25.4926 22.4434C26.8159 22.3374 28.1434 22.2707 29.472 22.2474C31.0655 22.2166 32.66 22.224 34.2535 22.2632C36.3799 22.3141 38.5031 22.3099 40.6264 22.2082C42.4858 22.1181 44.3229 21.8638 46.1167 21.3521C48.2865 20.7333 50.2561 19.7162 52.0424 18.3431C52.2935 18.1482 52.5436 17.9479 52.8063 17.7678C52.9356 17.682 53.0881 17.6121 53.2375 17.5845C53.5586 17.522 53.8202 17.7445 53.8287 18.0655C53.8287 18.1715 53.8202 18.2806 53.7895 18.3781C53.7546 18.5042 53.6995 18.6292 53.6401 18.7468C52.391 21.3012 50.9967 23.7656 49.2189 26.0033C46.7079 29.1563 43.4414 31.0019 39.5054 31.75C37.2265 32.1843 34.9199 32.2861 32.6124 32.3369C31.4734 32.3602 30.3292 32.321 29.186 32.3284C27.192 32.3443 25.2023 32.3602 23.2094 32.4026C22.3861 32.4227 21.5682 32.5085 20.746 32.5753C20.5924 32.587 20.4398 32.6452 20.2565 32.6887C20.2322 32.8804 20.1972 33.0605 20.1972 33.2396C20.1856 34.1169 20.1813 34.9931 20.1813 35.865C20.1813 38.3336 20.1072 40.798 19.8603 43.255C19.5626 46.2163 19.0265 49.1341 17.9606 51.9312C17.718 52.5732 17.4404 53.2111 17.1385 53.8287C15.4623 57.2668 12.7988 59.6062 9.1806 60.8468C7.2449 61.5122 5.26365 61.9964 3.21565 62.1691C2.63611 62.2157 2.05974 62.3449 1.4802 62.4032C1.08819 62.4424 0.688758 62.4509 0.293566 62.4308C0.199271 62.4276 0.0583588 62.2867 0.0308121 62.1807C8.68142e-05 62.0748 0.0424666 61.8989 0.120869 61.829C0.270258 61.6881 0.466264 61.5864 0.649556 61.4804C2.62339 60.3309 4.30057 58.8401 5.71817 57.056C7.01817 55.4243 7.79372 53.5512 8.23977 51.5328C8.65191 49.666 8.92526 47.7769 9.05876 45.8677C9.1806 44.1503 9.23887 42.4254 9.33317 40.7037C9.34482 40.4929 9.32469 40.246 9.4264 40.086C9.6775 39.7025 9.6775 39.284 9.69763 38.8613C9.74001 37.9067 9.77497 36.9521 9.811 35.9985C9.82689 35.8216 9.80252 35.6425 9.79087 35.3883Z" fill="white"/>
</g>
<mask id="mask1_677_419" style="mask-type:luminance" maskUnits="userSpaceOnUse" x="25" y="1" width="33" height="17">
<path d="M25.5486 1.25659H57.3652V17.2592H25.5486V1.25659Z" fill="white"/>
</mask>
<g mask="url(#mask1_677_419)">
<path d="M43.3873 14.2511C42.2589 14.267 40.9939 14.1145 39.7289 13.9661C38.5422 13.8252 37.3556 13.6917 36.1647 13.6334C34.1326 13.5349 32.1429 13.7892 30.2231 14.5096C28.9157 14.9981 27.7365 15.6952 26.7458 16.688C26.6515 16.7823 26.5572 16.8766 26.4524 16.9539C26.2797 17.0874 26.0837 17.0916 25.9353 16.9783C25.7859 16.8681 25.7001 16.6413 25.7976 16.4814C26.3379 15.5893 26.5106 14.5488 26.9535 13.6133C28.2418 10.8756 30.0123 8.53198 32.519 6.79547C34.2693 5.57811 36.2272 4.87037 38.3229 4.54193C39.7914 4.31096 41.2715 4.20183 42.7643 4.20501C44.1703 4.20925 45.5762 4.20501 46.9864 4.19335C48.3139 4.18594 49.6373 4.10753 50.9531 3.91577C52.7511 3.65407 54.3764 3.0046 55.8099 1.88578C55.9985 1.73639 56.1902 1.59654 56.3894 1.46304C56.6013 1.31789 56.8397 1.27869 57.0675 1.40795C57.3377 1.56051 57.3652 1.82645 57.3302 2.10509C57.3143 2.20998 57.291 2.31169 57.255 2.41341C56.3269 5.32066 55.0311 8.03084 52.9789 10.3278C51.2668 12.2487 49.1562 13.4925 46.6219 14.0085C45.6038 14.2162 44.5739 14.2628 43.3873 14.2511Z" fill="white"/>
</g>
<path d="M45.1205 36.7137V60.6948H39.1852V42.5891L45.1205 36.7137ZM68.4185 60.6948H62.5431V47.805C62.5431 47.0855 62.4032 46.4161 62.1235 45.7966C61.8637 45.1571 61.4939 44.6075 61.0143 44.1479C60.5547 43.6882 60.0051 43.3285 59.3656 43.0687C58.7461 42.7889 58.0866 42.649 57.3872 42.649C56.6678 42.649 55.9883 42.7889 55.3488 43.0687C54.7293 43.3285 54.1797 43.6882 53.7001 44.1479C53.2205 44.6075 52.8408 45.1571 52.561 45.7966C52.3012 46.4161 52.1713 47.0855 52.1713 47.805V60.6948H46.2959V47.805C46.2959 46.2862 46.5857 44.8573 47.1652 43.5184C47.7448 42.1594 48.5342 40.9804 49.5334 39.9811C50.5526 38.9619 51.7316 38.1626 53.0706 37.583C54.4095 37.0035 55.8484 36.7137 57.3872 36.7137C58.906 36.7137 60.3349 37.0035 61.6738 37.583C63.0327 38.1626 64.2018 38.9619 65.181 39.9811C66.1803 40.9804 66.9696 42.1594 67.5492 43.5184C68.1287 44.8573 68.4185 46.2862 68.4185 47.805V60.6948ZM81.8938 42.649H78.8362V60.6948H72.9009V42.649H67.1454V36.7137H87.8291L81.8938 42.649ZM94.6424 60.6948C92.9837 60.6948 91.425 60.3851 89.9661 59.7656C88.5273 59.1261 87.2583 58.2667 86.1591 57.1876C85.08 56.0885 84.2206 54.8195 83.5812 53.3806C82.9616 51.9217 82.6519 50.363 82.6519 48.7043C82.6519 47.0656 82.9616 45.5168 83.5812 44.0579C84.2206 42.5991 85.08 41.3301 86.1591 40.2509C87.2583 39.1518 88.5273 38.2925 89.9661 37.673C91.425 37.0335 92.9837 36.7137 94.6424 36.7137C96.2811 36.7137 97.8299 37.0335 99.2888 37.673C100.748 38.2925 102.017 39.1518 103.096 40.2509C104.195 41.3301 105.054 42.5991 105.674 44.0579C106.313 45.5168 106.633 47.0656 106.633 48.7043C106.633 50.363 106.313 51.9217 105.674 53.3806C105.054 54.8195 104.195 56.0885 103.096 57.1876C102.017 58.2667 100.748 59.1261 99.2888 59.7656C97.8299 60.3851 96.2811 60.6948 94.6424 60.6948ZM94.6424 42.709C93.8031 42.709 93.0137 42.8689 92.2743 43.1886C91.5349 43.5084 90.8954 43.938 90.3558 44.4776C89.8162 45.0172 89.3866 45.6567 89.0668 46.3961C88.7471 47.1155 88.5872 47.8849 88.5872 48.7043C88.5872 49.5436 88.7471 50.333 89.0668 51.0724C89.3866 51.8118 89.8162 52.4513 90.3558 52.9909C90.8954 53.5305 91.5349 53.9601 92.2743 54.2799C93.0137 54.5996 93.8031 54.7595 94.6424 54.7595C95.4618 54.7595 96.2312 54.5996 96.9506 54.2799C97.69 53.9601 98.3295 53.5305 98.8691 52.9909C99.4087 52.4513 99.8383 51.8118 100.158 51.0724C100.478 50.333 100.638 49.5436 100.638 48.7043C100.638 47.8849 100.478 47.1155 100.158 46.3961C99.8383 45.6567 99.4087 45.0172 98.8691 44.4776C98.3295 43.938 97.69 43.5084 96.9506 43.1886C96.2312 42.8689 95.4618 42.709 94.6424 42.709ZM120.847 42.7689C120.667 42.709 120.477 42.679 120.277 42.679C120.078 42.659 119.868 42.649 119.648 42.649C118.789 42.649 117.979 42.8189 117.22 43.1586C116.46 43.4784 115.791 43.928 115.211 44.5076C114.652 45.0671 114.202 45.7366 113.862 46.516C113.523 47.2754 113.353 48.0848 113.353 48.9441V60.6948H107.477V48.9441C107.477 47.2454 107.797 45.6567 108.437 44.1778C109.076 42.699 109.946 41.41 111.045 40.3109C112.144 39.1918 113.433 38.3125 114.912 37.673C116.39 37.0335 117.969 36.7137 119.648 36.7137C120.667 36.7137 121.656 36.8436 122.616 37.1034C123.595 37.3432 124.524 37.6929 125.403 38.1526L120.847 42.7689ZM140.378 36.7437L133.274 48.3446V60.6948H127.398V48.3446L120.084 36.7137H127.099L130.336 41.9296L133.574 36.7137L140.378 36.7437Z" fill="white"/>
</svg>
