<svg width="142" height="71" viewBox="0 0 142 71" fill="none" xmlns="http://www.w3.org/2000/svg">
<mask id="mask0_763_579" style="mask-type:luminance" maskUnits="userSpaceOnUse" x="0" y="0" width="55" height="63">
<path d="M0 0H54.1978V62.6473H0V0Z" fill="white"/>
</mask>
<g mask="url(#mask0_763_579)">
<path d="M9.82167 35.4996C9.6378 35.5464 9.5549 35.5538 9.49219 35.5889C7.06045 36.8962 5.35142 38.8114 4.56174 41.4876C4.45546 41.8447 4.39594 42.2135 4.31729 42.5749C4.28965 42.7045 4.28221 42.8416 4.24289 42.967C4.18018 43.1754 3.9368 43.3284 3.75186 43.2923C3.55524 43.2572 3.37456 43.0616 3.35862 42.8448C3.35118 42.7396 3.34693 42.6291 3.37456 42.527C3.51273 42.002 3.45321 41.4716 3.45321 40.9424C3.46915 35.6091 5.53529 31.2451 9.69201 27.8823C9.93964 27.6815 10.1947 27.4933 10.4541 27.2935C10.5253 26.6463 10.5922 26.0107 10.6592 25.3783C10.8282 23.7926 10.9653 22.1994 11.1651 20.6179C11.9867 14.0847 15.0593 8.76738 19.9897 4.47037C21.4554 3.19498 23.1325 2.29157 24.9797 1.69958C26.8609 1.09908 28.7549 0.568731 30.7115 0.294522C31.7924 0.145726 32.8808 0.058574 33.9766 0.0394433C36.1724 0.000118718 38.3373 0.224375 40.4789 0.690957C40.6554 0.730281 40.836 0.788737 40.9976 0.871637C41.1464 0.950287 41.2335 1.11821 41.1783 1.27551C41.1304 1.40943 41.0167 1.58161 40.8956 1.62093C40.6479 1.70383 40.3726 1.71871 40.1091 1.74634C39.3948 1.81755 38.6753 1.85688 37.9643 1.95041C34.7896 2.39042 32.0635 3.72427 29.9219 6.1337C27.3169 9.06923 25.2539 12.3459 23.9541 16.0626C23.208 18.1936 22.5745 20.3671 21.8911 22.5214C21.8603 22.6192 21.8635 22.7297 21.8486 22.8743C22.0208 22.8828 22.1739 22.9136 22.3237 22.8987C23.4078 22.7723 24.4887 22.6001 25.5728 22.514C26.9002 22.4077 28.232 22.3408 29.5648 22.3174C31.1632 22.2865 32.7628 22.294 34.3613 22.3333C36.4944 22.3843 38.6243 22.3801 40.7542 22.278C42.6195 22.1877 44.4624 21.9326 46.2618 21.4193C48.4384 20.7986 50.4142 19.7783 52.2062 18.4009C52.4581 18.2053 52.7089 18.0044 52.9725 17.8237C53.1021 17.7376 53.2552 17.6675 53.405 17.6399C53.7271 17.5772 53.9896 17.8004 53.9981 18.1224C53.9981 18.2287 53.9896 18.3381 53.9588 18.4359C53.9237 18.5624 53.8684 18.6878 53.8089 18.8058C52.5558 21.3683 51.1572 23.8404 49.3737 26.0851C46.8548 29.2481 43.5781 31.0995 39.6297 31.8499C37.3436 32.2856 35.0298 32.3877 32.715 32.4387C31.5724 32.4621 30.4246 32.4227 29.2778 32.4302C27.2775 32.4461 25.2816 32.4621 23.2824 32.5046C22.4566 32.5248 21.6361 32.6109 20.8113 32.6778C20.6572 32.6895 20.5042 32.748 20.3203 32.7915C20.2958 32.9839 20.2608 33.1646 20.2608 33.3442C20.2491 34.2242 20.2448 35.1032 20.2448 35.9779C20.2448 38.4543 20.1704 40.9264 19.9228 43.3911C19.6241 46.3617 19.0863 49.2887 18.0171 52.0946C17.7737 52.7387 17.4953 53.3785 17.1924 53.9981C15.511 57.447 12.839 59.7937 9.20948 61.0383C7.2677 61.7058 5.28021 62.1915 3.22576 62.3647C2.6444 62.4115 2.06622 62.5411 1.48485 62.5996C1.09161 62.6389 0.690921 62.6474 0.294486 62.6272C0.199894 62.624 0.0585381 62.4827 0.0309048 62.3764C8.28244e-05 62.2701 0.042596 62.0937 0.121245 62.0235C0.271104 61.8822 0.467727 61.7802 0.651596 61.6739C2.63164 60.5207 4.3141 59.0253 5.73616 57.2355C7.04025 55.5988 7.81824 53.7197 8.26569 51.695C8.67913 49.8223 8.95334 47.9273 9.08726 46.012C9.20948 44.2892 9.26794 42.5589 9.36253 40.8318C9.37422 40.6203 9.35403 40.3727 9.45606 40.2122C9.70795 39.8275 9.70795 39.4076 9.72814 38.9836C9.77065 38.026 9.80573 37.0684 9.84186 36.1118C9.85781 35.9343 9.83336 35.7547 9.82167 35.4996Z" fill="#010B17"/>
</g>
<mask id="mask1_763_579" style="mask-type:luminance" maskUnits="userSpaceOnUse" x="25" y="1" width="33" height="17">
<path d="M25.629 1.26038H57.5457V17.3133H25.629V1.26038Z" fill="white"/>
</mask>
<g mask="url(#mask1_763_579)">
<path d="M43.5238 14.2961C42.3919 14.312 41.1229 14.159 39.8539 14.0102C38.6635 13.8688 37.4732 13.7349 36.2785 13.6764C34.24 13.5776 32.244 13.8327 30.3182 14.5554C29.0067 15.0454 27.8237 15.7447 26.83 16.7406C26.7354 16.8352 26.6408 16.9297 26.5356 17.0073C26.3624 17.1412 26.1657 17.1455 26.0169 17.0318C25.8671 16.9212 25.781 16.6938 25.8788 16.5333C26.4208 15.6384 26.5941 14.5947 27.0383 13.6562C28.3307 10.9099 30.1067 8.55892 32.6213 6.81694C34.3771 5.59575 36.3412 4.88579 38.4435 4.55631C39.9166 4.32461 41.4014 4.21514 42.8989 4.21833C44.3093 4.22258 45.7196 4.21833 47.1343 4.20664C48.466 4.1992 49.7935 4.12055 51.1135 3.92818C52.9171 3.66566 54.5475 3.01415 55.9855 1.8918C56.1747 1.74194 56.367 1.60165 56.5669 1.46773C56.7794 1.32212 57.0186 1.2828 57.2471 1.41246C57.5181 1.56551 57.5457 1.83228 57.5106 2.11181C57.4947 2.21703 57.4713 2.31906 57.4352 2.42109C56.5041 5.33749 55.2043 8.0562 53.1456 10.3604C51.4281 12.2873 49.3109 13.5351 46.7686 14.0527C45.7473 14.261 44.7142 14.3078 43.5238 14.2961Z" fill="#010B17"/>
</g>
<path d="M45.2625 36.7472V60.8038H39.3085V42.6411L45.2625 36.7472ZM68.6338 60.8038H62.7399V47.8734C62.7399 47.1517 62.5996 46.4801 62.3189 45.8586C62.0583 45.2171 61.6874 44.6658 61.2063 44.2047C60.7452 43.7437 60.1939 43.3828 59.5524 43.1222C58.9309 42.8415 58.2694 42.7012 57.5677 42.7012C56.846 42.7012 56.1644 42.8415 55.5229 43.1222C54.9015 43.3828 54.3502 43.7437 53.869 44.2047C53.3879 44.6658 53.007 45.2171 52.7264 45.8586C52.4657 46.4801 52.3354 47.1517 52.3354 47.8734V60.8038H46.4416V47.8734C46.4416 46.3498 46.7323 44.9164 47.3136 43.5733C47.895 42.21 48.6869 41.0273 49.6892 40.0249C50.7116 39.0025 51.8944 38.2006 53.2376 37.6193C54.5807 37.0379 56.0241 36.7472 57.5677 36.7472C59.0913 36.7472 60.5247 37.0379 61.8679 37.6193C63.2311 38.2006 64.4038 39.0025 65.3861 40.0249C66.3885 41.0273 67.1803 42.21 67.7617 43.5733C68.3431 44.9164 68.6338 46.3498 68.6338 47.8734V60.8038ZM82.1515 42.7012H79.0843V60.8038H73.1303V42.7012H67.3567V36.7472H88.1055L82.1515 42.7012ZM94.9402 60.8038C93.2763 60.8038 91.7126 60.493 90.2492 59.8716C88.8058 59.2301 87.5328 58.368 86.4302 57.2855C85.3477 56.1829 84.4857 54.9099 83.8441 53.4665C83.2227 52.0031 82.9119 50.4394 82.9119 48.7755C82.9119 47.1316 83.2227 45.578 83.8441 44.1145C84.4857 42.6511 85.3477 41.3781 86.4302 40.2955C87.5328 39.193 88.8058 38.3309 90.2492 37.7095C91.7126 37.068 93.2763 36.7472 94.9402 36.7472C96.5841 36.7472 98.1378 37.068 99.6012 37.7095C101.065 38.3309 102.338 39.193 103.42 40.2955C104.523 41.3781 105.385 42.6511 106.006 44.1145C106.648 45.578 106.969 47.1316 106.969 48.7755C106.969 50.4394 106.648 52.0031 106.006 53.4665C105.385 54.9099 104.523 56.1829 103.42 57.2855C102.338 58.368 101.065 59.2301 99.6012 59.8716C98.1378 60.493 96.5841 60.8038 94.9402 60.8038ZM94.9402 42.7613C94.0983 42.7613 93.3064 42.9217 92.5646 43.2425C91.8229 43.5632 91.1814 43.9942 90.6401 44.5355C90.0988 45.0768 89.6678 45.7183 89.3471 46.46C89.0263 47.1817 88.866 47.9536 88.866 48.7755C88.866 49.6175 89.0263 50.4093 89.3471 51.1511C89.6678 51.8928 90.0988 52.5343 90.6401 53.0756C91.1814 53.6169 91.8229 54.0479 92.5646 54.3686C93.3064 54.6894 94.0983 54.8498 94.9402 54.8498C95.7622 54.8498 96.534 54.6894 97.2557 54.3686C97.9974 54.0479 98.6389 53.6169 99.1802 53.0756C99.7215 52.5343 100.152 51.8928 100.473 51.1511C100.794 50.4093 100.954 49.6175 100.954 48.7755C100.954 47.9536 100.794 47.1817 100.473 46.46C100.152 45.7183 99.7215 45.0768 99.1802 44.5355C98.6389 43.9942 97.9974 43.5632 97.2557 43.2425C96.534 42.9217 95.7622 42.7613 94.9402 42.7613ZM121.227 42.8215C121.047 42.7613 120.856 42.7313 120.656 42.7313C120.455 42.7112 120.245 42.7012 120.024 42.7012C119.162 42.7012 118.35 42.8716 117.589 43.2124C116.827 43.5332 116.155 43.9842 115.574 44.5656C115.013 45.1269 114.562 45.7985 114.221 46.5803C113.88 47.3421 113.71 48.154 113.71 49.0161V60.8038H107.816V49.0161C107.816 47.312 108.136 45.7183 108.778 44.2348C109.419 42.7513 110.291 41.4583 111.394 40.3557C112.497 39.233 113.79 38.351 115.273 37.7095C116.757 37.068 118.34 36.7472 120.024 36.7472C121.047 36.7472 122.039 36.8775 123.001 37.1381C123.984 37.3787 124.916 37.7295 125.798 38.1906L121.227 42.8215ZM140.82 36.7773L133.693 48.4146V60.8038H127.799V48.4146L120.462 36.7472H127.499L130.746 41.9795L133.994 36.7472L140.82 36.7773Z" fill="#010B17"/>
</svg>
