<svg width="25" height="22" viewBox="0 0 25 22" fill="none" xmlns="http://www.w3.org/2000/svg">
<path d="M7.55997 1.59668V5.43568C7.55997 6.1075 7.03211 6.58738 6.40827 6.58738H1.56153C0.889706 6.58738 0.409831 6.1075 0.409831 5.43568V1.59668C0.409831 0.972839 0.889706 0.444977 1.56153 0.444977H6.40827C7.03211 0.444977 7.55997 0.972839 7.55997 1.59668ZM16.2457 13.1137C16.2457 13.7855 15.7178 14.2654 15.094 14.2654H10.2473C9.62343 14.2654 9.09557 13.7855 9.09557 13.1137V9.27468C9.09557 8.65084 9.62343 8.12298 10.2473 8.12298H15.094C15.7178 8.12298 16.2457 8.65084 16.2457 9.27468V13.1137ZM17.7813 1.59668C17.7813 0.972839 18.3092 0.444977 18.933 0.444977H23.8277C24.4516 0.444977 24.9794 0.972839 24.9794 1.59668V5.43568C24.9794 6.1075 24.4516 6.58738 23.8277 6.58738H18.933C18.3092 6.58738 17.7813 6.1075 17.7813 5.43568V1.59668ZM16.2457 5.43568C16.2457 6.1075 15.7178 6.58738 15.094 6.58738H10.2473C9.62343 6.58738 9.09557 6.1075 9.09557 5.43568V1.59668C9.09557 0.972839 9.62343 0.444977 10.2473 0.444977H15.094C15.7178 0.444977 16.2457 0.972839 16.2457 1.59668V5.43568ZM6.40827 8.12298C7.03211 8.12298 7.55997 8.65084 7.55997 9.27468V13.1137C7.55997 13.7855 7.03211 14.2654 6.40827 14.2654H1.56153C0.889706 14.2654 0.409831 13.7855 0.409831 13.1137V9.27468C0.409831 8.65084 0.889706 8.12298 1.56153 8.12298H6.40827ZM0.409831 16.9527C0.409831 16.3288 0.889706 15.801 1.56153 15.801H6.40827C7.03211 15.801 7.55997 16.3288 7.55997 16.9527V20.7917C7.55997 21.4635 7.03211 21.9434 6.40827 21.9434H1.56153C0.889706 21.9434 0.409831 21.4635 0.409831 20.7917V16.9527ZM18.933 14.2654C18.3092 14.2654 17.7813 13.7855 17.7813 13.1137V9.27468C17.7813 8.65084 18.3092 8.12298 18.933 8.12298H23.8277C24.4516 8.12298 24.9794 8.65084 24.9794 9.27468V13.1137C24.9794 13.7855 24.4516 14.2654 23.8277 14.2654H18.933ZM18.933 21.9434C18.3092 21.9434 17.7813 21.4635 17.7813 20.7917V16.9527C17.7813 16.3288 18.3092 15.801 18.933 15.801H23.8277C24.4516 15.801 24.9794 16.3288 24.9794 16.9527V20.7917C24.9794 21.4635 24.4516 21.9434 23.8277 21.9434H18.933ZM9.09557 16.9527C9.09557 16.3288 9.62343 15.801 10.2473 15.801H15.094C15.7178 15.801 16.2457 16.3288 16.2457 16.9527V20.7917C16.2457 21.4635 15.7178 21.9434 15.094 21.9434H10.2473C9.62343 21.9434 9.09557 21.4635 9.09557 20.7917V16.9527Z" fill="#C2C7D0"/>
</svg>
