<svg width="24" height="27" viewBox="0 0 24 27" fill="none" xmlns="http://www.w3.org/2000/svg">
<path d="M23.25 6.12513C23.25 8.53763 21.2875 10.5001 18.875 10.5001C16.4625 10.5001 14.5 8.53763 14.5 6.12513C14.5 3.71263 16.4625 1.75013 18.875 1.75013C21.2875 1.75013 23.25 3.71263 23.25 6.12513ZM20.75 12.7376C20.125 12.9001 19.5 13.0001 18.875 13.0001C17.0527 12.9968 15.3059 12.2714 14.0173 10.9828C12.7287 9.69424 12.0033 7.94748 12 6.12513C12 4.28763 12.725 2.62513 13.875 1.38763C13.6482 1.10955 13.3621 0.885591 13.0378 0.732059C12.7134 0.578526 12.3589 0.499291 12 0.500129C10.625 0.500129 9.5 1.62513 9.5 3.00013V3.36263C5.7875 4.46263 3.25 7.87513 3.25 11.7501V19.2501L0.75 21.7501V23.0001H23.25V21.7501L20.75 19.2501V12.7376ZM12 26.7501C13.3875 26.7501 14.5 25.6376 14.5 24.2501H9.5C9.5 24.9132 9.76339 25.5491 10.2322 26.0179C10.7011 26.4867 11.337 26.7501 12 26.7501Z" fill="#757575"/>
</svg>
