<svg width="20" height="21" viewBox="0 0 20 21" fill="none" xmlns="http://www.w3.org/2000/svg">
<path d="M11.7489 8.47581L8.74889 11.4758M18.0369 1.50681C18.1318 1.47406 18.234 1.46867 18.3318 1.49125C18.4296 1.51384 18.5191 1.56348 18.59 1.63452C18.6609 1.70555 18.7104 1.7951 18.7329 1.89294C18.7553 1.99078 18.7498 2.09296 18.7169 2.18781L12.7929 19.1178C12.7574 19.219 12.6924 19.3072 12.6062 19.371C12.52 19.4348 12.4166 19.4712 12.3095 19.4755C12.2023 19.4798 12.0964 19.4518 12.0053 19.3952C11.9143 19.3385 11.8424 19.2558 11.7989 19.1578L8.57989 11.9158C8.52573 11.7954 8.42932 11.699 8.30889 11.6448L1.06689 8.42481C0.969181 8.38118 0.886802 8.30926 0.83039 8.21834C0.773978 8.12742 0.746127 8.02167 0.750434 7.91475C0.75474 7.80784 0.791007 7.70467 0.854549 7.61858C0.918091 7.53249 1.00599 7.46743 1.10689 7.43181L18.0369 1.50681Z" stroke="#757575" stroke-width="1.5" stroke-linecap="round" stroke-linejoin="round"/>
</svg>
