<svg width="28" height="25" viewBox="0 0 28 25" fill="none" xmlns="http://www.w3.org/2000/svg">
<path d="M26.5062 13.9972C26.9861 13.9972 27.37 14.4291 27.274 14.861C26.9381 17.5483 25.6425 19.8997 23.7709 21.6272C23.483 21.9152 23.0031 21.9152 22.7152 21.6272L15.1332 13.9972H26.5062ZM25.7384 10.926C25.7864 11.3579 25.4025 11.6938 24.9706 11.6938H14.2694V0.99262C14.2694 0.560733 14.6053 0.176833 15.0372 0.22482C20.7957 0.60872 25.3545 5.16753 25.7384 10.926ZM11.966 13.9972L19.4041 21.4833C19.74 21.8192 19.74 22.395 19.3561 22.635C17.5326 23.9786 15.2772 24.7464 12.8778 24.7464C6.6874 24.8424 1.40877 19.8037 1.21682 13.6613C0.976883 7.66288 5.34375 2.67218 11.1022 1.8564C11.5341 1.80841 11.966 2.19231 11.966 2.6242V13.9972Z" fill="#C2C7D0"/>
</svg>
