<svg width="19" height="19" viewBox="0 0 19 19" fill="none" xmlns="http://www.w3.org/2000/svg">
<path d="M17.7 18.4766C15.6167 18.4766 13.5543 18.0266 11.513 17.1266C9.47167 16.2266 7.61733 14.9432 5.95 13.2766C4.28267 11.6099 2.99933 9.7599 2.1 7.72656C1.20067 5.69323 0.750667 3.62656 0.75 1.52656V0.476562H6.65L7.575 5.50156L4.725 8.37656C5.09167 9.02656 5.5 9.64323 5.95 10.2266C6.4 10.8099 6.88333 11.3516 7.4 11.8516C7.88333 12.3349 8.41267 12.7976 8.988 13.2396C9.56333 13.6816 10.184 14.0939 10.85 14.4766L13.75 11.5766L18.75 12.6016V18.4766H17.7Z" fill="#757575"/>
</svg>
