<svg width="442" height="37" viewBox="0 0 442 37" fill="none" xmlns="http://www.w3.org/2000/svg">
<path d="M415.628 19.1345C415.023 19.1648 414.412 19.1859 413.819 19.2311C413.434 19.2593 413.268 19.178 413.011 19.1358C412.925 19.121 412.833 19.0915 412.754 19.0953C412.155 19.1256 411.556 19.1597 410.957 19.1937C410.775 19.2662 410.66 19.3626 410.379 19.3981C410.105 19.4318 409.781 19.4322 409.475 19.4492C409.072 19.4701 408.669 19.4909 408.265 19.5099C408.064 19.5194 407.899 19.5548 407.833 19.6216C407.821 19.6327 407.955 19.6603 408.029 19.6769C408.274 19.7322 408.513 19.7948 408.783 19.8371C409.04 19.8776 409.357 19.8105 409.633 19.862C410.252 19.978 410.258 19.9761 410.729 19.9533C411.132 19.9325 411.535 19.9098 411.938 19.8945C412.018 19.8907 412.11 19.9184 412.196 19.9331C412.453 19.9735 412.619 20.0659 412.998 20.0303C413.285 20.0022 413.603 19.9962 413.902 19.981C414.153 20.0345 414.386 20.0953 414.656 20.1376C414.907 20.178 414.981 20.2094 414.847 20.2633C414.725 20.3134 414.554 20.334 414.328 20.338C414.127 20.3401 413.925 20.357 413.723 20.3665C413.62 20.3721 413.522 20.376 413.424 20.3817C413.039 20.4025 413.039 20.4025 412.335 20.2848C412.059 20.2388 411.748 20.304 411.485 20.2599C411.307 20.2304 411.153 20.1862 410.982 20.1549C410.908 20.142 410.792 20.1403 410.7 20.1441C410.395 20.1575 410.089 20.1671 409.796 20.1915C409.589 20.2084 409.467 20.2604 409.492 20.3122C409.498 20.3326 409.645 20.3621 409.731 20.3638C409.927 20.3673 410.134 20.3411 410.324 20.3539C410.508 20.3666 410.698 20.4034 410.833 20.444C411.109 20.5289 411.42 20.4526 411.683 20.4745C411.958 20.4982 412.185 20.572 412.449 20.6162C412.516 20.6272 412.644 20.6085 412.748 20.6028C413.048 20.5895 413.347 20.5781 413.647 20.5647C413.898 20.6181 414.167 20.666 414.394 20.7268C414.805 20.8375 415.246 20.8795 415.777 20.8252C416.077 20.7952 416.37 20.8059 416.609 20.8779C416.855 20.9517 417.136 20.9439 417.448 20.9288C417.735 20.9136 418.028 20.8725 418.322 20.924C418.959 21.0381 418.965 21.0436 419.717 20.9983C419.943 20.9851 420.114 20.9811 420.286 21.0235C420.445 21.0622 420.617 21.0954 420.782 21.1322C421.082 21.1189 421.387 21.1056 421.687 21.0904C422.071 21.0696 422.286 21.0952 422.379 21.1988C422.435 21.2617 422.46 21.3191 422.595 21.3616C422.754 21.4132 422.926 21.4111 423.158 21.3961C423.378 21.3828 423.536 21.3623 423.627 21.2955C423.663 21.2677 423.737 21.2417 423.804 21.2194C423.858 21.2026 423.944 21.1766 423.993 21.1802C424.084 21.1875 424.207 21.2078 424.238 21.2318C424.54 21.4555 424.54 21.4574 424.847 21.5218C425.184 21.5937 425.533 21.6581 425.84 21.7392C426.116 21.8111 426.391 21.7793 426.69 21.7789C426.916 21.7787 427.064 21.8266 427.046 21.8748C427.034 21.9026 426.949 21.9434 426.876 21.9472C426.277 21.985 425.672 22.0172 425.067 22.0438C424.994 22.0476 424.902 22.0144 424.816 21.9978C424.644 21.9647 424.491 21.913 424.307 21.9021C424.124 21.8912 423.91 21.9193 423.709 21.9288C423.507 21.9383 423.293 21.9626 423.11 21.948C422.926 21.9334 422.779 21.8799 422.607 21.8449C422.527 21.8283 422.417 21.8044 422.35 21.81C421.904 21.855 421.573 21.7943 421.254 21.7132C421.187 21.6966 421.071 21.6856 420.985 21.6894C420.276 21.7217 419.574 21.7596 418.865 21.7956C418.578 21.8108 418.344 21.7463 418.282 21.6371C418.251 21.576 418.189 21.515 418.188 21.4538C418.187 21.3427 417.85 21.282 417.605 21.2953C417.202 21.3143 416.793 21.3296 416.395 21.3578C416.072 21.3804 415.796 21.3585 415.575 21.2921C415.318 21.2165 415.024 21.2317 414.731 21.2524C414.511 21.2675 414.451 21.3286 414.465 21.4823C414.479 21.6064 414.375 21.6454 413.978 21.6663C413.477 21.6928 412.97 21.7193 412.463 21.7403C412.384 21.7441 412.291 21.7127 412.212 21.6962C412.04 21.663 411.887 21.6095 411.703 21.5986C411.52 21.5859 411.306 21.6139 411.104 21.6252C410.903 21.6347 410.689 21.6609 410.505 21.6482C410.322 21.6354 410.168 21.5801 410.003 21.5451C409.923 21.5285 409.825 21.5045 409.746 21.5083C409.342 21.5236 408.939 21.5463 408.536 21.5672C408.084 21.59 408.084 21.59 407.44 21.4759C407.146 21.4244 406.853 21.4655 406.566 21.4806C406.261 21.4958 405.973 21.5036 405.734 21.4298C405.574 21.3818 405.397 21.3524 405.207 21.3619C404.7 21.3847 404.199 21.4131 403.692 21.4359C403.607 21.4397 403.49 21.4306 403.423 21.414C403.098 21.3366 402.779 21.2759 402.327 21.3153C401.936 21.3491 401.515 21.3515 401.124 21.3834C400.91 21.4003 400.813 21.4597 400.856 21.506C400.881 21.53 401.01 21.5576 401.095 21.5575C401.291 21.5592 401.505 21.5311 401.688 21.542C402.067 21.5638 402.259 21.7191 402.754 21.6759C403.047 21.6497 403.352 21.64 403.658 21.6323C403.737 21.6303 403.823 21.6654 403.909 21.6838C404.154 21.7335 404.369 21.7981 404.723 21.7643C405.016 21.7381 405.328 21.7303 405.628 21.7151C406.104 21.6905 406.104 21.6923 406.723 21.8046C407.017 21.8579 407.31 21.815 407.597 21.8017C407.811 21.7922 408.013 21.7734 408.184 21.7991C408.447 21.8377 408.638 21.9263 408.962 21.9204C409.268 21.9145 409.567 21.8882 409.873 21.8786C410.062 21.8728 410.24 21.9022 410.393 21.952C410.553 22.0019 410.724 22.0239 410.932 22.0125C411.231 21.9973 411.537 21.9785 411.842 21.9688C411.928 21.9669 412.026 21.9834 412.106 21.9982C412.277 22.0313 412.443 22.07 412.608 22.105C412.908 22.0935 413.213 22.0894 413.507 22.0669C413.733 22.0499 413.892 22.0572 414.075 22.094C414.308 22.1437 414.499 22.2324 414.878 22.1893C415.067 22.1687 415.287 22.174 415.476 22.1553C415.708 22.1309 415.867 22.14 416.033 22.1953C416.346 22.3005 416.738 22.3019 417.141 22.2607C417.58 22.2157 417.911 22.2672 418.242 22.3483C418.592 22.4331 418.592 22.4312 418.863 22.6365C418.944 22.6956 419.17 22.7231 419.359 22.7118C419.677 22.6929 419.952 22.7018 420.185 22.7719C420.431 22.8476 420.724 22.838 421.024 22.8172C421.421 22.789 421.818 22.7644 422.143 22.8715C422.303 22.9231 422.474 22.9359 422.688 22.9227C423.293 22.8886 423.904 22.8675 424.496 22.8261C424.857 22.7997 425.065 22.8587 425.31 22.9084C425.641 22.9766 426.003 23.0373 426.005 23.1836C426.005 23.2076 426.091 23.2353 426.165 23.2537C426.324 23.2924 426.496 23.3256 426.661 23.3624C426.907 23.4177 427.145 23.4637 427.481 23.4337C427.775 23.4092 428.086 23.4015 428.386 23.3844C428.685 23.3674 428.96 23.3578 429.23 23.4279C429.543 23.5071 429.874 23.5827 430.229 23.6415C430.48 23.6838 430.81 23.6112 431.079 23.6683C431.245 23.7033 431.404 23.7438 431.582 23.7733C431.655 23.7861 431.772 23.7767 431.869 23.7729C432.071 23.7653 432.279 23.7595 432.474 23.7407C432.7 23.7201 432.871 23.7236 433.043 23.766C433.202 23.8047 433.362 23.8582 433.546 23.8691C433.821 23.8854 434.126 23.811 434.402 23.8958C434.543 23.9383 434.721 23.9788 434.904 23.9916C435.088 24.0043 435.302 23.9763 435.497 23.9779C435.583 23.9778 435.687 24.0073 435.736 24.0313C435.767 24.0442 435.725 24.0795 435.682 24.098C435.628 24.1203 435.548 24.1501 435.469 24.1539C434.864 24.1879 434.259 24.2164 433.654 24.2486C433.294 24.2676 433.294 24.2676 432.565 24.1518C432.393 24.1242 432.204 24.13 431.99 24.1432C431.703 24.1602 431.41 24.192 431.11 24.1591C430.717 24.0336 430.234 24.023 429.721 24.0718C429.507 24.0924 429.312 24.0927 429.152 24.0577C428.815 23.9877 428.46 23.9233 428.159 23.8403C427.926 23.7758 427.816 23.7703 427.719 23.8594C427.689 23.8872 427.659 23.9168 427.665 23.9428C427.703 24.0353 427.771 24.126 427.809 24.2185C427.822 24.2444 427.773 24.2741 427.743 24.302C427.646 24.3799 427.518 24.3744 427.303 24.3099C427.088 24.2453 426.831 24.203 426.489 24.2331C426.196 24.2594 425.878 24.256 425.585 24.2842C425.133 24.3254 424.814 24.2666 424.489 24.1873C424.422 24.1707 424.305 24.1616 424.22 24.1654C423.309 24.2091 422.405 24.2583 421.495 24.302C421.299 24.3115 421.122 24.2839 420.968 24.2341C420.809 24.1843 420.631 24.1586 420.435 24.1681C419.629 24.2079 418.822 24.2441 418.016 24.2932C417.686 24.3139 417.423 24.2902 417.196 24.2256C417.024 24.1777 416.865 24.163 416.651 24.1689C416.419 24.1747 416.254 24.1934 416.139 24.2473C416.029 24.2992 416.109 24.3306 416.354 24.3711C416.617 24.4152 416.863 24.4723 417.114 24.5239C417.316 24.5162 417.517 24.5012 417.713 24.5028C417.799 24.5027 417.879 24.5359 417.964 24.5544C418.21 24.6078 418.436 24.6612 418.784 24.6312C419.078 24.6049 419.389 24.599 419.689 24.5819C420.104 24.5611 420.104 24.5611 420.778 24.6769C420.95 24.7064 421.133 24.7043 421.353 24.6874C421.542 24.6742 421.738 24.6999 421.873 24.7553C421.929 24.7774 421.911 24.8145 421.796 24.9369C421.797 25.0276 421.925 24.9867 421.967 24.9274C422.033 24.8421 421.905 24.8145 421.661 24.8611C421.49 24.8946 421.405 24.9429 421.448 24.9817C421.473 25.0021 421.59 25.0279 421.796 24.9369C422.333 24.8251 422.742 24.8116 423.133 24.7815C423.365 24.7646 423.512 24.7718 423.696 24.8198C423.917 24.8769 424.138 24.9378 424.498 24.9077C424.889 24.8739 425.305 24.8697 425.702 24.8415C426.068 24.8151 426.259 24.8964 426.492 24.9442C426.774 25.0013 427.085 24.9361 427.342 24.9692C427.611 25.0022 427.802 25.0834 428.114 25.0979C428.566 25.0473 428.854 25.1396 429.197 25.2003C429.467 25.2463 429.784 25.2051 430.071 25.1844C430.395 25.1618 430.664 25.1819 430.891 25.2483C431.149 25.3239 431.436 25.3069 431.729 25.2899C432.414 25.252 432.438 25.2464 432.837 25.3478C433.125 25.4216 433.4 25.3879 433.687 25.3783C433.938 25.428 434.183 25.4814 434.447 25.5255C434.514 25.5366 434.642 25.5179 434.746 25.5122C435.046 25.4971 435.351 25.4819 435.651 25.4667C435.852 25.4572 436.066 25.4292 436.249 25.4401C436.433 25.4528 436.587 25.5063 436.752 25.5413C436.918 25.5763 437.089 25.6113 437.249 25.6482C437.494 25.7034 437.727 25.7494 438.069 25.7213C438.362 25.6968 438.667 25.6891 438.973 25.672C439.358 25.6512 439.346 25.6568 440.062 25.767C440.448 25.8277 440.845 25.7531 441.236 25.7453C441.431 25.7413 441.621 25.7615 441.756 25.815C441.812 25.8372 441.794 25.8742 441.813 25.9057C440.805 25.9569 439.79 26.0007 438.794 26.063C438.41 26.0875 438.207 26.0211 437.998 25.9658C437.655 25.8773 437.204 26.0075 436.879 25.893C436.682 25.8248 436.4 25.7862 436.065 25.82C435.869 25.8387 435.661 25.8371 435.46 25.854C434.947 25.8954 434.476 25.8978 434.065 25.7705C433.924 25.7262 433.722 25.7024 433.574 25.6599C433.403 25.6138 433.237 25.5881 433.036 25.5976C432.125 25.6431 431.221 25.6887 430.317 25.7379C430.237 25.7417 430.158 25.7696 430.091 25.79C429.921 25.8421 429.976 25.8828 430.252 25.9158C430.344 25.9268 430.417 25.9507 430.503 25.9692C430.669 26.0042 430.822 26.0595 431.006 26.0723C431.189 26.085 431.403 26.0588 431.605 26.0493C431.806 26.0398 432.02 26.0118 432.203 26.0227C432.387 26.0355 432.54 26.089 432.712 26.1221C432.792 26.1387 432.89 26.1663 432.969 26.1644C433.373 26.1528 433.77 26.132 434.173 26.1148C434.424 26.1645 434.639 26.2365 434.939 26.2528C435.129 26.2637 435.33 26.2431 435.526 26.2465C435.612 26.2483 435.722 26.2759 435.765 26.3C435.79 26.3148 435.711 26.3519 435.65 26.3705C435.418 26.4411 435.1 26.4285 434.813 26.4511C434.502 26.4756 434.22 26.4685 433.981 26.3966C433.822 26.3486 433.644 26.3229 433.448 26.3324C432.941 26.3571 432.44 26.3854 431.933 26.4064C431.847 26.4102 431.743 26.3937 431.664 26.3808C431.02 26.2686 431.02 26.2649 430.568 26.2895C429.902 26.3255 429.902 26.3255 429.455 26.2278C429.369 26.2094 429.277 26.1744 429.203 26.1763C428.495 26.2068 427.792 26.2372 427.089 26.2807C426.857 26.2939 426.698 26.2941 426.527 26.2462C426.379 26.2056 426.208 26.1595 426.024 26.1486C425.834 26.1377 425.627 26.1657 425.425 26.1752C425.224 26.1847 425.01 26.2091 424.832 26.1945C424.649 26.1799 424.489 26.1282 424.33 26.0914C424.164 26.0527 423.987 26.0547 423.761 26.0698C423.065 26.1132 423.058 26.1077 422.366 25.9937C422.286 25.9808 422.182 25.9661 422.097 25.9699C421.59 25.9928 421.089 26.0211 420.581 26.044C420.386 26.0535 420.196 26.0296 420.061 25.9761C420.006 25.9539 420.024 25.9168 419.986 25.8446C419.943 25.828 419.992 25.8576 420.005 25.8854C420.096 25.8816 420.207 25.8851 420.274 25.8702C420.444 25.8348 420.529 25.7884 420.486 25.7496C420.461 25.7292 420.345 25.7035 420.271 25.7035C420.137 25.7037 420.021 25.7446 419.986 25.8446C419.602 25.9062 419.192 25.9197 418.795 25.9498C418.563 25.9686 418.416 25.9595 418.232 25.9116C418.011 25.8526 417.784 25.7954 417.424 25.8255C417.033 25.8593 416.617 25.8653 416.214 25.8917C415.75 25.9219 415.546 25.7555 415.155 25.7596C414.751 25.7638 414.348 25.7958 413.945 25.8185C413.591 25.8374 413.591 25.8374 412.856 25.7179C412.586 25.6738 412.269 25.739 412.006 25.693C411.828 25.6636 411.674 25.6193 411.503 25.5881C411.429 25.5752 411.313 25.5753 411.222 25.5791C410.714 25.602 410.201 25.6174 409.713 25.6587C409.157 25.7075 408.734 25.6562 408.336 25.5474C407.834 25.5684 407.327 25.5801 406.832 25.6158C406.472 25.6422 406.263 25.5813 406.018 25.5316C405.932 25.5151 405.859 25.4874 405.767 25.4801C405.675 25.4728 405.565 25.4877 405.467 25.4934C405.064 25.5142 404.649 25.524 404.258 25.5578C403.775 25.601 403.59 25.4493 403.217 25.4312C402.967 25.5223 402.834 25.6465 402.339 25.6564C401.936 25.6643 401.533 25.6944 401.13 25.7152C400.928 25.7247 400.726 25.7361 400.525 25.7456C400.201 25.7626 400.049 25.835 400.118 25.9461C400.155 26.0072 400.186 26.0682 400.218 26.1293C400.28 26.2385 400.129 26.3313 399.872 26.3446C399.163 26.3806 398.461 26.4185 397.752 26.4508C397.562 26.4603 397.379 26.429 397.225 26.3792C397.065 26.3294 396.888 26.3074 396.692 26.3169C395.984 26.3529 395.281 26.3908 394.572 26.4231C394.493 26.4269 394.389 26.4085 394.309 26.3938C394.137 26.3606 393.972 26.322 393.806 26.287C393.403 26.3041 393.006 26.3157 392.609 26.3384C391.967 26.3725 391.967 26.3743 391.495 26.273C391.409 26.2546 391.323 26.2195 391.244 26.2215C390.938 26.2293 390.639 26.2481 390.334 26.2652C389.435 26.3144 389.435 26.3144 389.172 26.2591C388.933 26.2076 388.718 26.1449 388.358 26.1749C387.967 26.2087 387.551 26.2203 387.148 26.2393C386.848 26.2526 386.549 26.2678 386.25 26.2719C386.17 26.2738 386.084 26.2387 385.998 26.2203C385.753 26.1632 385.514 26.1172 385.178 26.1491C384.983 26.1678 384.775 26.1718 384.573 26.1813C384.048 26.2078 384.048 26.2078 383.184 26.0977C383.099 26.0867 382.995 26.0739 382.909 26.0795C382.2 26.1137 381.498 26.1516 380.789 26.1839C380.703 26.1877 380.599 26.1767 380.514 26.1676C379.546 26.0613 379.546 26.0613 378.52 26.1144C378.129 26.1334 378.117 26.1408 377.706 26.0431C377.522 26.0008 377.369 25.9806 377.155 25.9938C376.349 26.0392 375.536 26.0698 374.736 26.1226C374.375 26.1453 374.167 26.0899 373.921 26.0402C373.836 26.0237 373.743 25.9868 373.67 25.9887C372.864 26.0248 372.057 26.0684 371.25 26.1045C371.177 26.1083 371.085 26.0714 370.999 26.0548C370.834 26.0217 370.674 25.9719 370.491 25.961C370.301 25.9501 370.093 25.9781 369.886 25.9876C369.379 26.0123 369.378 26.0105 368.79 25.9019C368.711 25.8872 368.606 25.8669 368.527 25.8707C367.72 25.9087 366.908 25.9412 366.107 25.9958C365.649 26.026 365.337 25.9727 365.012 25.8953C364.944 25.8787 364.828 25.8714 364.743 25.8752C363.832 25.9189 362.928 25.9681 362.018 26.0118C361.828 26.0213 361.644 25.99 361.491 25.9421C361.245 25.8664 360.958 25.876 360.653 25.8931C359.95 25.9328 359.944 25.931 359.527 25.8426C359.441 25.8241 359.368 25.8001 359.276 25.791C359.19 25.7818 359.08 25.7875 358.989 25.7913C358.585 25.8103 358.182 25.8312 357.779 25.852C357.376 25.8729 356.966 25.8845 356.569 25.9165C356.08 25.9559 355.847 25.8358 355.504 25.7807C355.003 25.8053 354.489 25.8208 353.994 25.8602C353.616 25.8903 353.438 25.8091 353.186 25.7668C353.101 25.752 353.008 25.7207 352.929 25.7245C352.019 25.7663 351.108 25.8118 350.204 25.8629C349.984 25.8743 349.837 25.8596 349.653 25.8154C349.242 25.7159 349.224 25.7196 348.54 25.7575C348.24 25.7745 347.953 25.7897 347.695 25.714C347.468 25.6458 347.193 25.6294 346.869 25.652C346.472 25.6803 346.063 25.6956 345.66 25.7146C345.256 25.7355 344.853 25.7637 344.45 25.7734C344.126 25.7831 343.929 25.6963 343.672 25.6522C343.592 25.6393 343.482 25.6376 343.391 25.6414C342.987 25.6585 342.572 25.672 342.181 25.7039C341.705 25.7434 341.44 25.6418 341.103 25.583C341.03 25.5701 340.907 25.5777 340.816 25.5833C340.107 25.6175 339.405 25.6554 338.696 25.6914C338.444 25.6417 338.187 25.5939 337.936 25.5442C337.533 25.5632 337.129 25.584 336.726 25.603C336.421 25.6182 336.109 25.6241 335.822 25.6522C335.449 25.6897 335.265 25.6029 335.014 25.5606C334.928 25.5459 334.836 25.5145 334.756 25.5183C334.249 25.5393 333.742 25.5621 333.241 25.5942C332.765 25.6263 332.573 25.4598 332.182 25.4621C331.778 25.4644 331.363 25.489 330.972 25.5228C330.52 25.5622 330.201 25.5034 329.876 25.4241C329.809 25.4075 329.693 25.3984 329.607 25.4022C329.1 25.425 328.599 25.4534 328.092 25.4762C328.006 25.48 327.902 25.4709 327.817 25.4599C326.849 25.3518 326.849 25.3499 326.428 25.3727C326.128 25.3878 325.823 25.4067 325.517 25.4163C325.432 25.4201 325.328 25.4036 325.248 25.3889C324.611 25.2767 324.611 25.2748 324.152 25.2976C323.749 25.3184 323.346 25.3393 322.943 25.3601C322.691 25.3104 322.434 25.2626 322.183 25.2129C321.682 25.2376 321.168 25.2567 320.674 25.2906C320.441 25.3057 320.289 25.3003 320.111 25.2542C319.89 25.1989 319.669 25.1344 319.303 25.1663C318.912 25.2001 318.496 25.2043 318.099 25.2326C317.623 25.2665 317.425 25.0982 317.04 25.1005C316.636 25.1028 316.221 25.1274 315.83 25.1612C315.378 25.2006 315.059 25.1417 314.734 25.0625C314.667 25.0459 314.551 25.0368 314.465 25.0406C313.353 25.0956 312.247 25.1506 311.135 25.2094C310.451 25.2454 310.451 25.2472 309.147 25.1469C309.056 25.1396 308.958 25.1323 308.866 25.1361C308.463 25.1533 308.047 25.1667 307.656 25.1987C307.18 25.2382 306.916 25.1385 306.579 25.0777C306.505 25.0649 306.389 25.0724 306.291 25.0762C305.986 25.0896 305.686 25.1066 305.381 25.1218C304.978 25.1426 304.575 25.1635 304.171 25.1843C303.92 25.1365 303.663 25.0868 303.411 25.0389C302.91 25.0636 302.397 25.0772 301.902 25.1167C301.524 25.1467 301.345 25.0692 301.094 25.025C301.008 25.0103 300.916 24.9789 300.837 24.9809C299.926 25.0227 299.016 25.0664 298.112 25.1193C297.739 25.142 297.567 25.0588 297.316 25.0165C297.23 25.0037 297.132 24.9797 297.052 24.9835C296.447 25.0102 295.843 25.0424 295.238 25.0746C294.896 25.0935 294.896 25.0935 294.148 24.9796C294.063 24.9667 293.965 24.9539 293.879 24.9577C291.961 25.0525 290.048 25.153 288.13 25.2479C287.934 25.2574 287.757 25.2298 287.603 25.18C287.444 25.1302 287.266 25.1044 287.07 25.1139C286.264 25.1538 285.451 25.19 284.651 25.2391C284.321 25.2598 284.058 25.236 283.831 25.1715C283.659 25.1235 283.5 25.1052 283.286 25.1166C282.883 25.1393 282.479 25.1583 282.076 25.1791C281.673 25.2 281.27 25.2209 280.867 25.2417C280.463 25.2626 280.054 25.2742 279.657 25.3061C279.168 25.3456 278.928 25.2311 278.591 25.174C277.986 25.2025 277.381 25.231 276.783 25.2614C275.976 25.3012 275.17 25.3448 274.363 25.3828C274.29 25.3866 274.198 25.3534 274.112 25.3368C273.861 25.2908 273.677 25.2262 273.304 25.247C271.495 25.3473 269.675 25.4328 267.86 25.5313C267.481 25.5521 267.315 25.4727 267.058 25.4304C266.972 25.4175 266.874 25.3917 266.795 25.3955C265.787 25.443 264.778 25.4961 263.77 25.5473C263.361 25.5681 263.361 25.5681 262.675 25.4541C262.595 25.4412 262.491 25.4247 262.405 25.4285C261.092 25.493 259.784 25.5613 258.471 25.6277C258.275 25.6371 258.098 25.6114 257.938 25.5616C257.785 25.5118 257.601 25.4842 257.411 25.4937C256.202 25.5544 254.986 25.6133 253.782 25.6795C253.458 25.6984 253.189 25.6821 252.956 25.6157C252.79 25.5677 252.625 25.5476 252.417 25.5589C250.603 25.6518 248.788 25.7411 246.973 25.8395C246.625 25.8585 246.38 25.8235 246.159 25.7627C245.981 25.7148 245.828 25.7057 245.608 25.7133C245.376 25.7229 245.236 25.7434 245.108 25.7991C244.944 25.8715 244.841 25.9624 244.45 25.9684C244.047 25.9745 243.637 25.9972 243.24 26.0292C242.862 26.0611 242.683 25.978 242.444 25.9282C242.267 25.8933 242.101 25.8879 241.875 25.9048C241.668 25.9199 241.54 25.9515 241.418 26.0109C241.151 26.1372 241.126 26.1372 240.795 26.058C240.617 26.0156 240.458 25.9825 240.262 25.9901C239.456 26.0281 238.649 26.0698 237.843 26.1134C237.379 26.138 237.373 26.1417 237.023 26.0495C236.851 26.0034 236.686 25.9814 236.484 25.9927C234.266 26.1065 232.049 26.2166 229.831 26.3359C229.489 26.3548 229.256 26.3162 229.011 26.2609C228.931 26.2425 228.851 26.2167 228.759 26.2094C228.667 26.2021 228.564 26.2096 228.466 26.2134C226.853 26.295 225.234 26.3728 223.627 26.4637C223.26 26.4845 223.064 26.4254 222.813 26.3776C222.727 26.361 222.653 26.3352 222.561 26.3279C222.47 26.3224 222.36 26.3355 222.262 26.3412C220.649 26.4227 219.03 26.5006 217.423 26.5914C217.038 26.6123 216.872 26.5347 216.621 26.4942C216.535 26.4795 216.443 26.4518 216.364 26.4556C215.857 26.4766 215.356 26.505 214.848 26.5297C213.639 26.5922 212.429 26.6511 211.219 26.7155C210.755 26.7401 210.551 26.5755 210.16 26.5834C209.652 26.5933 209.152 26.6309 208.645 26.6574C208.241 26.6783 207.838 26.6973 207.435 26.72C207.038 26.7408 207.038 26.7408 206.046 26.6346C205.96 26.6254 205.856 26.6126 205.771 26.6164C204.359 26.6866 202.942 26.7568 201.537 26.8326C201.213 26.8496 200.944 26.8407 200.71 26.7724C200.545 26.7245 200.373 26.7006 200.172 26.712C198.052 26.82 195.938 26.9281 193.817 27.0344C193.738 27.0382 193.634 27.0198 193.554 27.0051C193.383 26.9719 193.217 26.9332 193.051 26.8982C192.93 26.941 192.771 26.9801 192.692 27.0283C192.583 27.0933 192.437 27.1119 192.205 27.1233C191.972 27.1347 191.826 27.1312 191.642 27.0833C191.421 27.0243 191.194 26.9782 190.833 26.9972C188.616 27.1165 186.398 27.2247 184.18 27.3422C183.813 27.3611 183.641 27.2798 183.384 27.2375C183.298 27.2247 183.2 27.2044 183.121 27.2082C182.21 27.2519 181.306 27.2993 180.396 27.3448C177.872 27.4738 175.349 27.5972 172.832 27.7335C172.374 27.7581 172.061 27.7122 171.736 27.6329C171.669 27.6163 171.552 27.6072 171.467 27.611C167.935 27.7893 164.404 27.9695 160.879 28.1496C160.689 28.1591 160.505 28.1297 160.352 28.0817C160.192 28.0319 160.015 28.008 159.819 28.0175C158.206 28.0991 156.593 28.1806 154.98 28.2641C154.577 28.2849 154.571 28.2867 154.154 28.1983C154.068 28.1799 153.976 28.1449 153.909 28.1486C153.768 28.1581 153.634 28.2045 153.537 28.2676C153.44 28.3344 153.288 28.3531 153.062 28.3663C152.83 28.3796 152.677 28.3742 152.499 28.33C152.272 28.2747 152.063 28.2212 151.697 28.2402C147.06 28.4828 142.422 28.7161 137.785 28.9568C137.412 28.9757 137.24 28.8982 136.983 28.8559C136.897 28.843 136.811 28.8246 136.719 28.821C136.622 28.8174 136.518 28.8287 136.42 28.8343C128.856 29.2193 121.292 29.6061 113.728 29.9911C113.276 30.0138 113.282 30.0138 112.789 30.1848C112.728 30.2052 112.649 30.2331 112.564 30.2369C110.248 30.3582 107.926 30.4758 105.605 30.5934C104.597 30.6446 103.588 30.6976 102.58 30.747C102.22 30.7641 102.22 30.7641 101.36 30.9651C101.287 30.9819 101.202 31.0042 101.116 31.008C97.0838 31.2147 93.0513 31.4214 89.0127 31.6243C88.695 31.6395 88.4387 31.6732 88.2931 31.7622C88.1899 31.8253 88.0559 31.8625 87.8543 31.8739C85.0316 32.018 82.209 32.164 79.3801 32.3044C79.0441 32.3214 78.8429 32.3735 78.6788 32.4515C78.6241 32.4775 78.5755 32.5072 78.4963 32.5258C78.4231 32.5426 78.3132 32.5482 78.2216 32.5539C75.8021 32.6772 73.3827 32.8042 70.9571 32.9219C70.5966 32.939 70.4506 33.0077 70.2742 33.0801C70.2134 33.1042 70.171 33.1376 70.0917 33.1544C70.0124 33.1693 69.8963 33.1694 69.7985 33.1733C67.7823 33.2757 65.7661 33.3799 63.7499 33.4823C63.3585 33.4735 63.2742 33.5811 63.0855 33.6461C63.0186 33.6684 62.9701 33.6981 62.8908 33.713C62.8054 33.7279 62.6952 33.7262 62.5913 33.73C60.9783 33.8116 59.3655 33.8987 57.7463 33.9747C57.3736 33.9918 57.3014 34.0863 57.1004 34.1514C57.0334 34.1719 56.9667 34.2034 56.8873 34.2091C55.8792 34.264 54.8711 34.3152 53.863 34.3645C53.5269 34.3816 53.5269 34.3798 52.9362 34.5638C52.8692 34.5843 52.7899 34.6066 52.7044 34.6122C51.1953 34.6918 49.6801 34.7677 48.1649 34.8454C47.9694 34.8549 47.8355 34.8995 47.7384 34.9626C47.6414 35.0257 47.5013 35.0666 47.3058 35.0761C46.0961 35.1387 44.8863 35.2031 43.6765 35.2601C43.3404 35.2753 43.121 35.3219 42.9753 35.4054C42.866 35.4685 42.7319 35.5001 42.5181 35.5115C41.3084 35.5722 40.0987 35.6384 38.8827 35.6918C38.5283 35.707 38.3457 35.7702 38.1999 35.8481C38.0845 35.9112 37.9503 35.9336 37.7242 35.945C35.5064 36.0551 33.2824 36.1651 31.0708 36.2863C30.6981 36.3071 30.5077 36.2425 30.2626 36.1965C29.9133 36.1321 29.5885 36.0621 29.5866 35.9176C29.5864 35.8954 29.4821 35.8696 29.4085 35.8512C28.8626 35.7129 28.8626 35.7129 28.7751 35.5649C28.7251 35.4742 28.6689 35.3817 28.6249 35.2891C28.5435 35.1374 28.3473 35.0987 27.7852 35.1271C27.5836 35.1366 27.382 35.1498 27.1804 35.1575C26.881 35.1708 26.654 35.11 26.5976 34.9989C26.5662 34.9378 26.5288 34.8768 26.4975 34.8157C26.803 34.8005 26.7968 34.7987 27.3319 34.5739C27.557 34.4792 27.5571 34.4792 27.1218 34.3853C26.9563 34.3503 26.7968 34.3116 26.6191 34.2784C26.5394 34.2637 26.4354 34.2546 26.3499 34.2584C25.8427 34.2812 25.3417 34.3078 24.8407 34.3343C24.0343 34.376 24.0342 34.376 23.2125 34.188C23.1451 34.1733 23.0408 34.1457 23.0529 34.1308C23.1192 34.0622 23.2839 34.0324 23.4917 34.0247C23.7972 34.0133 24.0965 33.9944 24.3959 33.9792C24.5976 33.9697 24.7992 33.9584 25.0008 33.9489C25.1894 33.8783 25.3843 33.8095 25.5607 33.7371C25.8405 33.6256 25.8404 33.6219 25.4542 33.5446C25.209 33.493 24.9456 33.447 24.6943 33.3992C24.3949 33.4144 24.0894 33.4314 23.79 33.4447C23.4112 33.4618 23.2579 33.4268 23.1586 33.3066C23.0716 33.2011 23.1744 33.1102 23.4676 33.0877C23.7669 33.0651 24.0481 33.0499 24.1997 32.9553C24.3453 32.8644 24.6016 32.8289 24.9194 32.8211C25.1211 32.8153 25.3226 32.8021 25.5243 32.7908C25.787 32.7756 25.9264 32.681 25.8701 32.5755C25.8386 32.507 25.7767 32.4497 25.5381 32.4351C24.4796 32.3716 24.4674 32.3734 23.94 32.2481C23.891 32.2371 23.8539 32.2038 23.8721 32.1871C23.9023 32.1593 23.969 32.1185 24.0423 32.1128C24.7449 32.0712 25.4475 32.0334 26.1502 32.0048C26.3824 31.9952 26.5534 31.982 26.632 31.9134C26.7409 31.8188 26.6909 31.7319 26.4761 31.6673C26.4086 31.647 26.2981 31.6212 26.2248 31.6232C25.4182 31.6574 24.6179 31.701 23.8113 31.7353C23.738 31.7391 23.6031 31.7078 23.5723 31.6837C23.5106 31.6394 23.6015 31.58 23.8152 31.5594C24.0961 31.5312 24.3834 31.529 24.5717 31.4362C24.8329 31.3044 25.1554 31.1837 25.4473 31.0574C25.4959 31.0351 25.5749 30.9924 25.5566 30.9887C25.4032 30.9481 25.2255 30.9169 25.066 30.8782C24.7962 30.8137 24.795 30.7229 24.855 30.6358C24.9031 30.5654 25.0861 30.5374 25.3123 30.5371C25.4101 30.537 25.5324 30.5369 25.6117 30.5201C25.819 30.4791 25.8856 30.4272 25.7812 30.3884C25.7198 30.3662 25.6094 30.3349 25.5361 30.3387C24.2286 30.4014 22.9148 30.4622 21.6135 30.5397C21.2286 30.5623 21.0506 30.4922 20.8176 30.4424C20.6398 30.4038 20.4745 30.3891 20.2548 30.4172C20.0472 30.4434 19.8453 30.4288 19.7162 30.3678C19.6116 30.318 19.7945 30.2752 20.2891 30.2264C20.3806 30.217 20.4845 30.2114 20.5515 30.1928C21.2581 29.9919 21.2581 29.99 21.7469 29.9635C22.2234 29.9389 22.2235 29.937 22.4728 29.8293C22.5883 29.7792 22.716 29.729 22.8254 29.677C22.8679 29.6566 22.9409 29.6195 22.9163 29.6084C22.7811 29.5512 22.5974 29.5384 22.3836 29.5516C21.9072 29.5837 21.3445 29.5584 21.096 29.7347C20.999 29.8015 20.8464 29.8202 20.6265 29.8315C18.4147 29.9416 16.2029 30.059 13.985 30.1654C13.6245 30.1825 13.4604 30.2512 13.3207 30.3273C13.1993 30.3904 13.065 30.4091 12.8328 30.4205C12.6006 30.4319 12.4172 30.4377 12.2819 30.3767C12.202 30.3398 12.2686 30.2878 12.4513 30.2357C12.7133 30.1613 12.6632 30.0688 12.5765 29.9819C12.5146 29.9245 12.3246 29.884 12.1229 29.888C11.8234 29.8957 11.5364 29.9164 11.2848 29.8427C11.1376 29.8002 10.9537 29.7708 10.7882 29.734C10.4693 29.6584 10.1504 29.581 9.70476 29.6315C9.39885 29.6134 9.18403 29.547 8.93883 29.4954C8.52814 29.4107 8.49129 29.3978 8.7836 29.3067C9.11245 29.2044 8.85394 29.0714 9.03609 28.9712C9.23036 28.8635 9.49826 28.7688 9.73543 28.6685C9.79624 28.6425 9.85098 28.6183 9.91179 28.5923C9.77071 28.5555 9.64176 28.5093 9.47636 28.4836C9.26197 28.4505 9.1514 28.4099 9.16218 28.2951C9.11917 28.2784 9.13792 28.321 9.18697 28.3321C9.24214 28.3431 9.37662 28.3337 9.44371 28.3207C9.61444 28.2853 9.69936 28.2389 9.65607 28.2C9.63136 28.1797 9.51496 28.1539 9.4416 28.154C9.3071 28.1541 9.19147 28.195 9.15606 28.2951C8.47229 28.3718 7.76346 28.4097 7.05465 28.4402C6.98134 28.444 6.88922 28.407 6.80339 28.3886C6.52137 28.326 6.52136 28.3278 5.69578 28.3103C5.61017 28.3085 5.49374 28.2828 5.45062 28.2569C5.2719 28.1441 5.27649 28.02 5.18938 27.8997C5.34735 27.8218 5.50522 27.7457 5.66933 27.6695C5.99752 27.5154 6.42386 27.3797 6.67851 27.2109C6.62234 27.1202 6.54781 27.0295 6.81588 26.9551C7.57891 26.8616 7.57285 26.8617 7.77959 26.7725C8.36943 26.5199 8.95309 26.2655 9.56743 26.0166C9.73168 25.9516 9.73126 25.9164 9.43746 25.889C9.34566 25.8817 9.24769 25.8799 9.14991 25.8838C8.8444 25.8971 8.53914 25.9308 8.23948 25.9237C7.93984 25.9185 7.71872 25.8373 7.47354 25.7876C7.22223 25.736 6.9709 25.6826 6.71957 25.6292C6.4323 25.6351 6.14566 25.6873 5.85727 25.6043C5.63636 25.5398 5.36068 25.4938 5.10934 25.4404C5.29709 25.2994 5.65037 25.1916 5.92392 25.0672C6.17315 24.9539 6.17915 24.9557 6.85055 24.8679C7.16794 24.8268 7.27535 24.6174 7.00558 24.5566C6.68062 24.4829 6.33746 24.4148 6.00644 24.3448C5.71917 24.3507 5.4264 24.401 5.15024 24.318C4.93546 24.2553 4.69033 24.213 4.33604 24.2375C3.73742 24.279 3.12633 24.3001 2.52151 24.3341C2.31378 24.3455 2.08742 24.3383 1.99492 24.2755C1.93322 24.2311 2.10976 24.1698 2.31134 24.1566C2.61679 24.1377 2.89159 24.1151 3.04326 24.0224C3.18882 23.9296 3.45744 23.9015 3.77518 23.8881C3.86073 23.8843 3.95834 23.862 4.00085 23.8397C4.21959 23.732 4.46298 23.6392 4.93378 23.6423C5.12894 23.605 5.23223 23.5586 5.17053 23.5142C5.13354 23.4902 5.00482 23.4589 4.93151 23.4627C4.42431 23.4818 3.91713 23.5009 3.42235 23.5348C3.19021 23.5499 3.01287 23.5538 2.86544 23.4984C2.76104 23.4615 2.81543 23.4115 3.01038 23.3575C3.18098 23.311 3.22926 23.2573 3.21624 23.1943C3.18382 23.048 2.99984 23.0057 2.41305 23.0156C1.9913 23.0235 1.88706 22.9996 1.79376 22.8737C1.76894 22.8441 1.70739 22.8035 1.74993 22.7831C2.01122 22.6568 2.18045 22.501 2.67491 22.4412C2.87026 22.4187 3.07804 22.4185 3.19971 22.3702C3.32137 22.3219 3.43077 22.2662 3.55857 22.2197C3.71682 22.164 3.82611 22.112 3.7523 22.0769C3.62923 22.0141 3.43359 22.0088 3.20766 22.0313C3.01226 22.05 2.80443 22.0521 2.60282 22.0635C2.24237 22.0843 1.94837 22.0365 1.90455 21.955C1.78567 21.7403 1.66067 21.5275 1.55403 21.3128C1.54147 21.2869 1.57154 21.2535 1.62016 21.2312C1.79036 21.1532 1.97291 21.0789 2.14924 21.0028C2.35601 20.9155 2.68641 20.9318 2.96743 20.9148C3.36451 20.8902 3.36439 20.8921 3.89403 20.7137C4.10101 20.643 4.46208 20.6704 4.67526 20.6072C4.74225 20.5867 4.84577 20.5533 4.82719 20.5348C4.80243 20.5107 4.67999 20.4923 4.58815 20.4813C4.50241 20.4703 4.39844 20.4649 4.3068 20.4706C3.1948 20.5256 2.08899 20.5843 0.97696 20.6375C0.787554 20.647 0.57917 20.6065 0.511194 20.5492C0.443266 20.4955 0.460728 20.4307 0.447728 20.3696C0.624064 20.2934 0.824847 20.2228 0.976658 20.1412C1.09202 20.0781 1.22619 20.0501 1.45847 20.0461C1.76408 20.0402 2.06339 20.0176 2.40555 20.0006C3.03795 19.7294 3.65792 19.4453 4.33923 19.1741C4.61296 19.0645 4.54441 18.9535 4.59796 18.8367C4.65163 18.7293 5.06143 18.7455 5.33614 18.7136C5.55591 18.6875 5.62843 18.6281 5.54232 18.5875C5.49311 18.5634 5.38277 18.5358 5.29718 18.5359C5.09543 18.5361 4.8939 18.553 4.69226 18.5625C4.49063 18.572 4.25825 18.5668 4.09358 18.5984C3.935 18.6283 3.83181 18.6913 3.72855 18.7452C3.61314 18.8046 3.46067 18.8251 3.2284 18.8291C2.92888 18.8332 2.62954 18.8502 2.33013 18.8635C1.99908 18.7917 1.65576 18.7217 1.33689 18.6462C1.27557 18.6314 1.26273 18.5889 1.2685 18.5611C1.27981 18.4888 1.18757 18.4445 0.985375 18.4095C0.813818 18.3801 0.672655 18.3377 0.513232 18.3008C0.634873 18.2507 0.768812 18.2024 0.865952 18.1485C1.0785 18.0353 1.3465 17.9535 1.81118 17.9567C1.99368 17.8842 2.13924 17.7952 2.37704 17.7449C2.60264 17.6964 2.98842 17.7441 3.15823 17.6347C3.24314 17.5808 3.37082 17.5196 3.53561 17.4972C3.79805 17.4617 4.14064 17.4798 4.29217 17.3759C4.38313 17.3165 4.5169 17.2626 4.69401 17.2476C4.89555 17.2307 5.10331 17.2268 5.24959 17.1914C5.32883 17.1728 5.41406 17.1431 5.41373 17.1171C5.41352 17.1005 5.29102 17.0747 5.20529 17.0637C5.12565 17.0508 5.02148 17.0417 4.92982 17.0455C4.62428 17.057 4.32497 17.0777 4.01943 17.0892C3.93389 17.093 3.83594 17.0801 3.74409 17.0691C3.47472 17.0398 3.49256 17.0027 3.70569 16.9358C3.91885 16.8707 4.07072 16.7872 4.24706 16.7111C4.44253 16.6979 4.68711 16.7031 4.82116 16.6678C5.04664 16.6101 5.2045 16.5266 5.387 16.4541C5.58861 16.4428 5.79641 16.4388 5.98568 16.4182C6.06506 16.4107 6.10126 16.3699 6.1682 16.3458C6.28989 16.2993 6.39306 16.2326 6.55785 16.2101C6.82643 16.1765 7.15672 16.189 7.31439 16.087C7.40535 16.0276 7.54511 15.9645 7.71625 15.9606C8.19302 15.9526 8.39349 15.8505 8.63681 15.7539C8.81931 15.6815 9.21106 15.718 9.4119 15.6456C9.54581 15.5991 9.64297 15.5416 9.77691 15.497C9.83169 15.4784 9.94769 15.469 10.0393 15.4633C10.5403 15.435 11.0475 15.414 11.5484 15.3837C11.6278 15.3781 11.7009 15.3502 11.7617 15.3279C11.8895 15.2796 11.9681 15.2129 12.1266 15.1812C12.2852 15.1495 12.5113 15.1493 12.7069 15.1398C13.3362 15.1112 13.3853 15.1186 13.6706 14.9608C13.9013 14.8328 14.4711 14.9228 14.6589 14.7819C14.7679 14.7002 14.9687 14.6333 15.3293 14.6236C15.8365 14.6101 16.3374 14.5743 16.8445 14.5496C17.2967 14.5268 17.2906 14.5268 17.7775 14.354C17.9966 14.276 18.3208 14.2867 18.608 14.2716C18.9135 14.2564 19.1944 14.2338 19.3399 14.1411C19.4855 14.0501 19.7541 14.0202 20.0657 14.0068C20.3529 13.9935 20.6771 14.0024 20.9024 13.9281C21.4504 13.7496 21.4442 13.7478 21.8292 13.7288C22.434 13.6984 23.0389 13.6681 23.6438 13.6359C24.047 13.615 24.4688 13.6108 24.8473 13.5696C25.122 13.5397 25.243 13.4358 25.4194 13.3634C25.9203 13.335 26.4213 13.3066 26.9223 13.2801C27.6249 13.2422 28.3336 13.208 29.0423 13.172C29.3471 13.1013 29.3881 12.9457 29.9015 12.9376C30.2071 12.9336 30.5064 12.9091 30.8119 12.894C31.319 12.8674 31.8199 12.8335 32.3272 12.8199C32.7122 12.8102 32.7781 12.7101 32.979 12.6469C33.046 12.6246 33.1068 12.593 33.1862 12.5874C33.9803 12.5346 34.7993 12.5225 35.5748 12.4457C35.6542 12.4382 35.7271 12.3992 35.7451 12.3714C35.7571 12.3565 35.6528 12.3289 35.5854 12.316C35.5058 12.3013 35.4017 12.2866 35.3161 12.2904C32.7928 12.4175 30.2695 12.5464 27.7461 12.6735C27.3918 12.6925 27.3918 12.6906 26.5323 12.8953C26.4591 12.9121 26.3737 12.9307 26.2821 12.9364C25.8788 12.9591 25.4694 12.9726 25.0724 13.0008C24.7486 13.0234 24.4794 13.0015 24.2463 12.9351C24.0806 12.8871 23.9091 12.8725 23.7013 12.8765C23.4691 12.8823 23.3166 12.9029 23.1827 12.953C23.0063 13.0218 22.9157 13.1108 22.543 13.1297C20.8261 13.2114 19.1091 13.3024 17.3984 13.3896C17.1596 13.3639 17.043 13.3252 17.1036 13.2788C17.1399 13.251 17.2128 13.2139 17.2861 13.2101C17.9887 13.1704 18.6974 13.1362 19.4 13.0983C19.4978 13.0926 19.6323 13.0962 19.6871 13.0776C19.9551 12.9939 20.0513 12.8586 20.5586 12.8487C20.852 12.8428 21.1511 12.8147 21.432 12.7884C21.5114 12.7809 21.5843 12.742 21.6023 12.7142C21.6082 12.6993 21.5101 12.6717 21.4365 12.6588C21.1669 12.6054 20.8559 12.6706 20.5865 12.6339C20.4946 12.621 20.3659 12.6027 20.3473 12.5805C20.3348 12.5601 20.4383 12.5266 20.5114 12.5062C20.5784 12.4876 20.6699 12.4708 20.7615 12.4651C21.568 12.4216 22.3745 12.3762 23.1811 12.3419C23.5111 12.3285 23.7428 12.2819 23.8884 12.1966C23.9977 12.1335 24.1317 12.1 24.3395 12.0905C25.7509 12.0203 27.1621 11.9427 28.5797 11.878C28.9341 11.8628 29.1168 11.8014 29.2625 11.7216C29.3779 11.6585 29.5121 11.6361 29.7382 11.6248C31.7606 11.5261 33.7706 11.4162 35.793 11.3212C36.1657 11.3041 36.2748 11.2244 36.4635 11.1556C36.5304 11.1315 36.5727 11.1018 36.6581 11.0869C36.7436 11.0719 36.8536 11.0736 36.9575 11.0698C38.5705 10.9883 40.1835 10.9012 41.8027 10.8252C42.1815 10.808 42.2536 10.7153 42.4484 10.6503C42.5154 10.6298 42.5762 10.5964 42.6556 10.5908C43.8653 10.5264 45.075 10.4657 46.2847 10.4031C47.0912 10.3614 47.8977 10.3197 48.7042 10.2799C49.1014 10.2609 49.1013 10.259 49.6371 10.0824C49.698 10.062 49.7834 10.0378 49.8628 10.0321C52.1845 9.91085 54.5 9.79514 56.8217 9.6757C57.0173 9.66621 57.1573 9.62342 57.2543 9.56034C57.3513 9.49726 57.4915 9.45449 57.681 9.44501C59.4955 9.35025 61.3101 9.25735 63.1308 9.16814C63.4608 9.15293 63.6925 9.1082 63.8382 9.02469C63.9474 8.96159 64.0815 8.9281 64.2892 8.91859C66.1039 8.82754 67.9185 8.73091 69.7393 8.64355C70.0876 8.62647 70.2579 8.56331 70.4281 8.48902C70.489 8.46302 70.5374 8.42037 70.6107 8.41658C71.5148 8.36364 72.4128 8.30886 73.3233 8.27259C73.7022 8.25733 73.8296 8.17939 73.9815 8.10512C74.103 8.04572 74.2434 8.02518 74.4757 8.0175C74.9829 8.00022 75.4838 7.96816 75.9786 7.93608C76.0519 7.93044 76.1431 7.88959 76.1489 7.86365C76.1605 7.81548 76.0194 7.78231 75.7869 7.76592C73.3674 7.88918 70.9419 8.01244 68.5224 8.1357C68.1253 8.15655 68.1252 8.15656 67.5895 8.33313C67.5286 8.35358 67.4432 8.37776 67.3577 8.38342C65.036 8.50286 62.7204 8.62044 60.3987 8.73988C60.2032 8.74937 60.0632 8.79214 59.9661 8.85522C59.8691 8.9183 59.7289 8.96107 59.5395 8.97055C57.3217 9.08431 55.1039 9.19993 52.8799 9.30814C52.5499 9.32335 52.3182 9.3662 52.1726 9.45157C52.0633 9.51467 51.9292 9.54818 51.7215 9.55768C49.6014 9.66392 47.4873 9.77569 45.3611 9.87823C45.1472 9.88775 44.9877 9.83423 44.9993 9.78421C45.005 9.75827 45.0961 9.71559 45.1694 9.7118C46.2752 9.64937 47.375 9.58508 48.4871 9.53746C48.8598 9.5222 48.9687 9.44058 49.1574 9.37183C49.2182 9.34768 49.2668 9.31614 49.3461 9.30308C49.4315 9.28816 49.5415 9.28989 49.6454 9.28606C52.2665 9.15145 54.8877 9.01499 57.5149 8.88778C57.8938 8.8688 57.9659 8.77796 58.1607 8.71291C58.2276 8.6906 58.2884 8.6572 58.3678 8.65341C59.1743 8.608 59.9808 8.56814 60.7873 8.52829C62.1986 8.45623 63.61 8.38417 65.0274 8.31211C65.4368 8.29125 65.4368 8.29124 65.9604 8.11653C66.0213 8.09608 66.1066 8.07007 66.186 8.06627C69.9191 7.87478 73.6522 7.68328 77.3853 7.49363C77.5808 7.48414 77.7209 7.44138 77.8179 7.37829C77.9149 7.31706 78.055 7.27245 78.2443 7.26111C83.291 7.00323 88.3316 6.74534 93.3783 6.49117C93.7083 6.47411 93.94 6.43493 94.0857 6.34772C94.1888 6.28463 94.329 6.25113 94.5367 6.23977C100.084 5.95722 105.632 5.67467 111.186 5.39026C114.919 5.20061 118.652 5.00726 122.385 4.82132C122.727 4.80425 122.91 4.74661 123.08 4.67047C123.135 4.64448 123.189 4.60181 123.263 4.59802C124.063 4.55077 124.863 4.50723 125.664 4.46368C125.915 4.51338 126.166 4.56125 126.418 4.61095C126.606 4.54035 126.789 4.4679 126.977 4.3973C128.187 4.34215 129.378 4.25739 130.601 4.23001C130.68 4.22806 130.766 4.26315 130.852 4.28157C131.422 4.39757 131.746 4.38792 132.105 4.23193C132.232 4.17621 132.342 4.12608 132.537 4.11659C133.142 4.08253 133.753 4.05958 134.352 4.01997C134.676 3.99922 134.945 4.01741 135.178 4.0838C135.344 4.13176 135.515 4.15194 135.717 4.14059C136.829 4.0837 137.935 4.02867 139.047 3.96808C139.126 3.96428 139.199 3.9327 139.26 3.91041C139.388 3.8621 139.497 3.81013 139.619 3.75998C139.784 3.79127 139.968 3.81513 140.103 3.85571C140.275 3.90366 140.433 3.90346 140.666 3.89022C145.101 3.66084 149.543 3.43702 153.979 3.2058C154.358 3.18683 154.524 3.26442 154.781 3.30486C154.867 3.31957 154.953 3.33798 155.044 3.34157C155.142 3.34516 155.246 3.33394 155.344 3.32826C158.674 3.15762 162.003 2.98881 165.333 2.81817C165.773 2.79542 165.773 2.79542 166.429 2.90947C166.509 2.92419 166.613 2.94073 166.698 2.93508C168.213 2.86104 169.729 2.78146 171.238 2.70559C171.433 2.69609 171.599 2.72552 171.777 2.76791C172.126 2.85083 172.15 2.85081 172.406 2.72827C172.527 2.67072 172.655 2.63536 172.857 2.61845C173.077 2.59967 173.254 2.60503 173.426 2.63817C173.671 2.68417 173.849 2.76173 174.222 2.74092C175.835 2.65195 177.454 2.5778 179.061 2.48699C179.427 2.46619 179.624 2.52892 179.869 2.57493C179.954 2.59149 180.034 2.61733 180.126 2.62277C180.218 2.62822 180.328 2.61511 180.425 2.60944C182.442 2.50703 184.464 2.40648 186.474 2.29668C186.853 2.27585 187.019 2.35528 187.276 2.39571C187.362 2.41043 187.46 2.43625 187.539 2.43245C188.749 2.3736 189.965 2.31102 191.175 2.24846C191.609 2.22572 191.609 2.22758 192.27 2.33976C192.35 2.35448 192.454 2.36918 192.54 2.36537C193.951 2.29516 195.369 2.2231 196.78 2.15104C197.214 2.1283 197.214 2.12831 198.468 2.22312C198.56 2.23042 198.658 2.24143 198.75 2.23761C200.363 2.15606 201.982 2.07633 203.595 1.98922C203.918 1.97217 204.188 1.98666 204.421 2.05305C204.587 2.10101 204.758 2.12119 204.96 2.10984C206.774 2.01693 208.595 1.92772 210.403 1.82926C210.752 1.81033 210.978 1.85078 211.224 1.9042C211.303 1.92263 211.383 1.94846 211.475 1.95576C211.567 1.96306 211.671 1.95552 211.768 1.94985C213.583 1.85694 215.404 1.76959 217.212 1.66928C217.579 1.64847 217.775 1.7112 218.02 1.75721C218.106 1.77377 218.198 1.807 218.271 1.80506C218.98 1.77274 219.689 1.74412 220.391 1.69698C220.77 1.67061 220.936 1.75558 221.194 1.79602C221.279 1.80888 221.378 1.83656 221.457 1.83276C222.972 1.75873 224.488 1.681 225.997 1.60142C226.211 1.59005 226.37 1.60652 226.541 1.65446C226.768 1.71901 227.032 1.74463 227.362 1.72386C228.064 1.68043 228.773 1.64996 229.482 1.61393C229.897 1.59306 229.897 1.59307 231.17 1.68786C231.262 1.69516 231.36 1.70615 231.451 1.70233C232.661 1.64163 233.877 1.58277 235.081 1.51652C235.404 1.49761 235.674 1.51396 235.907 1.58035C236.072 1.62831 236.238 1.64849 236.445 1.63713C237.557 1.58025 238.663 1.52337 239.775 1.46648C240.179 1.44563 240.582 1.40995 240.985 1.40947C241.279 1.41098 241.494 1.49961 241.757 1.54375C241.831 1.55662 241.953 1.54168 242.051 1.53786C243.462 1.4658 244.879 1.39929 246.285 1.31798C246.651 1.29717 246.848 1.3599 247.093 1.40591C247.178 1.42248 247.271 1.4557 247.344 1.45376C247.851 1.43279 248.352 1.40441 248.859 1.37973C249.464 1.34938 250.075 1.32643 250.674 1.28497C251.162 1.25105 251.348 1.41195 251.739 1.41704C252.039 1.42224 252.344 1.3904 252.643 1.37522C253.248 1.34487 253.853 1.31082 254.458 1.28417C254.672 1.27466 254.837 1.24482 254.903 1.17806C254.915 1.16509 254.811 1.13744 254.743 1.12085C253.928 0.932921 253.928 0.932912 253.109 0.97463C252.602 1.00116 252.101 1.02769 251.594 1.05052C251.508 1.05432 251.41 1.03963 251.325 1.02862C251.08 0.997424 251.104 0.960359 251.311 0.893441C251.518 0.826522 251.676 0.744853 251.852 0.668711C252.103 0.716564 252.349 0.764407 252.6 0.81226C252.801 0.80276 253.003 0.791424 253.205 0.781924C254.213 0.732572 255.221 0.681364 256.229 0.635715C256.302 0.631924 256.395 0.66886 256.48 0.687278C256.726 0.740694 256.946 0.786718 257.301 0.765924C258.205 0.71114 259.115 0.671164 260.019 0.623787C260.417 0.602942 260.417 0.602944 261.115 0.716937C261.195 0.729806 261.299 0.744499 261.384 0.740693C262.295 0.697013 263.199 0.649642 264.109 0.60411C264.305 0.594617 264.495 0.618466 264.636 0.672006C264.691 0.694164 264.679 0.731211 264.916 1.03466C265.64 1.28011 266.135 1.25361 266.636 1.23079C266.85 1.22127 267.039 1.21178 267.179 1.17457C267.252 1.15411 267.344 1.12437 267.344 1.10029C267.343 1.08177 267.209 1.05229 267.123 1.04869C266.517 1.01237 265.943 1.09085 265.351 1.10822C265.076 1.11596 264.836 1.05142 264.786 0.94592C264.773 0.916303 264.755 0.884843 264.736 0.855233C264.717 0.825624 264.705 0.794156 264.686 0.764546C264.447 0.75557 264.307 0.789068 264.204 0.852159C264.119 0.904116 263.998 0.963525 263.833 0.991501C263.668 1.02133 263.442 1.01605 263.24 1.02555C263.045 1.03505 262.831 1.05937 262.648 1.04663C262.464 1.03203 262.317 0.978489 262.145 0.945357C262.065 0.928784 261.967 0.904834 261.888 0.908632C261.185 0.940953 260.489 0.973254 259.792 1.01483C259.426 1.03749 259.241 0.959935 259.008 0.91206C258.824 0.875239 258.641 0.884706 258.611 0.969933C258.535 1.17374 258.817 1.2586 259.44 1.21896C259.953 1.18502 260.418 1.17892 260.823 1.30438C260.878 1.32098 261.006 1.32823 261.086 1.32443C261.587 1.30161 262.082 1.27324 262.583 1.25042C262.674 1.24661 262.772 1.25389 262.858 1.26119C264.107 1.35971 264.107 1.36158 264.528 1.33885C264.73 1.3275 264.925 1.318 264.903 1.03653C265.285 0.734196 265.896 0.7131 266.488 0.667947C266.873 0.639709 267.039 0.721003 267.29 0.7633C267.376 0.778013 267.468 0.80753 267.548 0.803732C268.861 0.741052 270.169 0.674666 271.476 0.604585C271.696 0.593211 271.855 0.604136 272.027 0.652083C272.248 0.712936 272.493 0.751545 272.841 0.728906C273.538 0.683629 274.246 0.655011 274.955 0.617127C275.316 0.598178 275.316 0.598159 276.045 0.712115C276.124 0.724985 276.228 0.739678 276.314 0.735872C277.023 0.703544 277.725 0.663827 278.428 0.629654C278.623 0.620162 278.801 0.645875 278.954 0.695697C279.108 0.745518 279.292 0.771225 279.481 0.761739C280.19 0.727559 280.892 0.689694 281.595 0.655522C281.681 0.651716 281.785 0.664555 281.864 0.677424C282.612 0.791359 282.612 0.79134 282.954 0.772412C283.455 0.744036 283.968 0.730475 284.463 0.692846C284.945 0.655231 285.197 0.762338 285.528 0.821209C286.433 0.777536 287.343 0.741273 288.241 0.688348C288.608 0.665687 288.804 0.726564 289.049 0.774424C289.135 0.79099 289.221 0.826079 289.301 0.824133C289.606 0.816361 289.906 0.795636 290.205 0.780463C290.504 0.765291 290.81 0.750113 291.109 0.734941C291.452 0.78824 291.68 0.913903 292.169 0.870726C292.462 0.844449 292.773 0.838521 293.073 0.823349C293.372 0.808176 293.678 0.792999 293.977 0.777826C294.179 0.768326 294.386 0.762515 294.582 0.745614C294.942 0.717405 295.121 0.807951 295.378 0.848389C295.464 0.861251 295.562 0.883344 295.641 0.879545C296.246 0.852897 296.857 0.829947 297.45 0.786646C297.908 0.752764 298.22 0.807959 298.545 0.885356C298.613 0.901944 298.729 0.911065 298.815 0.907259C299.523 0.874931 300.226 0.835192 300.929 0.801019C301.118 0.791534 301.302 0.820946 301.455 0.868915C301.615 0.918729 301.792 0.942612 301.988 0.933119C302.691 0.898947 303.399 0.861052 304.102 0.826879C304.188 0.823073 304.292 0.837768 304.371 0.852489C305.057 0.966496 305.058 0.96835 305.461 0.945646C305.558 0.939974 305.662 0.936131 305.76 0.930459C306.261 0.903935 306.781 0.894069 307.269 0.849039C307.831 0.798366 308.241 0.860848 308.64 0.965938C309.141 0.943117 309.654 0.929539 310.143 0.891917C310.51 0.863701 310.706 0.933839 310.951 0.979848C311.037 0.996413 311.129 1.02964 311.202 1.02585C311.911 0.993521 312.62 0.964907 313.316 0.917777C313.695 0.891399 313.861 0.974525 314.119 1.01682C314.204 1.03153 314.296 1.05736 314.376 1.05356C314.779 1.03827 315.182 1.01555 315.586 0.994699C316.056 0.970063 316.056 0.971913 316.681 1.08414C316.975 1.1375 317.268 1.09455 317.555 1.08125C317.861 1.06607 318.148 1.05462 318.394 1.13026C318.547 1.17823 318.731 1.20764 318.92 1.20001C319.324 1.18286 319.733 1.16571 320.13 1.13746C320.448 1.11486 320.723 1.12934 320.956 1.19758C321.122 1.24554 321.293 1.26942 321.495 1.25807C322.399 1.21255 323.309 1.16515 324.214 1.12147C324.293 1.11767 324.403 1.13422 324.477 1.1508C324.649 1.18393 324.814 1.22076 324.98 1.25761C325.377 1.24047 325.786 1.23259 326.177 1.2062C326.593 1.17977 326.972 1.17006 327.297 1.27153C327.364 1.29368 327.463 1.32503 327.542 1.32308C327.848 1.31531 328.147 1.29644 328.446 1.28126C328.746 1.26609 329.051 1.25091 329.351 1.23574C329.7 1.28163 329.922 1.4147 330.41 1.37153C330.703 1.34525 331.015 1.33932 331.314 1.32415C331.614 1.30898 331.919 1.29195 332.219 1.27863C332.316 1.27481 332.426 1.26541 332.512 1.27272C332.604 1.28001 332.684 1.30585 332.763 1.32428C333.008 1.37769 333.235 1.43114 333.583 1.39924C333.877 1.37296 334.188 1.36703 334.488 1.35001C334.897 1.32915 334.897 1.32915 335.577 1.44502C335.853 1.49284 336.164 1.42951 336.427 1.46994C336.605 1.49751 336.758 1.54361 336.93 1.57489C337.003 1.58777 337.12 1.59318 337.205 1.58937C337.608 1.57223 338.018 1.55508 338.415 1.52683C338.739 1.50422 339.008 1.52612 339.235 1.59252C339.401 1.64047 339.566 1.66066 339.774 1.6493C340.782 1.59624 341.79 1.55058 342.792 1.49198C343.134 1.4712 343.409 1.50236 343.6 1.56881C343.925 1.68324 344.382 1.54751 344.72 1.6397C344.928 1.69687 345.137 1.7633 345.516 1.73506C346.212 1.68608 346.921 1.6593 347.623 1.62512C347.875 1.67483 348.126 1.72455 348.383 1.77424C348.787 1.75339 349.19 1.73253 349.593 1.71353C349.893 1.69835 350.198 1.68132 350.497 1.668C350.595 1.66418 350.699 1.65665 350.791 1.6658C350.883 1.67495 350.956 1.69894 351.042 1.71736C351.465 1.80761 351.465 1.80947 352.162 1.7716C352.461 1.75457 352.748 1.74312 353 1.8169C353.233 1.88515 353.508 1.89777 353.826 1.87702C354.425 1.83927 355.03 1.81077 355.641 1.78412C355.83 1.77463 356.008 1.80591 356.167 1.85387C356.407 1.92951 356.7 1.92176 356.999 1.90103C357.396 1.87463 357.787 1.84824 358.125 1.95155C358.192 1.9737 358.297 2.00504 358.37 2.0031C358.871 1.98769 359.378 1.97598 359.867 1.94021C360.356 1.90444 360.596 2.01897 360.933 2.07413C361.434 2.04946 361.941 2.02478 362.442 2.00011C362.539 1.99443 362.655 1.97764 362.741 1.98679C363.102 2.02526 363.312 2.1639 363.807 2.12072C364.094 2.0963 364.405 2.08853 364.705 2.08262C364.784 2.08067 364.889 2.11202 364.944 2.13603C364.975 2.14895 364.945 2.18417 364.908 2.20274C364.799 2.25472 364.665 2.30305 364.568 2.35687C364.556 2.3643 364.672 2.39748 364.74 2.41222C364.905 2.44535 365.094 2.43959 365.314 2.42451C365.504 2.41132 365.7 2.43701 365.835 2.49241C365.89 2.51457 365.872 2.55163 365.758 2.674C365.759 2.76474 365.887 2.72384 365.929 2.66452C365.995 2.57925 365.866 2.55163 365.622 2.59822C365.452 2.63176 365.367 2.68002 365.41 2.71886C365.435 2.7392 365.551 2.76499 365.758 2.674C366.294 2.56224 366.698 2.54139 367.101 2.52054C367.205 2.51486 367.327 2.49618 367.4 2.50721C367.664 2.55134 367.909 2.60477 368.166 2.65447C368.46 2.64301 368.734 2.61489 369.023 2.68677C369.427 2.78815 369.446 2.77887 369.837 2.75803C370.038 2.74668 370.24 2.7372 370.442 2.7277C370.643 2.7182 370.802 2.74578 370.98 2.78816C371.342 2.87478 371.373 2.87473 371.61 2.75592C371.749 2.68353 371.847 2.65934 372.025 2.69247C372.613 2.80474 372.619 2.81213 373.12 2.7782C373.535 2.74993 373.927 2.74205 374.234 2.84725C374.442 2.92108 374.509 2.90434 374.673 2.82636C375.111 2.62026 375.313 2.62372 376.14 2.7709C376.526 2.84081 376.923 2.76442 377.314 2.75469C377.644 2.74689 377.877 2.79105 377.903 2.9077C377.922 2.9799 377.978 3.0317 378.198 3.05552C378.284 3.06467 378.388 3.07751 378.473 3.0737C378.98 3.05088 379.481 3.02435 379.988 2.99781C380.245 2.98455 380.385 2.89735 380.334 2.78259C380.278 2.66042 380.375 2.61584 380.741 2.58022C380.961 2.55958 381.139 2.56309 381.316 2.59622C381.512 2.63302 381.458 2.66642 381.287 2.7333C380.88 2.89676 380.93 2.99669 381.457 3.10904C381.641 3.14771 381.788 3.18274 381.832 3.2401C381.857 3.2697 381.833 3.30862 381.888 3.33078C382.189 3.4545 382.606 3.53365 383.071 3.59236C383.517 3.54183 383.824 3.62478 384.167 3.69105C384.436 3.74258 384.754 3.69777 385.041 3.67891C385.365 3.65815 385.634 3.67264 385.867 3.74089C386.033 3.78884 386.204 3.81085 386.406 3.80135C386.809 3.7805 387.218 3.76705 387.615 3.73695C387.958 3.71061 388.215 3.74735 388.43 3.81007C388.7 3.88938 388.999 3.83531 389.28 3.84608C389.659 3.8586 389.851 4.02319 390.345 3.97815C390.638 3.95188 390.944 3.94226 391.25 3.93448C391.329 3.93254 391.427 3.96391 391.495 3.98605C391.82 4.08753 392.199 4.08152 392.614 4.05139C392.902 4.03068 393.182 4.01183 393.465 4.08187C393.931 4.19984 394.446 4.30295 394.936 4.41163C395.004 4.49674 394.957 4.59679 395.306 4.64638C395.49 4.67209 395.661 4.71079 395.802 4.75322C395.974 4.80302 396.133 4.8158 396.353 4.80257C396.75 4.77617 397.166 4.7701 397.557 4.7363C397.917 4.70624 398.144 4.7671 398.365 4.82425C398.543 4.87034 398.708 4.89236 398.922 4.85877C399.142 4.82702 399.301 4.8472 399.479 4.89699C399.73 4.96521 399.748 4.95779 400.58 4.97718C400.666 4.97893 400.77 5.00657 400.819 5.03058C400.844 5.04352 400.789 5.08065 400.747 5.09922C400.692 5.12151 400.607 5.14752 400.527 5.15317C399.623 5.2024 398.713 5.24608 397.809 5.29531C397.717 5.30097 397.619 5.31407 397.552 5.33267C397.479 5.35313 397.388 5.381 397.388 5.40692C397.388 5.42544 397.511 5.44753 397.597 5.46039C397.866 5.50267 398.183 5.43747 398.447 5.48531C398.624 5.51658 398.772 5.56084 398.949 5.59027C399.023 5.60314 399.139 5.60116 399.231 5.59735C399.536 5.58402 399.836 5.56515 400.141 5.55367C400.227 5.55172 400.325 5.57013 400.404 5.58485C400.993 5.69527 400.993 5.69526 401.5 5.67058C401.701 5.66108 401.915 5.63305 402.105 5.64393C402.288 5.65482 402.448 5.70464 402.613 5.73593C402.957 5.80219 403.281 5.86662 403.308 6.01105C403.321 6.06659 403.523 6.11449 403.725 6.11796C403.92 6.12143 404.128 6.10083 404.33 6.08948C404.806 6.06668 404.806 6.06668 405.425 6.17892C405.597 6.2102 405.78 6.21368 406 6.19489C406.085 6.18738 406.19 6.19468 406.281 6.20383C406.581 6.23125 406.582 6.26643 406.387 6.33333C406.113 6.43182 406.138 6.44105 406.909 6.52347C407.203 6.55461 407.43 6.61361 407.675 6.66517C408.073 6.74804 408.067 6.74803 407.806 6.85761C407.745 6.88175 407.69 6.90775 407.63 6.93375C407.453 7.00619 407.313 7.08414 406.947 7.09198C406.543 7.09987 406.14 7.12999 405.737 7.15085C405.346 7.17168 405.243 7.21624 405.281 7.34213C405.326 7.49394 405.405 7.51052 406.108 7.50783C406.31 7.50759 406.487 7.52219 406.641 7.57201C406.568 7.63136 406.434 7.67782 406.239 7.68916C405.738 7.71754 405.231 7.74223 404.73 7.7669C404.327 7.78775 403.923 7.8086 403.52 7.82945C403.27 7.84271 403.112 7.93921 403.181 8.04655C403.218 8.10762 403.249 8.16869 403.281 8.22977C403.349 8.35192 403.478 8.38326 403.888 8.37722C403.992 8.37524 404.089 8.3603 404.187 8.36389C404.585 8.37638 404.776 8.52986 405.253 8.49781C405.65 8.47141 406.065 8.46536 406.456 8.43156C406.817 8.4015 407.019 8.46795 407.27 8.51765C407.356 8.53422 407.448 8.56928 407.522 8.56734C408.029 8.54636 408.536 8.5254 409.031 8.48963C409.263 8.47453 409.404 8.48547 409.588 8.5297C410.029 8.63659 410.041 8.63102 410.695 8.59691C411.172 8.57041 411.178 8.57411 411.791 8.68635C411.962 8.71763 412.146 8.7174 412.366 8.70233C412.653 8.68346 412.952 8.65348 413.252 8.6809C413.344 8.6882 413.46 8.71029 413.491 8.73433C413.509 8.75098 413.424 8.79182 413.351 8.80488C412.814 8.90182 412.184 8.8859 411.598 8.92549C411.415 8.93682 411.231 8.90185 411.077 8.85203C410.918 8.80221 410.746 8.78205 410.539 8.79156C410.135 8.81241 409.726 8.82586 409.329 8.85596C408.987 8.8823 408.748 8.83998 408.509 8.78286C408.429 8.76443 408.337 8.72935 408.257 8.73129C407.353 8.76941 406.443 8.80754 405.545 8.86047C405.184 8.88312 404.976 8.82411 404.73 8.7744C404.645 8.75783 404.559 8.72275 404.479 8.72469C404.174 8.73246 403.874 8.75319 403.569 8.76837C402.457 8.82525 401.351 8.88213 400.239 8.93531C400.165 8.9391 400.073 8.90031 399.988 8.88375C399.822 8.85061 399.65 8.81933 399.479 8.78805C399.173 8.80323 398.874 8.8221 398.568 8.83358C398.348 8.84125 398.153 8.86742 398.123 8.93783C398.106 8.98415 398.308 9.0265 398.522 9.02254C398.73 9.01859 398.937 8.99611 399.109 9.01999C399.96 9.1375 399.96 9.13936 400.492 9.11465C400.956 9.09187 400.907 9.0734 401.318 9.17477C401.496 9.21901 401.655 9.24476 401.857 9.23341C402.358 9.20688 402.865 9.18035 403.372 9.15752C403.451 9.15372 403.555 9.17212 403.635 9.18684C404.236 9.29725 404.236 9.30095 404.731 9.27258C405.378 9.23847 405.403 9.22918 405.838 9.34164C406.139 9.41906 406.413 9.36502 406.7 9.36098C407.031 9.43281 407.393 9.49721 407.694 9.57834C408.049 9.67422 408.422 9.65709 408.825 9.62883C409.124 9.60811 409.418 9.60035 409.663 9.67599C409.897 9.74609 410.178 9.75317 410.495 9.73428C410.783 9.71727 411.076 9.68172 411.376 9.7221C411.455 9.73312 411.578 9.76077 411.572 9.77744C411.566 9.80338 411.487 9.84051 411.408 9.85172C410.846 9.92832 410.229 9.9272 409.636 9.96309C409.557 9.96874 409.453 9.94849 409.373 9.93377C409.202 9.90063 409.036 9.86195 408.87 9.82696C408.571 9.83843 408.265 9.84248 407.972 9.86506C407.746 9.88199 407.575 9.88036 407.409 9.83611C407.256 9.79555 407.09 9.74573 406.907 9.73299C406.723 9.72024 406.51 9.74828 406.308 9.75963C406.106 9.77098 405.874 9.76569 405.715 9.79551C405.557 9.82533 405.46 9.89028 405.357 9.94226C405.241 9.99981 405.082 10.0185 404.85 10.0244C404.636 10.0302 404.465 10.023 404.305 9.97129C404.238 9.94915 404.146 9.93258 404.054 9.91788C403.968 9.90501 403.87 9.88475 403.791 9.88855C402.88 9.93223 401.976 9.97963 401.066 10.0252C400.614 10.0479 400.62 10.0479 399.677 9.93975C399.591 9.93059 399.487 9.91776 399.402 9.92156C398.894 9.94439 398.393 9.97092 397.886 9.99745C397.373 10.024 397.379 10.0203 396.503 9.90464C396.344 9.88261 396.112 9.91252 395.923 9.90904C395.525 9.90026 395.328 9.74493 394.863 9.77511C394.466 9.80151 394.05 9.80756 393.654 9.84137C393.293 9.87143 393.085 9.80686 392.839 9.75715C392.754 9.74059 392.661 9.70365 392.588 9.70744C391.678 9.74927 390.773 9.79665 389.563 9.80365C389.263 9.804 389.398 9.84274 389.594 9.85547C389.876 9.87551 389.967 9.8365 389.813 9.76261C389.703 9.71088 389.543 9.68513 389.415 9.69824C389.348 9.70573 389.263 9.74103 389.563 9.80365C389.882 9.87364 389.864 9.91255 389.919 9.93471C390.054 9.98825 390.244 10.0102 390.44 10.0026C390.745 9.98928 391.045 9.97041 391.35 9.95893C391.436 9.95513 391.54 9.96797 391.62 9.98269C392.293 10.0967 392.3 10.1041 393.014 10.0588C393.24 10.0456 393.405 10.0454 393.583 10.0804C393.828 10.1282 394.007 10.2095 394.379 10.1831C394.874 10.1473 395.381 10.1264 395.888 10.1054C395.968 10.1016 396.054 10.1348 396.146 10.1495C396.397 10.1937 396.581 10.2768 396.954 10.2412C397.241 10.2131 397.553 10.2053 397.858 10.1993C397.938 10.1974 398.06 10.2269 398.097 10.2509C398.171 10.2934 398.08 10.3436 397.873 10.379C397.787 10.3939 397.671 10.3903 397.573 10.396C397.17 10.4169 396.767 10.4396 396.364 10.4567C396.15 10.4662 395.948 10.4942 395.925 10.5628C395.907 10.6091 396.128 10.6496 396.335 10.6456C396.641 10.6397 396.947 10.6245 397.24 10.6001C397.759 10.5588 398.211 10.5693 398.635 10.6855C398.935 10.7666 398.917 10.737 399.238 10.9774C399.318 11.0384 399.556 11.0437 399.764 11.0397C400.265 11.0299 400.498 11.0574 400.456 11.1149C400.402 11.1853 400.225 11.2077 399.999 11.2173C399.595 11.2325 399.192 11.2571 398.789 11.278C398.691 11.2836 398.581 11.2949 398.49 11.2913C398.398 11.2877 398.312 11.2656 398.232 11.249C398.061 11.214 397.913 11.1605 397.73 11.1477C397.546 11.135 397.332 11.163 397.131 11.1744C396.929 11.1839 396.716 11.2119 396.532 11.1992C396.348 11.1864 396.195 11.131 396.029 11.0979C395.95 11.0813 395.852 11.0555 395.772 11.0575C395.369 11.0727 394.966 11.0973 394.562 11.1163C394.067 11.141 394.067 11.141 393.467 11.0269C393.295 10.9937 393.118 10.9958 392.892 11.0109C392.403 11.0411 392.397 11.0355 391.503 10.9292C391.417 10.9182 391.313 10.9054 391.228 10.911C390.317 10.9547 389.413 11.0021 388.509 11.0476C387.733 11.0874 387.733 11.0874 387.307 11.2731C386.991 11.4105 386.985 11.4105 387.298 11.4731C387.549 11.5247 387.776 11.6004 388.051 11.6278C388.309 11.6534 388.626 11.5697 388.908 11.6546C389.049 11.697 389.233 11.7431 389.41 11.7503C389.692 11.7592 389.991 11.7051 390.261 11.7863C390.396 11.8269 390.598 11.8693 390.769 11.8709C391.069 11.8742 391.374 11.8442 391.673 11.8309C391.765 11.8271 391.869 11.827 391.955 11.8361C392.047 11.8471 392.126 11.8693 392.206 11.8877C392.451 11.9504 392.715 11.9797 393.032 11.9478C393.551 11.8954 394.016 11.9207 394.421 12.0388C394.476 12.0554 394.611 12.0571 394.696 12.0496C394.916 12.0308 395.106 12.0287 395.271 12.0637C395.339 12.0784 395.437 12.1042 395.425 12.1209C395.407 12.1487 395.334 12.1858 395.255 12.1952C394.681 12.2589 394.063 12.267 393.471 12.301C393.391 12.3048 393.293 12.2809 393.214 12.2643C393.042 12.2312 392.894 12.1758 392.711 12.1631C392.527 12.1503 392.314 12.1746 392.112 12.1841C391.91 12.1936 391.697 12.2217 391.513 12.2108C391.33 12.198 391.158 12.1519 391.011 12.1114C390.839 12.0653 390.674 12.0599 390.448 12.0787C390.155 12.1031 389.849 12.1072 389.55 12.1205C389.384 12.0855 389.218 12.0468 389.047 12.0137C388.967 11.9971 388.869 11.9769 388.784 11.9788C388.38 11.9941 387.977 12.0168 387.574 12.0377C387.17 12.0585 387.171 12.0585 386.484 11.9445C386.405 11.9317 386.3 11.917 386.215 11.9208C385.708 11.9436 385.207 11.972 384.7 11.9948C384.504 12.0043 384.327 11.9786 384.167 11.9287C384.014 11.8789 383.83 11.8514 383.64 11.8609C382.834 11.9007 382.027 11.9387 381.221 11.986C380.897 12.0049 380.622 11.9885 380.401 11.9221C380.143 11.8465 379.856 11.8654 379.557 11.8805C378.879 11.9184 378.872 11.9165 378.437 11.8226C378.351 11.8042 378.265 11.7691 378.186 11.771C377.483 11.7997 376.774 11.8264 376.078 11.8717C375.711 11.8962 375.515 11.8316 375.27 11.7838C375.184 11.7672 375.092 11.7321 375.018 11.7359C374.511 11.7569 374.004 11.776 373.509 11.8137C373.015 11.8513 372.823 11.6793 372.45 11.6816C371.943 11.684 371.442 11.7272 370.941 11.7538C370.538 11.7746 370.134 11.7955 369.731 11.8163C369.328 11.8372 368.925 11.8543 368.521 11.8789C368.308 11.8921 368.148 11.8756 367.971 11.8295C367.744 11.7687 367.474 11.7208 367.229 11.6656C366.855 11.5864 366.855 11.5864 366.403 11.6091C366.305 11.6148 366.201 11.6186 366.103 11.6243C365.364 11.6659 365.364 11.6622 364.421 11.5467C364.378 11.5412 364.268 11.5617 364.226 11.5766C364.098 11.6249 363.982 11.6768 363.867 11.727C363.702 11.6975 363.5 11.6811 363.389 11.6387C363.076 11.5186 362.589 11.6841 362.269 11.5659C362.152 11.5216 361.95 11.4829 361.767 11.472C361.577 11.4612 361.363 11.4873 361.168 11.4987C360.661 11.5271 360.661 11.5252 360.229 11.6906C360.01 11.7723 359.692 11.7579 359.405 11.7767C359.105 11.7975 358.818 11.8089 358.566 11.7333C358.339 11.665 358.064 11.6487 357.74 11.6713C357.343 11.6996 356.934 11.7167 356.531 11.7339C356.445 11.7377 356.341 11.7285 356.255 11.7175C355.318 11.6094 355.318 11.6075 354.866 11.6321C354.665 11.6435 354.457 11.6474 354.261 11.6643C353.932 11.6944 353.681 11.6558 353.441 11.5968C353.362 11.5784 353.269 11.5433 353.19 11.5452C352.787 11.555 352.389 11.5721 351.992 11.5893C351.687 11.6026 351.381 11.6104 351.088 11.6366C350.599 11.6798 350.36 11.5597 350.023 11.5045C349.522 11.5292 349.014 11.5465 348.513 11.5804C348.281 11.5955 348.128 11.5902 347.951 11.5459C347.724 11.4906 347.515 11.4279 347.149 11.4561C346.66 11.4938 346.147 11.5073 345.646 11.5301C345.309 11.4731 345.063 11.3567 344.58 11.3999C344.287 11.4262 343.975 11.4321 343.676 11.4473C343.273 11.4681 342.869 11.4872 342.466 11.5099C342.032 11.5326 342.038 11.527 341.371 11.4186C340.985 11.3542 340.588 11.4269 340.197 11.4385C339.891 11.4481 339.74 11.5335 339.814 11.6426C339.889 11.7518 339.725 11.8372 339.444 11.8524C338.741 11.8884 338.033 11.9263 337.33 11.9586C337.245 11.9624 337.14 11.9495 337.061 11.9367C336.307 11.8209 336.307 11.8228 335.971 11.8398C335.47 11.8682 334.957 11.8836 334.462 11.9194C334.12 11.9439 333.869 11.9053 333.648 11.8426C333.476 11.7947 333.317 11.7837 333.097 11.7951C330.678 11.9221 328.258 12.0398 325.845 12.1704C325.485 12.1894 325.276 12.1359 325.031 12.0862C324.945 12.0697 324.865 12.0346 324.78 12.0347C324.578 12.0349 324.376 12.0518 324.175 12.0632C323.27 12.1087 322.366 12.1635 321.456 12.1979C321.071 12.2132 320.968 12.2985 320.804 12.3691C320.676 12.4229 320.53 12.4453 320.304 12.453C320.084 12.4606 319.924 12.4516 319.753 12.4036C319.532 12.3409 319.281 12.3023 318.939 12.3287C318.542 12.3588 318.138 12.3722 317.729 12.3931C317.521 12.4026 317.363 12.4361 317.296 12.5029C317.284 12.514 317.413 12.5416 317.486 12.5582C317.732 12.6135 317.965 12.678 318.24 12.7166C318.522 12.7551 318.827 12.7103 319.12 12.6988C319.224 12.695 319.322 12.6838 319.42 12.6855C319.512 12.6873 319.622 12.6964 319.689 12.713C320.008 12.796 320.345 12.853 320.785 12.8024C321.164 12.8261 321.362 12.9795 321.844 12.9382C322.137 12.9138 322.443 12.9023 322.749 12.8927C322.828 12.8908 322.914 12.924 323 12.9406C323.245 12.9866 323.441 13.0604 323.808 13.0285C324.199 12.9947 324.614 12.9886 325.011 12.9622C325.231 12.9472 325.39 12.9599 325.562 13.0079C325.783 13.0687 326.034 13.1147 326.376 13.0847C326.669 13.0584 326.981 13.0525 327.281 13.0354C327.672 13.0146 327.672 13.0165 328.37 13.1305C328.45 13.1433 328.554 13.158 328.639 13.1542C329.146 13.1314 329.647 13.103 330.155 13.0802C330.35 13.0707 330.54 13.0945 330.675 13.1481C330.73 13.1702 330.712 13.2073 330.731 13.2388C329.723 13.29 328.715 13.3338 327.713 13.3961C327.334 13.4206 327.162 13.3449 326.911 13.3026C326.825 13.2879 326.733 13.2565 326.654 13.2603C325.945 13.2926 325.242 13.3268 324.54 13.3684C324.32 13.3816 324.155 13.3744 323.989 13.3209C323.565 13.1788 323.053 13.2572 322.576 13.2781C322.209 13.2934 322.094 13.3509 322.138 13.4731C322.195 13.6175 322.416 13.6617 322.978 13.6351C323.18 13.6256 323.381 13.6124 323.583 13.6047C323.778 13.5971 323.956 13.6209 324.116 13.6708C324.269 13.7206 324.453 13.7463 324.642 13.7387C325.045 13.7215 325.455 13.7044 325.846 13.6761C326.169 13.6535 326.439 13.6717 326.666 13.7399C326.917 13.8156 327.211 13.7986 327.504 13.7815C328.188 13.7437 328.194 13.7455 328.623 13.8376C328.709 13.8561 328.795 13.8911 328.875 13.8892C329.578 13.8606 330.286 13.8357 330.977 13.7904C331.337 13.7677 331.546 13.8267 331.785 13.8746C331.871 13.8912 331.957 13.9281 332.036 13.9243C332.543 13.9033 333.05 13.8824 333.545 13.8466C333.777 13.8296 333.918 13.8406 334.108 13.8848C334.562 13.9935 334.574 13.9898 335.215 13.9539C335.411 13.9425 335.625 13.9219 335.808 13.9365C335.992 13.9511 336.139 14.0046 336.311 14.0378C336.391 14.0525 336.489 14.0727 336.574 14.0689C336.977 14.0536 337.381 14.0309 337.784 14.0101C338.163 13.9893 338.163 13.9911 338.873 14.1051C339.161 14.1529 339.46 14.1118 339.748 14.0966C340.059 14.0796 340.34 14.0793 340.58 14.1512C340.819 14.2231 341.106 14.2191 341.412 14.2039C341.699 14.1887 341.992 14.1477 342.286 14.1973C342.96 14.3113 342.96 14.3132 343.376 14.2905C343.98 14.2583 344.579 14.2279 345.19 14.1994C345.27 14.1956 345.374 14.2177 345.453 14.2324C345.625 14.2656 345.772 14.3209 345.956 14.3337C346.14 14.3483 346.353 14.3258 346.549 14.3145C347.178 14.2785 347.221 14.2655 347.644 14.3872C348 14.4868 348.438 14.3419 348.77 14.4563C348.96 14.5209 349.218 14.5724 349.572 14.5405C349.865 14.5142 350.17 14.5065 350.476 14.4913C350.959 14.4666 350.959 14.4685 351.571 14.5789C351.651 14.5936 351.755 14.612 351.835 14.6082C352.238 14.5929 352.648 14.5795 353.038 14.5457C353.496 14.5062 353.791 14.5763 354.134 14.6444C354.404 14.6978 354.721 14.6529 355.008 14.6341C355.32 14.6152 355.601 14.6204 355.834 14.6923C356.08 14.7661 356.367 14.7565 356.672 14.7413C356.96 14.728 357.252 14.6851 357.547 14.7366C358.178 14.8507 358.178 14.8507 358.636 14.8279C359.039 14.807 359.442 14.7843 359.846 14.7691C359.925 14.7653 360.023 14.7892 360.103 14.8058C360.275 14.8389 360.422 14.8943 360.606 14.907C360.789 14.9198 361.003 14.8955 361.204 14.886C361.406 14.8765 361.62 14.8484 361.803 14.8593C361.987 14.8702 362.159 14.9163 362.306 14.9569C362.478 15.0048 362.637 15.0102 362.869 14.9914C363.162 14.967 363.467 14.9611 363.767 14.9477C363.932 14.9827 364.104 15.0177 364.263 15.0564C364.429 15.0969 364.606 15.093 364.832 15.0798C365.584 15.0345 365.59 15.04 366.221 15.1541C366.509 15.2056 366.808 15.1626 367.095 15.1493C367.401 15.1342 367.688 15.1264 367.927 15.2002C368.161 15.2703 368.448 15.2792 368.754 15.2566C368.949 15.2416 369.157 15.2321 369.358 15.2263C369.45 15.2243 369.56 15.2316 369.628 15.2463C369.953 15.3237 370.271 15.3937 370.717 15.3432C371.109 15.3576 371.306 15.5092 371.777 15.479C372.174 15.4526 372.589 15.4465 372.98 15.4127C373.34 15.3827 373.598 15.4342 373.782 15.4988C374.114 15.6133 374.576 15.4571 374.908 15.5697C375.098 15.6343 375.343 15.6859 375.71 15.6577C376.113 15.6275 376.242 15.6663 376.36 15.7828C376.428 15.8494 376.416 15.9031 376.295 15.9551C376.173 16.009 376.038 15.9999 375.842 15.939C375.615 15.8707 375.346 15.8581 375.022 15.8733C374.704 15.8885 374.507 15.7924 374.244 15.7557C373.98 15.7171 373.67 15.7823 373.394 15.7326C372.744 15.6167 372.744 15.6167 372.304 15.6395C372.005 15.6547 371.693 15.6624 371.4 15.6887C371.052 15.7206 370.825 15.6635 370.586 15.6119C370.5 15.5935 370.414 15.5584 370.341 15.5603C369.638 15.5889 368.929 15.6157 368.233 15.6628C367.866 15.6874 367.67 15.6209 367.425 15.5749C367.339 15.5583 367.247 15.5251 367.173 15.5289C366.569 15.5556 365.97 15.5896 365.365 15.6218C365.249 15.672 365.122 15.7202 365.012 15.7741C364.897 15.8298 364.738 15.8541 364.506 15.8525C364.121 15.8529 363.743 15.9312 363.356 15.8335C362.958 15.7339 362.927 15.7395 362.542 15.7641C362.054 15.7961 361.534 15.7894 361.076 15.8621C360.997 15.8752 360.912 15.9105 360.912 15.9364C360.906 15.9531 361.035 15.977 361.115 15.9917C361.384 16.0358 361.695 15.9707 361.965 16.0166C362.142 16.0461 362.29 16.0903 362.467 16.1216C362.541 16.1345 362.651 16.1325 362.749 16.1305C362.853 16.1285 362.95 16.1155 363.048 16.1172C363.14 16.119 363.238 16.1299 363.311 16.1465C363.649 16.2165 364.004 16.2809 364.304 16.3639C364.599 16.445 364.873 16.3891 365.167 16.3851C366.342 16.5133 366.342 16.5152 367.13 16.4735C367.326 16.464 367.528 16.4526 367.729 16.4543C367.815 16.4542 367.895 16.4874 367.981 16.5058C368.226 16.5611 368.459 16.6108 368.801 16.5808C369.094 16.5545 369.406 16.5485 369.705 16.5315C370.108 16.5107 370.108 16.5107 370.795 16.6265C370.966 16.656 371.149 16.6521 371.369 16.637C371.559 16.6238 371.755 16.6513 371.89 16.7049C371.945 16.727 371.927 16.7641 371.946 16.7956C371.341 16.8259 370.73 16.847 370.144 16.8922C369.765 16.9204 369.593 16.841 369.342 16.7987C369.256 16.7839 369.164 16.7526 369.084 16.7564C368.486 16.7849 367.887 16.817 367.288 16.8548C367.215 16.8586 367.124 16.9013 367.118 16.9272C367.106 16.9754 367.26 17.0215 367.48 17.0194C367.773 17.0172 368.06 16.9854 368.324 17.061C368.545 17.1274 368.82 17.1567 369.144 17.1267C369.339 17.1098 369.547 17.1095 369.743 17.0945C370.262 17.0494 370.733 17.0581 371.125 17.1836C371.425 17.2166 371.719 17.1847 372.006 17.1677C372.22 17.1545 372.427 17.1413 372.581 17.1763C372.905 17.25 373.224 17.3237 373.67 17.2732C374.154 17.3244 374.522 17.4333 374.927 17.5217C375.117 17.5641 375.264 17.588 375.483 17.5599C375.575 17.5487 375.685 17.5486 375.783 17.5429C375.984 17.5334 376.198 17.5054 376.381 17.5162C376.565 17.529 376.719 17.5825 376.884 17.6157C376.964 17.6322 377.056 17.6599 377.135 17.658C377.441 17.6483 377.74 17.6295 378.039 17.6143C378.339 17.601 378.638 17.5877 378.938 17.5743C379.189 17.6222 379.446 17.67 379.698 17.7179C380.101 17.697 380.504 17.6762 380.901 17.6572C381.347 17.6344 381.347 17.6363 381.991 17.7503C382.279 17.8018 382.584 17.7681 382.859 17.7437C383.317 17.7043 383.623 17.7743 383.948 17.848C384.016 17.8628 384.138 17.8719 384.218 17.8644C384.535 17.8381 384.81 17.8581 385.044 17.9263C385.209 17.9743 385.375 17.9963 385.576 17.9868C386.279 17.9508 386.982 17.9129 387.684 17.8806C387.77 17.8768 387.868 17.8934 387.947 17.9081C388.572 18.0203 388.579 18.0258 389.037 17.9957C389.446 17.9693 389.825 17.9577 390.15 18.0592C390.218 18.0813 390.322 18.1127 390.395 18.1107C390.897 18.0916 391.404 18.0706 391.899 18.0386C392.125 18.0235 392.284 18.0289 392.461 18.0712C392.688 18.1247 392.891 18.1893 393.264 18.1647C394.296 18.095 394.302 18.1061 395.526 18.2324C395.612 18.2416 395.728 18.2266 395.826 18.2191C396.034 18.2003 396.187 18.2261 396.371 18.2684C396.781 18.3643 396.794 18.3587 397.185 18.3379C397.484 18.3208 397.796 18.3168 398.089 18.2886C398.541 18.2473 398.841 18.3192 399.178 18.3873C399.448 18.4407 399.759 18.3959 400.046 18.3789C400.358 18.36 400.639 18.3652 400.872 18.4353C401.032 18.4833 401.203 18.509 401.405 18.4995C402.108 18.4653 402.81 18.4275 403.513 18.3933C403.599 18.3895 403.703 18.4042 403.782 18.417C404.481 18.531 404.481 18.5366 405.171 18.4932C405.391 18.48 405.574 18.476 405.74 18.5147C405.899 18.5516 406.071 18.5865 406.237 18.6215C406.536 18.6082 406.842 18.6042 407.135 18.5816C407.361 18.5646 407.52 18.5719 407.698 18.6106C407.93 18.6603 408.127 18.7471 408.494 18.704C408.683 18.6834 408.903 18.6887 409.092 18.67C409.318 18.6457 409.471 18.6603 409.649 18.7082C409.87 18.7654 410.097 18.8244 410.451 18.7943C410.842 18.7605 411.258 18.7545 411.655 18.7281C411.874 18.713 412.028 18.7276 412.206 18.7756C412.426 18.8364 412.678 18.875 413.02 18.8505C413.716 18.8034 413.722 18.8126 414.402 18.9285C414.574 18.9579 414.757 18.954 414.977 18.9389C415.166 18.9258 415.362 18.9533 415.498 19.0068C415.627 19.066 415.615 19.103 415.628 19.1345ZM360.938 2.49639C360.736 2.50589 360.535 2.51724 360.239 2.35647C360.22 2.32871 360.232 2.29537 360.189 2.27134C360.091 2.22145 359.937 2.18645 359.754 2.18111C359.424 2.1741 359.027 2.23753 359.034 2.28567C359.04 2.32641 359.145 2.36146 359.347 2.39456C359.433 2.40742 359.5 2.42957 359.58 2.44429C359.813 2.48661 359.997 2.56974 360.333 2.52675C360.27 2.412 360.302 2.46937 360.333 2.52675C360.303 2.59716 360.396 2.64705 360.616 2.66716C360.677 2.67265 360.769 2.66882 360.818 2.65765C361.007 2.61669 361.037 2.5611 360.894 2.41496C360.87 2.43907 360.889 2.48163 360.944 2.49267C360.999 2.50372 361.134 2.49431 361.201 2.48127C361.371 2.44588 361.456 2.39947 361.413 2.36063C361.388 2.34029 361.272 2.3145 361.198 2.31459C361.07 2.31474 360.954 2.35562 360.938 2.49639ZM410.644 23.9149C410.198 23.9506 409.685 23.9382 409.239 24.011C409.16 24.024 409.081 24.0575 409.075 24.0834C409.069 24.1001 409.192 24.124 409.265 24.1369C409.431 24.1663 409.614 24.1569 409.828 24.1473C410.152 24.134 410.342 24.219 410.594 24.2613C410.673 24.2741 410.777 24.2832 410.863 24.2794C411.358 24.2566 411.846 24.232 412.341 24.2055C412.427 24.1998 412.518 24.1867 412.592 24.17C412.835 24.116 412.811 24.0808 412.572 24.0404C412.308 23.9962 412.099 23.9224 411.83 23.8875C411.444 23.838 411.054 23.9051 410.644 23.9149ZM375.942 25.3082C375.643 25.3233 375.349 25.3385 375.05 25.3537C374.952 25.3593 374.848 25.3613 374.757 25.3688C374.567 25.382 374.427 25.4211 374.336 25.4823C374.477 25.5303 374.649 25.5578 374.838 25.5521C375.138 25.5406 375.431 25.5162 375.73 25.5103C376.054 25.5025 376.245 25.5856 376.496 25.6279C376.576 25.6408 376.674 25.6425 376.765 25.6442C377.218 25.6511 377.492 25.5545 377.405 25.4194C377.342 25.3139 377.109 25.2512 376.828 25.2645C376.535 25.2778 376.235 25.293 375.942 25.3082ZM412.7 21.1752C412.773 21.1436 412.853 21.1213 412.889 21.0935C412.998 20.9989 412.954 20.9285 412.751 20.8547C412.506 20.7642 412.207 20.8257 411.932 20.8353C411.865 20.8372 411.792 20.8762 411.755 20.9003C411.731 20.917 411.732 20.9522 411.768 20.9614C412.069 21.0352 412.388 21.1033 412.7 21.1752ZM359.596 15.7676C359.302 15.7827 359.003 15.7942 358.71 15.8149C358.636 15.8206 358.57 15.8558 358.527 15.88C358.448 15.9245 358.534 15.9855 358.785 15.9908C359.073 15.9978 359.372 15.966 359.671 15.9508C360.05 15.9319 360.275 15.8631 360.134 15.804C359.999 15.7467 359.815 15.7358 359.596 15.7676ZM37.7298 12.1931C37.9253 12.1836 38.1269 12.1759 38.3224 12.1627C38.5057 12.1495 38.6459 12.1086 38.7368 12.0474C38.5834 11.9994 38.4118 11.9737 38.2223 11.9795C37.9229 11.991 37.6297 12.0061 37.3365 12.025C37.1532 12.0363 36.9765 12.0773 36.9345 12.1403C36.8923 12.1885 37.3021 12.2158 37.7298 12.1931ZM333.687 11.5555C333.767 11.5721 333.847 11.6053 333.926 11.6052C334.122 11.605 334.324 11.5936 334.507 11.5749C334.586 11.5674 334.647 11.534 334.683 11.508C334.707 11.4913 334.701 11.4617 334.664 11.4469C334.486 11.3582 333.777 11.3906 333.662 11.4926C333.65 11.5111 333.681 11.5351 333.687 11.5555ZM314.271 1.43704C314.289 1.46665 314.296 1.49627 314.321 1.52587C314.37 1.58138 314.505 1.62197 314.701 1.64951C314.854 1.60303 314.932 1.55109 314.926 1.49554C314.919 1.46591 314.9 1.43629 314.876 1.40668C314.826 1.35118 314.691 1.31061 314.495 1.28307C314.343 1.3277 314.27 1.37963 314.271 1.43704ZM426.885 25.5697C426.83 25.5939 426.775 25.618 426.714 25.6403C426.88 25.6938 427.033 25.7103 427.149 25.6805C427.222 25.6619 427.265 25.6341 427.319 25.61C427.154 25.5565 427.007 25.5418 426.885 25.5697ZM423.085 25.8261C423.165 25.8427 423.239 25.8649 423.324 25.8759C423.465 25.8942 423.593 25.8626 423.69 25.7958C423.61 25.7792 423.537 25.7571 423.451 25.7461C423.31 25.7277 423.182 25.7594 423.085 25.8261ZM425.49 25.4844C425.447 25.5289 425.534 25.5658 425.76 25.597C425.815 25.5729 425.888 25.5506 425.924 25.5246C425.985 25.4819 425.88 25.4432 425.66 25.4138C425.599 25.4361 425.544 25.4602 425.49 25.4844ZM412.559 23.5033C412.516 23.5478 412.602 23.5847 412.829 23.6159C412.884 23.5918 412.957 23.5695 412.993 23.5435C413.054 23.5009 412.949 23.4621 412.729 23.4327C412.668 23.455 412.613 23.4792 412.559 23.5033ZM394.81 10.4197C394.756 10.4438 394.701 10.468 394.64 10.4902C394.806 10.5438 394.959 10.5602 395.075 10.5305C395.148 10.5119 395.19 10.484 395.245 10.4599C395.079 10.4064 394.932 10.3917 394.81 10.4197ZM377.879 3.4874C378.026 3.50019 378.148 3.47413 378.251 3.40548C378.172 3.38891 378.098 3.36677 378.012 3.35576C377.871 3.33741 377.743 3.36905 377.646 3.43584C377.726 3.45427 377.806 3.47082 377.879 3.4874ZM368.93 3.06284C368.875 3.08698 368.82 3.11113 368.759 3.13342C368.925 3.18693 369.078 3.20341 369.194 3.17364C369.267 3.15504 369.309 3.12721 369.364 3.10306C369.198 3.04955 369.052 3.03677 368.93 3.06284ZM308.255 1.44235C308.2 1.46649 308.145 1.49063 308.085 1.51293C308.25 1.56644 308.403 1.58292 308.519 1.55315C308.592 1.53454 308.635 1.50671 308.689 1.48257C308.524 1.42906 308.377 1.41628 308.255 1.44235ZM6.43767 16.8696C6.35798 16.853 6.27837 16.8365 6.20477 16.818C6.02811 16.8682 5.97369 16.9146 6.07195 16.9497C6.13337 16.9718 6.22516 16.9847 6.30485 17.0012C6.48763 16.951 6.52984 16.9065 6.43767 16.8696Z" fill="#FFE492"/>
</svg>
