<svg width="255" height="73" viewBox="0 0 255 73" fill="none" xmlns="http://www.w3.org/2000/svg">
<path d="M164.348 53.7503C166.26 56.1728 162.244 66.1815 160.459 70.644C159.923 71.9955 161.083 72.5438 162.307 71.5238C170.263 64.8683 172.303 50.9453 170.684 48.9308C169.065 46.9163 155.167 45.2078 146.701 51.1748C145.388 52.08 145.605 53.3423 147.059 53.1765C151.84 52.6028 162.461 51.3278 164.348 53.7503ZM147.39 9.09976V3.2985C147.39 2.41875 148.066 1.83226 148.856 1.83226H174.803C175.631 1.83226 176.294 2.4315 176.294 3.2985V8.27101C176.294 9.09976 175.593 10.1835 174.343 11.9048L160.905 31.0935C165.903 30.966 171.169 31.7183 175.695 34.2683C176.715 34.842 176.995 35.6835 177.085 36.525V42.7088C177.085 43.5503 176.141 44.532 175.172 44.022C170.932 41.8387 166.229 40.7039 161.46 40.7128C156.69 40.7217 151.992 41.8739 147.76 44.073C146.867 44.5575 145.924 43.5758 145.924 42.7343V36.8693C145.924 35.9258 145.924 34.3193 146.88 32.8785L162.435 10.566H148.882C148.053 10.566 147.377 9.96676 147.377 9.11251M52.7722 45.246H44.8673C44.5148 45.2192 44.1825 45.0712 43.9269 44.8271C43.6712 44.5831 43.5079 44.2581 43.4647 43.9073V3.40051C43.4647 2.58451 44.1405 1.947 44.9947 1.947H52.3515C53.1165 1.9725 53.7285 2.57175 53.7795 3.2985V8.58975H53.9198C55.8323 3.477 59.4533 1.09276 64.311 1.09276C69.258 1.09276 72.3435 3.477 74.562 8.58975C75.3501 6.34617 76.8307 4.41101 78.79 3.06352C80.7494 1.71604 83.0862 1.02592 85.4632 1.09276C87.2255 1.06137 88.9703 1.44557 90.5563 2.21423C92.1424 2.98289 93.525 4.11438 94.5922 5.51701C97.0912 8.92126 96.5812 13.881 96.5812 18.216V43.7798C96.5779 43.9768 96.5356 44.1712 96.4568 44.3517C96.3779 44.5323 96.2641 44.6955 96.1219 44.8318C95.9796 44.9681 95.8117 45.0749 95.628 45.146C95.4442 45.2171 95.2482 45.2511 95.0512 45.246H87.1717C86.7947 45.2211 86.4401 45.0575 86.1765 44.7868C85.9128 44.5161 85.7587 44.1574 85.7438 43.7798V22.3088C85.7438 20.6003 85.8968 16.3418 85.527 14.7225C84.9405 12.0068 83.1683 11.2418 80.886 11.2418C78.9735 11.2418 76.9845 12.5168 76.1685 14.5568C75.3525 16.5968 75.4417 20.0138 75.4417 22.3088V43.7798C75.4384 43.9768 75.3961 44.1712 75.3173 44.3517C75.2385 44.5323 75.1246 44.6955 74.9824 44.8318C74.8401 44.9681 74.6723 45.0749 74.4885 45.146C74.3047 45.2171 74.1087 45.2511 73.9118 45.246H66.045C65.6671 45.2266 65.3107 45.0644 65.048 44.7922C64.7852 44.52 64.6357 44.1581 64.6297 43.7798L64.617 22.3088C64.617 17.7953 65.3565 11.1525 59.7592 11.1525C54.0855 11.1525 54.3022 17.6295 54.3022 22.3088V43.7798C54.2989 43.9768 54.2567 44.1712 54.1778 44.3517C54.099 44.5323 53.9851 44.6955 53.8429 44.8318C53.7006 44.9681 53.5328 45.0749 53.349 45.146C53.1652 45.2171 52.9692 45.2511 52.7722 45.246ZM198.645 1.09276C210.35 1.09276 216.686 11.1525 216.686 23.9408C216.686 36.2828 209.674 46.0875 198.632 46.0875C187.132 46.0875 180.872 36.0278 180.872 23.5073C180.872 10.8848 187.221 1.09276 198.645 1.09276ZM198.683 9.35476C192.869 9.35476 192.499 17.2853 192.499 22.2323C192.499 27.1793 192.423 37.749 198.619 37.749C204.739 37.749 205.02 29.2065 205.02 24.0173C205.02 20.6003 204.893 16.5203 203.847 13.2818C202.955 10.464 201.195 9.35476 198.683 9.35476ZM231.872 45.246H224.005C223.63 45.2181 223.279 45.0532 223.017 44.7828C222.756 44.5124 222.604 44.1553 222.59 43.7798L222.577 3.26026C222.621 2.88963 222.803 2.54914 223.086 2.30601C223.37 2.06288 223.734 1.93477 224.107 1.947H231.412C231.736 1.96313 232.047 2.08172 232.299 2.28568C232.551 2.48963 232.732 2.76841 232.815 3.08176V9.26551H232.968C235.174 3.73201 238.272 1.09276 243.729 1.09276C247.261 1.09276 250.716 2.36776 252.934 5.86126C255 9.09976 255 14.5568 255 18.4838V43.971C254.939 44.3312 254.751 44.6577 254.471 44.8915C254.19 45.1254 253.835 45.2511 253.47 45.246H245.565C245.222 45.222 244.897 45.0832 244.643 44.8518C244.388 44.6205 244.219 44.3102 244.162 43.971V21.9645C244.162 17.5403 244.673 11.0633 239.228 11.0633C237.316 11.0633 235.531 12.3383 234.664 14.3018C233.555 16.7753 233.414 19.236 233.414 21.9645V43.7798C233.398 44.1766 233.228 44.5515 232.94 44.8251C232.652 45.0987 232.269 45.2497 231.872 45.246ZM126.722 25.9043V24.1958C120.998 24.1958 114.979 25.407 114.979 32.139C114.979 35.5433 116.752 37.851 119.786 37.851C121.992 37.851 123.994 36.4868 125.243 34.2683C126.799 31.5398 126.722 28.977 126.722 25.9043ZM134.678 45.1313C134.423 45.3469 134.109 45.4806 133.777 45.5147C133.445 45.5488 133.11 45.4818 132.817 45.3225C130.19 43.155 129.719 42.135 128.278 40.0568C123.943 44.481 120.883 45.7943 115.273 45.7943C108.63 45.7943 103.466 41.7143 103.466 33.5033C103.466 27.1028 106.921 22.7295 111.881 20.6003C116.165 18.7133 122.145 18.3818 126.722 17.859V16.839C126.722 14.9648 126.85 12.7463 125.753 11.127C124.797 9.67351 122.948 9.07425 121.316 9.07425C118.32 9.07425 115.642 10.6043 114.979 13.8045C114.852 14.5185 114.329 15.2198 113.603 15.258L105.953 14.4293C105.315 14.289 104.588 13.7663 104.78 12.7718C106.539 3.5025 114.928 0.69751 122.438 0.69751C126.263 0.69751 131.287 1.71751 134.321 4.63726C138.159 8.20726 137.789 13.0013 137.789 18.2033V30.507C137.789 34.2045 139.319 35.8238 140.773 37.8255C141.27 38.5268 141.385 39.381 140.734 39.9165C139.128 41.268 136.272 43.7543 134.691 45.1568L134.678 45.1313ZM23.256 25.9043V24.1958C17.544 24.1958 11.526 25.407 11.526 32.139C11.526 35.5433 13.2855 37.851 16.32 37.851C18.5385 37.851 20.5275 36.4868 21.777 34.2683C23.3325 31.5398 23.256 28.977 23.256 25.9043ZM31.212 45.1313C30.9571 45.3469 30.643 45.4806 30.3108 45.5147C29.9787 45.5488 29.6439 45.4818 29.3505 45.3225C26.724 43.155 26.265 42.135 24.8243 40.0568C20.4893 44.481 17.4293 45.7943 11.8193 45.7943C5.1765 45.7943 0 41.7143 0 33.5033C0 27.1028 3.468 22.7295 8.415 20.6003C12.699 18.7133 18.6787 18.3818 23.256 17.859V16.839C23.256 14.9648 23.3963 12.7463 22.2998 11.127C21.3308 9.67351 19.4947 9.07425 17.8755 9.07425C14.8665 9.07425 12.1763 10.6043 11.526 13.8045C11.3985 14.5185 10.863 15.2198 10.1617 15.258L2.499 14.4293C1.8615 14.289 1.1475 13.7663 1.326 12.7718C3.0855 3.5025 11.4622 0.69751 18.972 0.69751C22.8097 0.69751 27.8333 1.71751 30.855 4.63726C34.6928 8.20726 34.3357 13.0013 34.3357 18.2033V30.507C34.3357 34.2045 35.8658 35.8238 37.3065 37.8255C37.8165 38.5268 37.9312 39.381 37.281 39.9165C35.6745 41.268 32.8185 43.7543 31.2375 45.1568L31.212 45.1313Z" fill="#757575"/>
</svg>
