<svg width="57" height="69" viewBox="0 0 57 69" fill="none" xmlns="http://www.w3.org/2000/svg">
<path d="M47.3104 38.4694C45.4399 29.0556 54.3752 23.5345 54.3752 23.5345C54.3752 23.5345 50.8939 18.4978 45.0431 17.2021C39.1952 15.9036 36.2684 17.526 33.3472 18.7428C30.4233 19.9627 28.9643 19.9627 28.9643 19.9627C24.7447 19.9627 21.6602 15.495 13.6208 17.529C8.08227 18.9267 2.25179 25.3203 1.19835 32.9513C0.14492 40.5851 2.41818 50.3257 6.80116 57.8749C11.1841 65.43 15.6489 68.2693 18.8179 68.351C21.987 68.4297 25.1503 66.0807 28.9643 65.5087C32.7812 64.9426 35.1302 66.892 38.8741 67.9454C42.6034 68.996 43.9108 68.0213 48.2062 64.3678C52.5133 60.7142 56.412 50.2353 56.412 50.2353C56.412 50.2353 49.1809 47.889 47.3104 38.4694Z" fill="black"/>
<path d="M39.0287 11.1118C43.1724 6.88943 41.7688 0.352783 41.7688 0.352783C41.7688 0.352783 35.9501 1.37416 32.0514 5.43029C28.1558 9.4894 28.8006 15.9005 28.8006 15.9005C28.8006 15.9005 34.8849 15.3315 39.0287 11.1118Z" fill="black"/>
</svg>
