<svg width="211" height="71" viewBox="0 0 211 71" fill="none" xmlns="http://www.w3.org/2000/svg">
<path d="M90.2977 37.1856C90.2977 47.2298 82.4804 54.6311 72.8868 54.6311C63.2932 54.6311 55.476 47.2298 55.476 37.1856C55.476 27.0706 63.2932 19.74 72.8868 19.74C82.4804 19.74 90.2977 27.0706 90.2977 37.1856ZM82.676 37.1856C82.676 30.9089 78.1453 26.6144 72.8868 26.6144C67.6283 26.6144 63.0976 30.9089 63.0976 37.1856C63.0976 43.3993 67.6283 47.7567 72.8868 47.7567C78.1453 47.7567 82.676 43.3914 82.676 37.1856Z" fill="#EA4335"/>
<path d="M127.858 37.1856C127.858 47.2298 120.041 54.6311 110.447 54.6311C100.854 54.6311 93.0363 47.2298 93.0363 37.1856C93.0363 27.0785 100.854 19.74 110.447 19.74C120.041 19.74 127.858 27.0706 127.858 37.1856ZM120.236 37.1856C120.236 30.9089 115.706 26.6144 110.447 26.6144C105.189 26.6144 100.658 30.9089 100.658 37.1856C100.658 43.3993 105.189 47.7567 110.447 47.7567C115.706 47.7567 120.236 43.3914 120.236 37.1856Z" fill="#FBBC05"/>
<path d="M163.854 20.794V52.1142C163.854 64.9978 156.294 70.2598 147.358 70.2598C138.946 70.2598 133.883 64.6045 131.974 59.9796L138.61 57.2031C139.791 60.0426 142.687 63.3932 147.35 63.3932C153.071 63.3932 156.615 59.8459 156.615 53.1682V50.6591H156.349C154.643 52.7749 151.357 54.6233 147.21 54.6233C138.531 54.6233 130.581 47.0252 130.581 37.2485C130.581 27.4009 138.531 19.74 147.21 19.74C151.349 19.74 154.636 21.5884 156.349 23.6413H156.615V20.8018H163.854V20.794ZM157.155 37.2485C157.155 31.1056 153.078 26.6144 147.89 26.6144C142.632 26.6144 138.226 31.1056 138.226 37.2485C138.226 43.3285 142.632 47.7567 147.89 47.7567C153.078 47.7567 157.155 43.3285 157.155 37.2485Z" fill="#4285F4"/>
<path d="M175.787 2.43555V53.561H168.353V2.43555H175.787Z" fill="#34A853"/>
<path d="M204.756 42.9271L210.671 46.8913C208.762 49.7308 204.161 54.6231 196.211 54.6231C186.351 54.6231 178.987 46.9621 178.987 37.1775C178.987 26.803 186.413 19.7319 195.358 19.7319C204.364 19.7319 208.77 26.9367 210.21 30.8301L211 32.8122L187.799 42.4709C189.575 45.9711 192.337 47.7565 196.211 47.7565C200.092 47.7565 202.784 45.8374 204.756 42.9271ZM186.546 36.6505L202.056 30.1772C201.203 27.9985 198.636 26.4805 195.616 26.4805C191.742 26.4805 186.351 29.9177 186.546 36.6505Z" fill="#EA4335"/>
<path d="M27.3368 32.647V25.2456H52.1502C52.3928 26.5355 52.518 28.0614 52.518 29.7131C52.518 35.2661 51.0077 42.1327 46.1405 47.025C41.4063 51.9802 35.3575 54.623 27.3446 54.623C12.4925 54.623 0.00366211 42.463 0.00366211 27.5344C0.00366211 12.6058 12.4925 0.445801 27.3446 0.445801C35.561 0.445801 41.4141 3.68637 45.8119 7.91011L40.616 13.1328C37.4625 10.1596 33.19 7.84719 27.3368 7.84719C16.4912 7.84719 8.00875 16.6329 8.00875 27.5344C8.00875 38.4359 16.4912 47.2216 27.3368 47.2216C34.3715 47.2216 38.378 44.3822 40.9446 41.8023C43.0261 39.7101 44.3955 36.7213 44.9354 32.6391L27.3368 32.647Z" fill="#4285F4"/>
</svg>
