<svg width="72" height="71" viewBox="0 0 72 71" fill="none" xmlns="http://www.w3.org/2000/svg">
<g clip-path="url(#clip0_679_2290)">
<path d="M54.4891 0H16.9267C7.77447 0 0.355103 7.41937 0.355103 16.5716V54.1339C0.355103 63.2862 7.77447 70.7056 16.9267 70.7056H54.4891C63.6413 70.7056 71.0607 63.2862 71.0607 54.1339V16.5716C71.0607 7.41937 63.6413 0 54.4891 0Z" fill="url(#paint0_radial_679_2290)"/>
<path d="M54.4891 0H16.9267C7.77447 0 0.355103 7.41937 0.355103 16.5716V54.1339C0.355103 63.2862 7.77447 70.7056 16.9267 70.7056H54.4891C63.6413 70.7056 71.0607 63.2862 71.0607 54.1339V16.5716C71.0607 7.41937 63.6413 0 54.4891 0Z" fill="url(#paint1_radial_679_2290)"/>
<path d="M35.7104 7.7334C28.2095 7.7334 27.2679 7.76627 24.3221 7.90022C21.3817 8.035 19.3746 8.50039 17.6186 9.18341C15.8018 9.88881 14.2609 10.8326 12.7258 12.3682C11.1893 13.9036 10.2456 15.4444 9.53797 17.2604C8.85301 19.017 8.38707 21.0249 8.25477 23.9639C8.12302 26.9101 8.0885 27.8519 8.0885 35.353C8.0885 42.8542 8.12164 43.7927 8.25532 46.7386C8.39066 49.6789 8.85604 51.686 9.53852 53.4421C10.2445 55.2589 11.1882 56.7997 12.7239 58.3348C14.2587 59.8713 15.7996 60.8173 17.615 61.5227C19.3724 62.2057 21.3798 62.6711 24.3196 62.8059C27.2657 62.9398 28.2064 62.9727 35.707 62.9727C43.2087 62.9727 44.1472 62.9398 47.0931 62.8059C50.0335 62.6711 52.0428 62.2057 53.8002 61.5227C55.6162 60.8173 57.1548 59.8713 58.6894 58.3348C60.2258 56.7997 61.1693 55.2589 61.8772 53.4429C62.5561 51.686 63.0223 49.6784 63.1604 46.7391C63.2927 43.7932 63.3272 42.8542 63.3272 35.353C63.3272 27.8519 63.2927 26.9106 63.1604 23.9645C63.0223 21.0241 62.5561 19.0173 61.8772 17.2613C61.1693 15.4444 60.2258 13.9036 58.6894 12.3682C57.1532 10.832 55.6167 9.88826 53.7985 9.18369C52.0378 8.50039 50.0296 8.03473 47.0892 7.90022C44.1431 7.76627 43.2051 7.7334 35.7018 7.7334H35.7104ZM33.2326 12.7107C33.9681 12.7096 34.7887 12.7107 35.7104 12.7107C43.085 12.7107 43.9589 12.7372 46.8711 12.8695C49.5639 12.9927 51.0256 13.4426 51.9991 13.8207C53.2881 14.3212 54.207 14.9197 55.1732 15.8866C56.1398 16.8533 56.7381 17.7739 57.2399 19.0629C57.618 20.0351 58.0685 21.4967 58.1911 24.1896C58.3234 27.1012 58.3521 27.9756 58.3521 35.3467C58.3521 42.7177 58.3234 43.5924 58.1911 46.5038C58.0679 49.1967 57.618 50.6583 57.2399 51.6308C56.7395 52.9198 56.1398 53.8376 55.1732 54.8037C54.2065 55.7704 53.2887 56.3686 51.9991 56.8694C51.0267 57.2491 49.5639 57.6979 46.8711 57.8211C43.9594 57.9534 43.085 57.9821 35.7104 57.9821C28.3354 57.9821 27.4613 57.9534 24.5499 57.8211C21.857 57.6968 20.3954 57.2469 19.421 56.8688C18.1323 56.3681 17.2115 55.7698 16.2448 54.8031C15.2781 53.8365 14.6799 52.9181 14.178 51.6286C13.7999 50.6561 13.3494 49.1945 13.2268 46.5016C13.0945 43.59 13.068 42.7155 13.068 35.3398C13.068 27.964 13.0945 27.0943 13.2268 24.1827C13.35 21.4898 13.7999 20.0282 14.178 19.0546C14.6788 17.7656 15.2781 16.845 16.2451 15.8783C17.212 14.9117 18.1323 14.3132 19.4213 13.8116C20.3949 13.4318 21.857 12.983 24.5499 12.8593C27.0978 12.7441 28.0852 12.7096 33.2326 12.7038V12.7107ZM50.4536 17.2966C48.6238 17.2966 47.1392 18.7798 47.1392 20.6098C47.1392 22.4396 48.6238 23.9241 50.4536 23.9241C52.2833 23.9241 53.7679 22.4396 53.7679 20.6098C53.7679 18.78 52.2833 17.2955 50.4536 17.2955V17.2966ZM35.7104 21.1691C27.8775 21.1691 21.5267 27.5199 21.5267 35.353C21.5267 43.1862 27.8775 49.5339 35.7104 49.5339C43.5435 49.5339 49.8921 43.1862 49.8921 35.353C49.8921 27.5202 43.5429 21.1691 35.7098 21.1691H35.7104ZM35.7104 26.1464C40.7948 26.1464 44.917 30.268 44.917 35.353C44.917 40.4375 40.7948 44.5597 35.7104 44.5597C30.6259 44.5597 26.504 40.4375 26.504 35.353C26.504 30.268 30.6256 26.1464 35.7104 26.1464Z" fill="white"/>
</g>
<defs>
<radialGradient id="paint0_radial_679_2290" cx="0" cy="0" r="1" gradientUnits="userSpaceOnUse" gradientTransform="translate(19.1363 76.1513) rotate(-90) scale(70.0745 65.1748)">
<stop stop-color="#FFDD55"/>
<stop offset="0.1" stop-color="#FFDD55"/>
<stop offset="0.5" stop-color="#FF543E"/>
<stop offset="1" stop-color="#C837AB"/>
</radialGradient>
<radialGradient id="paint1_radial_679_2290" cx="0" cy="0" r="1" gradientUnits="userSpaceOnUse" gradientTransform="translate(-11.4884 5.09329) rotate(78.681) scale(31.3237 129.117)">
<stop stop-color="#3771C8"/>
<stop offset="0.128" stop-color="#3771C8"/>
<stop offset="1" stop-color="#6600FF" stop-opacity="0"/>
</radialGradient>
<clipPath id="clip0_679_2290">
<rect width="70.7056" height="70.7056" fill="white" transform="translate(0.355103)"/>
</clipPath>
</defs>
</svg>
