<svg width="74" height="73" viewBox="0 0 74 73" fill="none" xmlns="http://www.w3.org/2000/svg">
<g clip-path="url(#clip0_679_2295)">
<path d="M56.4535 0H17.8058C8.38911 0 0.755371 7.63374 0.755371 17.0504V55.6981C0.755371 65.1148 8.38911 72.7485 17.8058 72.7485H56.4535C65.8702 72.7485 73.5039 65.1148 73.5039 55.6981V17.0504C73.5039 7.63374 65.8702 0 56.4535 0Z" fill="white"/>
<path d="M56.4535 0H17.8058C8.38911 0 0.755371 7.63374 0.755371 17.0504V55.6981C0.755371 65.1148 8.38911 72.7485 17.8058 72.7485H56.4535C65.8702 72.7485 73.5039 65.1148 73.5039 55.6981V17.0504C73.5039 7.63374 65.8702 0 56.4535 0Z" fill="#0A66C2"/>
<path d="M53.2465 61.8604H61.5643C61.8657 61.8604 62.1548 61.7407 62.368 61.5276C62.5811 61.3144 62.7009 61.0254 62.701 60.724L62.7053 43.1501C62.7053 33.9647 60.726 26.9044 49.9919 26.9044C45.9114 26.7527 42.0634 28.8561 39.987 32.3685C39.9768 32.3856 39.9614 32.3989 39.943 32.4063C39.9246 32.4138 39.9042 32.415 39.8851 32.4098C39.8659 32.4046 39.849 32.3933 39.8368 32.3776C39.8247 32.3619 39.8181 32.3426 39.8179 32.3228V28.8891C39.8179 28.5876 39.6981 28.2985 39.485 28.0853C39.2718 27.8722 38.9827 27.7524 38.6812 27.7524H30.7877C30.4862 27.7524 30.1971 27.8722 29.9839 28.0853C29.7708 28.2985 29.651 28.5876 29.651 28.8891V60.7223C29.651 61.0237 29.7708 61.3129 29.9839 61.526C30.1971 61.7392 30.4862 61.859 30.7877 61.859H39.1049C39.4064 61.859 39.6955 61.7392 39.9087 61.526C40.1218 61.3129 40.2416 61.0237 40.2416 60.7223V44.9867C40.2416 40.5374 41.0856 36.2285 46.6017 36.2285C52.0394 36.2285 52.1098 41.3197 52.1098 45.2749V60.7237C52.1098 61.0252 52.2296 61.3143 52.4428 61.5275C52.6559 61.7406 52.9451 61.8604 53.2465 61.8604ZM11.554 16.9447C11.554 20.3161 14.3295 23.0902 17.7012 23.0902C21.0721 23.09 23.8459 20.3141 23.8459 16.9433C23.8453 13.5724 21.0712 10.7986 17.7001 10.7986C14.3281 10.7986 11.554 13.5733 11.554 16.9447ZM13.5315 61.8604H21.8598C22.1613 61.8604 22.4504 61.7406 22.6636 61.5275C22.8767 61.3143 22.9965 61.0252 22.9965 60.7237V28.8891C22.9965 28.5876 22.8767 28.2985 22.6636 28.0853C22.4504 27.8722 22.1613 27.7524 21.8598 27.7524H13.5315C13.2301 27.7524 12.9409 27.8722 12.7278 28.0853C12.5146 28.2985 12.3948 28.5876 12.3948 28.8891V60.7237C12.3948 61.0252 12.5146 61.3143 12.7278 61.5275C12.9409 61.7406 13.2301 61.8604 13.5315 61.8604Z" fill="white"/>
</g>
<defs>
<clipPath id="clip0_679_2295">
<rect width="72.7485" height="72.7485" fill="white" transform="translate(0.755371)"/>
</clipPath>
</defs>
</svg>
