<svg width="287" height="63" viewBox="0 0 287 63" fill="none" xmlns="http://www.w3.org/2000/svg">
<g clip-path="url(#clip0_679_2229)">
<path d="M287 28.4019V23.2972H280.732V15.3613L280.521 15.427L274.634 17.2487L274.518 17.2844V23.2975H265.226V19.9477C265.226 18.3879 265.57 17.1943 266.25 16.3982C266.925 15.6118 267.89 15.2119 269.122 15.2119C270.007 15.2119 270.923 15.4228 271.845 15.8386L272.077 15.9431V10.5671L271.968 10.5267C271.107 10.2139 269.937 10.0564 268.487 10.0564C266.658 10.0564 264.997 10.4588 263.549 11.2562C262.099 12.0548 260.959 13.1947 260.16 14.6442C259.364 16.0919 258.96 17.764 258.96 19.6144V23.2972H254.596V28.4019H258.96V49.907H265.226V28.4019H274.518V42.068C274.518 47.6964 277.143 50.5486 282.32 50.5486C283.17 50.5486 284.066 50.4478 284.98 50.2505C285.91 50.0477 286.544 49.8453 286.917 49.6291L287 49.5797V44.4278L286.745 44.5982C286.405 44.8273 285.982 45.0146 285.485 45.1539C284.986 45.2957 284.57 45.3667 284.247 45.3667C283.035 45.3667 282.137 45.0362 281.581 44.384C281.018 43.7258 280.732 42.5749 280.732 40.9648V28.4019H287ZM240.604 45.3676C238.33 45.3676 236.537 44.605 235.274 43.1027C234.003 41.593 233.359 39.4404 233.359 36.7056C233.359 33.884 234.003 31.6756 235.274 30.1391C236.539 28.6127 238.314 27.8381 240.553 27.8381C242.726 27.8381 244.455 28.5779 245.694 30.0383C246.939 31.5063 247.571 33.697 247.571 36.5514C247.571 39.441 246.977 41.6606 245.805 43.1454C244.641 44.619 242.892 45.3676 240.604 45.3676ZM240.883 22.6561C236.544 22.6561 233.098 23.9419 230.641 26.4776C228.186 29.0137 226.941 32.5233 226.941 36.9097C226.941 41.076 228.156 44.4272 230.553 46.8687C232.95 49.3109 236.213 50.5481 240.248 50.5481C244.454 50.5481 247.831 49.2444 250.287 46.6735C252.743 44.1054 253.987 40.629 253.987 36.3451C253.987 32.1136 252.82 28.7374 250.516 26.3123C248.211 23.886 244.97 22.6561 240.883 22.6561ZM216.839 22.6561C213.888 22.6561 211.447 23.4196 209.582 24.9249C207.706 26.4392 206.754 28.4252 206.754 30.8284C206.754 32.0777 206.96 33.1873 207.364 34.1285C207.771 35.0728 208.4 35.9042 209.236 36.602C210.066 37.2941 211.347 38.0191 213.045 38.7567C214.472 39.3506 215.536 39.8529 216.212 40.2488C216.872 40.6369 217.341 41.0269 217.606 41.4068C217.864 41.7786 217.994 42.2873 217.994 42.9152C217.994 44.7029 216.67 45.5728 213.947 45.5728C212.936 45.5728 211.784 45.3594 210.521 44.9388C209.268 44.5246 208.085 43.9179 207.014 43.1401L206.754 42.9514V49.0521L206.849 49.097C207.736 49.5109 208.853 49.8599 210.171 50.1345C211.486 50.4094 212.68 50.5492 213.718 50.5492C216.921 50.5492 219.499 49.7821 221.381 48.2678C223.275 46.7431 224.235 44.7102 224.235 42.2239C224.235 40.4302 223.718 38.8921 222.7 37.6516C221.688 36.4211 219.933 35.2915 217.484 34.2931C215.534 33.5012 214.284 32.8439 213.769 32.3393C213.272 31.8519 213.019 31.1626 213.019 30.2896C213.019 29.5158 213.331 28.8958 213.97 28.3937C214.615 27.8892 215.512 27.6325 216.637 27.6325C217.68 27.6325 218.748 27.7993 219.811 28.1261C220.872 28.453 221.804 28.8907 222.583 29.4262L222.839 29.6031V23.8161L222.74 23.7734C222.022 23.462 221.076 23.1955 219.926 22.9793C218.781 22.7645 217.743 22.6561 216.839 22.6561ZM190.421 45.3676C188.147 45.3676 186.354 44.605 185.091 43.1027C183.819 41.593 183.176 39.441 183.176 36.7056C183.176 33.884 183.82 31.6756 185.092 30.1391C186.355 28.6127 188.131 27.8381 190.371 27.8381C192.542 27.8381 194.272 28.5779 195.511 30.0383C196.756 31.5063 197.388 33.697 197.388 36.5514C197.388 39.441 196.793 41.6606 195.621 43.1454C194.458 44.619 192.709 45.3676 190.421 45.3676ZM190.7 22.6561C186.361 22.6561 182.914 23.9419 180.459 26.4776C178.003 29.0137 176.758 32.5233 176.758 36.9097C176.758 41.0777 177.974 44.4272 180.371 46.8687C182.768 49.3109 186.03 50.5481 190.066 50.5481C194.271 50.5481 197.649 49.2444 200.105 46.6735C202.56 44.1054 203.804 40.629 203.804 36.3451C203.804 32.1136 202.637 28.7374 200.333 26.3123C198.027 23.886 194.786 22.6561 190.7 22.6561ZM167.247 27.9054V23.2972H161.058V49.9065H167.247V36.2948C167.247 33.9803 167.766 32.0788 168.79 30.6426C169.801 29.2235 171.148 28.5044 172.792 28.5044C173.35 28.5044 173.976 28.5973 174.653 28.7812C175.324 28.964 175.81 29.1625 176.097 29.3714L176.357 29.5621V23.2517L176.256 23.2082C175.68 22.9605 174.865 22.8356 173.833 22.8356C172.278 22.8356 170.886 23.341 169.694 24.3361C168.647 25.2107 167.891 26.41 167.313 27.9054H167.247ZM149.975 22.6561C147.135 22.6561 144.603 23.2719 142.449 24.4857C140.29 25.7024 138.621 27.4393 137.485 29.648C136.354 31.8513 135.78 34.425 135.78 37.2952C135.78 39.8094 136.337 42.1166 137.437 44.1501C138.538 46.1869 140.096 47.7804 142.068 48.8855C144.038 49.9893 146.314 50.5489 148.834 50.5489C151.775 50.5489 154.287 49.9542 156.3 48.7814L156.381 48.7342V42.9997L156.121 43.1918C155.209 43.8637 154.19 44.4 153.093 44.7863C152 45.1724 151.002 45.3676 150.128 45.3676C147.699 45.3676 145.75 44.5991 144.335 43.0839C142.917 41.5668 142.197 39.4365 142.197 36.7558C142.197 34.0583 142.947 31.8732 144.425 30.261C145.899 28.6535 147.852 27.8381 150.23 27.8381C152.264 27.8381 154.246 28.5347 156.122 29.9105L156.381 30.1012V24.0589L156.298 24.0112C155.592 23.6117 154.629 23.2817 153.434 23.0315C152.244 22.7819 151.081 22.6561 149.975 22.6561ZM131.518 23.2975H125.329V49.9065H131.518V23.2975ZM128.486 11.9618C127.468 11.9618 126.579 12.3125 125.849 13.0075C125.117 13.7044 124.745 14.5818 124.745 15.6174C124.745 16.6366 125.112 17.4981 125.838 18.1765C126.559 18.8529 127.451 19.1957 128.487 19.1957C129.523 19.1957 130.417 18.8529 131.147 18.1776C131.882 17.4981 132.254 16.6369 132.254 15.6174C132.254 14.6181 131.892 13.7496 131.177 13.0355C130.463 12.3229 129.558 11.9618 128.486 11.9618ZM113.045 21.3342V49.9065H119.361V12.7764H110.619L99.5076 40.3555L88.7246 12.7764H79.627V49.9062H85.5624V21.3314H85.7662L97.1527 49.9065H101.632L112.841 21.3342H113.045Z" fill="#706D6E"/>
<path d="M29.1146 29.8149H0V0.369385H29.1146V29.8149Z" fill="#F1511B"/>
<path d="M61.2603 29.8142H32.1462V0.368652H61.2603V29.8142Z" fill="#80CC28"/>
<path d="M29.1138 62.3369H0V32.8916H29.1138V62.3369Z" fill="#00ADEF"/>
<path d="M61.2603 62.3369H32.1462V32.8916H61.2603V62.3369Z" fill="#FBBC09"/>
</g>
<defs>
<clipPath id="clip0_679_2229">
<rect width="287" height="62" fill="white" transform="translate(0 0.352783)"/>
</clipPath>
</defs>
</svg>
