<svg width="310" height="81" viewBox="0 0 310 81" fill="none" xmlns="http://www.w3.org/2000/svg">
<g filter="url(#filter0_d_679_2301)">
<path d="M273.6 0C270.84 0 268.632 1.5433 268.632 3.42538L270.313 22.4469C270.501 23.6013 271.907 24.4796 273.6 24.4796C275.307 24.4796 276.7 23.6013 276.888 22.4469L278.582 3.42538C278.582 1.5433 276.373 0 273.6 0ZM4.86438 15.2574C4.86438 15.2574 12.3551 45.9604 13.547 50.9542C14.9523 56.7636 17.4618 58.9091 24.7141 57.4662L29.3942 38.4321C30.5736 33.7018 31.3766 30.3266 32.142 25.5085H32.2675C32.807 30.3768 33.5724 33.7143 34.5385 38.4321L37.4244 51.6192C38.4031 56.1613 41.1258 59.0221 48.215 57.4662L59.382 15.2574H50.3731L46.5713 33.5136C45.5424 38.821 44.6139 42.9616 43.8987 47.8174H43.7733C43.1208 43.0118 42.2927 39.0344 41.2638 33.8524L37.2864 15.2574H27.9136L23.6726 33.3881C22.4681 38.8963 21.3514 43.338 20.6362 48.0307H20.5107C19.6681 42.9062 18.7478 37.7947 17.7504 32.698C17.7504 32.698 15.2284 19.7367 14.3375 15.2574H4.86438ZM90.6622 15.2574V57.4662H99.2319V15.2574H90.6622ZM211.366 15.2574V46.3996C211.366 50.6907 212.169 53.6895 213.888 55.5339C215.394 57.14 217.891 58.1688 220.865 58.1688C223.399 58.1688 225.896 57.692 227.075 57.2529L226.95 50.5652C225.888 50.832 224.795 50.9585 223.7 50.9416C220.789 50.9416 219.811 49.0847 219.811 45.2201V33.3128H227.276V25.245H219.811V15.2574H211.366ZM246.222 15.2574C244.792 15.295 243.161 16.3866 242.119 18.1809C240.739 20.5774 240.978 23.2625 242.596 24.2036L259.911 32.2589C260.99 32.6604 262.458 31.8825 263.312 30.427C264.165 28.959 264.102 27.2902 263.199 26.5624L247.565 15.5962C247.158 15.3596 246.693 15.2422 246.222 15.2574ZM300.978 15.2574C300.512 15.2445 300.052 15.3619 299.648 15.5962L284.002 26.5624C283.111 27.2902 283.048 28.9464 283.889 30.4144V30.427C284.742 31.895 286.21 32.6604 287.289 32.2589L304.605 24.191C306.236 23.2625 306.474 20.5774 305.106 18.1809C304.052 16.3866 302.421 15.295 300.978 15.2574ZM71.5151 25.0442C66.1951 25.0442 61.9667 26.5499 59.658 27.8673L61.3393 33.6391C63.4473 32.3216 66.8099 31.2174 69.9969 31.2174C75.2542 31.2049 76.12 34.1911 76.12 36.1108V36.5625C64.6393 36.55 57.3995 40.5149 57.3995 48.6079C57.3995 53.5515 61.0884 58.1814 67.5 58.1814C71.4524 58.1814 74.7523 56.6004 76.7348 54.0784H76.923C76.923 54.0784 78.2404 59.5616 85.4551 57.4662C85.0928 54.9315 84.925 52.3727 84.9532 49.8124V38.545C84.9532 31.368 81.8791 25.0442 71.5151 25.0442ZM122.783 25.0442C117.413 25.0442 115.004 27.767 113.548 30.0631H113.423V25.7594H105.242V57.4662H113.849V38.8712C113.849 37.9929 113.95 37.077 114.263 36.274C114.966 34.4044 116.71 32.2087 119.496 32.2087C122.971 32.2087 124.59 35.1573 124.59 39.3982V57.4662H133.197V38.6454C133.197 37.8173 133.323 36.8135 133.561 36.0732C133.891 34.9579 134.573 33.9791 135.504 33.2827C136.436 32.5863 137.567 32.2096 138.73 32.2087C142.244 32.2087 143.95 35.0945 143.95 40.0883V57.4662H152.558V38.796C152.558 28.9464 147.551 25.0442 141.918 25.0442C139.408 25.0442 137.438 25.6716 135.656 26.7632C134.151 27.6833 132.812 29.0008 131.641 30.7156H131.516C130.823 28.9847 129.612 27.5105 128.049 26.4951C126.485 25.4797 124.646 24.9729 122.783 25.0442ZM170.086 25.0442C164.753 25.0442 160.538 26.5499 158.229 27.8673L159.91 33.6391C162.018 32.3216 165.381 31.2174 168.568 31.2174C173.825 31.2049 174.678 34.1911 174.678 36.1108V36.5625C163.21 36.55 155.97 40.5149 155.97 48.6079C155.97 53.5515 159.659 58.1814 166.071 58.1814C170.023 58.1814 173.323 56.6004 175.293 54.0784H175.494C175.494 54.0784 176.799 59.5616 184.026 57.4662C183.664 54.9315 183.496 52.3727 183.524 49.8124V38.545C183.524 31.368 180.45 25.0442 170.086 25.0442ZM205.858 25.0442C202.558 25.0442 198.807 27.1772 197.226 31.7444H196.987V25.7594H189.233V57.4662H198.079V41.2301C198.079 40.3685 198.142 39.5906 198.267 38.8963C198.919 35.4835 201.529 33.3128 205.256 33.3128C206.285 33.3128 207.012 33.4257 207.803 33.5387V25.245C207.164 25.1059 206.512 25.0385 205.858 25.0442ZM260.564 40.3518C260.34 40.3517 260.119 40.3943 259.911 40.4773L242.596 48.52C240.965 49.4611 240.727 52.1462 242.119 54.5427C243.5 56.9267 245.946 58.0685 247.565 57.14L263.199 46.1737C264.102 45.4209 264.165 43.7772 263.324 42.2966C262.634 41.1046 261.53 40.3769 260.564 40.3644M286.65 40.3644C285.683 40.3895 284.579 41.1172 283.889 42.3217C283.048 43.7897 283.111 45.446 284.015 46.1863L299.648 57.1525C301.267 58.081 303.701 56.9518 305.094 54.5552C306.487 52.1587 306.236 49.4736 304.605 48.5326L287.289 40.4773C287.089 40.3884 286.868 40.3412 286.65 40.3644ZM76.396 42.2088V46.1612C76.4047 46.7413 76.3329 47.3198 76.1827 47.8801C75.768 49.0786 74.9856 50.1157 73.947 50.8434C72.9083 51.5711 71.6665 51.9524 70.3984 51.9329C68.0145 51.9329 66.1324 50.5903 66.1324 47.7421C66.1324 43.3882 70.938 42.1837 76.396 42.2088ZM174.954 42.2088V46.1612C174.963 46.7413 174.891 47.3198 174.741 47.8801C174.327 49.0766 173.546 50.1121 172.51 50.8397C171.474 51.5672 170.235 51.9497 168.969 51.9329C166.585 51.9329 164.703 50.5903 164.703 47.7421C164.703 43.3882 169.496 42.1837 174.954 42.2088ZM273.6 48.2691C271.907 48.2691 270.501 49.1474 270.313 50.3017L268.632 69.3233C268.632 71.2054 270.84 72.7487 273.6 72.7487C276.361 72.7487 278.582 71.2054 278.582 69.3233L276.888 50.3017C276.7 49.1474 275.307 48.2691 273.6 48.2691Z" fill="#757575"/>
</g>
<defs>
<filter id="filter0_d_679_2301" x="0.86438" y="0" width="309.136" height="80.7488" filterUnits="userSpaceOnUse" color-interpolation-filters="sRGB">
<feFlood flood-opacity="0" result="BackgroundImageFix"/>
<feColorMatrix in="SourceAlpha" type="matrix" values="0 0 0 0 0 0 0 0 0 0 0 0 0 0 0 0 0 0 127 0" result="hardAlpha"/>
<feOffset dy="4"/>
<feGaussianBlur stdDeviation="2"/>
<feComposite in2="hardAlpha" operator="out"/>
<feColorMatrix type="matrix" values="0 0 0 0 0 0 0 0 0 0 0 0 0 0 0 0 0 0 0.25 0"/>
<feBlend mode="normal" in2="BackgroundImageFix" result="effect1_dropShadow_679_2301"/>
<feBlend mode="normal" in="SourceGraphic" in2="effect1_dropShadow_679_2301" result="shape"/>
</filter>
</defs>
</svg>
